<svg width="34" height="64" viewBox="0 0 34 64" fill="none" xmlns="http://www.w3.org/2000/svg">
<path d="M16.9998 22.6312C15.9515 22.6312 14.9267 22.9421 14.0551 23.5244C13.1834 24.1068 12.5041 24.9346 12.1029 25.903C11.7018 26.8715 11.5968 27.9371 11.8013 28.9652C12.0058 29.9933 12.5106 30.9377 13.2519 31.6789C13.9931 32.4202 14.9376 32.9249 15.9657 33.1294C16.9939 33.334 18.0596 33.229 19.0281 32.8278C19.9966 32.4267 20.8244 31.7474 21.4068 30.8758C21.9892 30.0042 22.3 28.9795 22.3 27.9313C22.3004 27.2352 22.1635 26.5458 21.8973 25.9026C21.631 25.2595 21.2406 24.6751 20.7484 24.1828C20.2561 23.6906 19.6717 23.3002 19.0285 23.034C18.3853 22.7678 17.6959 22.6309 16.9998 22.6312Z" fill="#626262"/>
<path d="M9.64351 14.1298C14.4062 12.4643 19.5932 12.4643 24.3558 14.1298C24.1203 13.4767 23.8704 12.8236 23.6099 12.1776C21.8787 7.8793 19.6609 3.79347 16.9997 0C14.3385 3.79347 12.1206 7.8793 10.3895 12.1776C10.1289 12.8236 9.87908 13.4767 9.64351 14.1298Z" fill="#999999"/>
<path d="M9.57569 56.091C9.64351 56.2873 9.71489 56.48 9.78627 56.6727C9.98698 57.2221 10.2479 57.7476 10.5644 58.2395C13.5268 62.8579 20.4761 62.8579 23.4385 58.2395C23.7548 57.7469 24.0168 57.2216 24.2202 56.6727C24.2916 56.4764 24.363 56.2837 24.4308 56.0874C19.6248 57.785 14.3825 57.7863 9.57569 56.091Z" fill="#999999"/>
<path d="M0.727865 50.6233L0.767126 63.3255L1.92712 64.0001L1.89144 51.4406V51.3014L1.51667 51.0837L1.5131 51.0801L0.727865 50.6233Z" fill="#505050"/>
<path d="M32.0763 63.6609L33.2363 62.9864L33.272 50.2877L33.2613 50.2949L32.112 50.9623V51.4405L32.0763 63.6609Z" fill="#505050"/>
<path d="M24.1777 54.6241L24.7273 55.2522L25.2056 55.7983L32.0764 63.6609L32.1121 51.4405V50.9623L27.2115 45.3553L24.2134 41.9219L24.1777 54.6241Z" fill="#999999"/>
<path d="M9.6438 14.1297C14.4065 12.4641 19.5934 12.4641 24.3561 14.1297C26.7733 20.7684 28.0091 27.7793 28.0074 34.8444V35.5725C28.0077 38.2713 27.8276 40.9672 27.4685 43.6421L25.3726 41.2476L24.2126 41.9221L24.177 54.6244L24.7266 55.2525C24.6302 55.5309 24.5339 55.8093 24.4304 56.0877C19.6244 57.7853 14.3821 57.7866 9.57527 56.0912C9.50032 55.8914 9.4325 55.6915 9.36469 55.4916L9.82868 54.9599L9.79299 42.2612L8.62943 41.5867L6.57712 43.9351C6.18939 41.1645 5.995 38.3704 5.99534 35.5728V34.8447C5.99443 27.7798 7.22918 20.7692 9.6438 14.1297ZM17 33.2312C18.0484 33.2319 19.0735 32.9216 19.9456 32.3397C20.8177 31.7577 21.4976 30.9302 21.8993 29.9619C22.3011 28.9935 22.4065 27.9277 22.2024 26.8993C21.9983 25.871 21.4938 24.9263 20.7527 24.1847C20.0116 23.4431 19.0671 22.938 18.0389 22.7332C17.0106 22.5284 15.9447 22.6332 14.976 23.0342C14.0073 23.4353 13.1793 24.1146 12.5967 24.9862C12.0142 25.8579 11.7032 26.8827 11.7032 27.9311C11.7034 29.3361 12.2614 30.6836 13.2546 31.6774C14.2478 32.6712 15.5949 33.23 17 33.2312Z" fill="#E3E3E3"/>
<path d="M24.2132 41.9219L27.2113 45.3553L32.1119 50.9623L33.2612 50.2948C33.2647 50.2913 33.2683 50.2877 33.2683 50.2841L27.4683 43.6422L25.3725 41.2477L24.2132 41.9219Z" fill="#E3E3E3"/>
<path d="M1.89127 51.3014V51.4406L1.92696 64L9.01901 55.884L9.36522 55.4914L9.82922 54.9596L9.79353 42.261L6.83822 45.6409L1.89127 51.3014Z" fill="#999999"/>
<path d="M0.885043 50.4449C1.08849 50.6626 1.29908 50.8732 1.51323 51.0802L1.5168 51.0838L1.89157 51.3015L6.83851 45.641L9.79382 42.2611L8.63026 41.5865L6.57795 43.935L0.885043 50.4449Z" fill="#E3E3E3"/>
</svg>
