<svg width="470" height="444" viewBox="0 0 470 444" fill="none" xmlns="http://www.w3.org/2000/svg">
<path d="M190.837 17.8606V83.2175C167.145 87.1022 144.701 94.182 125.507 104.455V39.099C144.703 28.8334 167.145 21.7536 190.837 17.8606Z" fill="white" fill-opacity="0.2"/>
<path d="M397.776 326.584V341.28C397.198 345.562 396.145 349.766 394.636 353.813C388.323 370.865 373.792 387.081 351.025 400.34C287.739 437.183 184.801 437.183 121.102 400.34C97.9133 386.928 83.1138 370.477 76.737 353.206C74.3506 346.849 73.1193 340.116 73.1016 333.324C73.1016 315.467 81.7832 297.619 99.171 282.102C105.703 276.345 112.798 271.261 120.347 266.928C183.633 230.084 286.579 230.084 350.279 266.92C352.097 267.969 353.863 269.039 355.577 270.13C380.98 286.245 395.057 306.216 397.776 326.584Z" fill="#212121"/>
<path d="M397.776 290.931V305.627C397.198 309.909 396.145 314.113 394.636 318.16C388.323 335.212 373.792 351.428 351.025 364.687C287.739 401.53 184.801 401.53 121.102 364.687C97.9133 351.275 83.1138 334.824 76.737 317.553C74.3506 311.196 73.1193 304.463 73.1016 297.671C73.1016 279.814 81.7832 261.966 99.171 246.449C105.703 240.692 112.798 235.608 120.347 231.275C183.633 194.431 286.579 194.431 350.279 231.267C352.097 232.316 353.863 233.386 355.577 234.477C380.98 250.592 395.057 270.563 397.776 290.931Z" fill="#292929"/>
<path d="M334.61 34.0598V99.2293C313.54 89.8088 289.434 83.7892 264.485 81.1696V16C289.434 18.6166 313.54 24.6392 334.61 34.0598Z" fill="white" fill-opacity="0.2"/>
<path d="M397.776 261.103V275.799C397.198 280.081 396.145 284.285 394.636 288.332C388.323 305.385 373.792 321.6 351.025 334.859C287.739 371.702 184.801 371.702 121.102 334.859C97.9133 321.447 83.1138 304.996 76.737 287.725C74.3506 281.368 73.1193 274.635 73.1016 267.843C73.1016 249.986 81.7832 232.138 99.171 216.621C105.703 210.864 112.798 205.78 120.347 201.447C183.633 164.603 286.579 164.603 350.279 201.439C352.097 202.488 353.863 203.558 355.577 204.649C380.98 220.765 395.057 240.735 397.776 261.103Z" fill="#323232"/>
<g filter="url(#filter0_f_648_2572)">
<path d="M273 266.431V269.859C272.866 270.858 272.623 271.839 272.275 272.783C270.816 276.761 267.46 280.544 262.2 283.637C247.581 292.232 223.803 292.232 209.088 283.637C203.732 280.508 200.313 276.67 198.84 272.641C198.289 271.158 198.004 269.588 198 268.003C198 263.837 200.005 259.674 204.022 256.054C205.531 254.711 207.17 253.525 208.914 252.514C223.533 243.919 247.313 243.919 262.028 252.512C262.448 252.757 262.856 253.006 263.252 253.261C269.12 257.02 272.372 261.679 273 266.431Z" fill="#212121" fill-opacity="0.5"/>
</g>
<path d="M228.425 61.624C229.659 62.3508 230.789 63.2389 231.786 64.2644L283.402 116.502C287.227 120.373 289.686 126.098 289.444 130.648C287.067 175.543 265.185 203.253 233.113 208.488C231.323 208.675 229.523 208.247 228.012 207.273C226.024 206.073 224.293 204.494 222.918 202.627C190.983 160.591 169.328 107.849 167.213 60.3713C166.997 55.5598 169.482 52.675 173.316 53.2069L225.059 60.3936C226.25 60.5865 227.392 61.0041 228.425 61.624V61.624Z" fill="#60DF95"/>
<path d="M303.489 121.889C303.489 121.857 303.489 121.825 303.489 121.792C303.489 121.758 303.489 121.727 303.489 121.694C303.485 121.548 303.478 121.4 303.469 121.25C303.464 121.168 303.456 121.084 303.448 121.001C303.448 120.968 303.443 120.934 303.441 120.9C303.438 120.866 303.436 120.835 303.433 120.802C303.418 120.65 303.401 120.498 303.382 120.345C303.371 120.262 303.358 120.178 303.346 120.094C303.341 120.059 303.337 120.022 303.331 119.989C303.325 119.956 303.322 119.917 303.316 119.882C303.291 119.724 303.264 119.564 303.233 119.405C303.22 119.329 303.202 119.253 303.187 119.178C303.179 119.137 303.171 119.096 303.163 119.055C303.154 119.015 303.145 118.965 303.135 118.92C303.1 118.755 303.063 118.591 303.02 118.426C303.005 118.365 302.988 118.304 302.972 118.243C302.961 118.198 302.949 118.155 302.937 118.11C302.92 118.049 302.906 117.988 302.889 117.927C302.841 117.761 302.793 117.596 302.745 117.43C302.73 117.384 302.715 117.339 302.701 117.293C302.687 117.248 302.674 117.211 302.661 117.17C302.636 117.093 302.613 117.016 302.59 116.939C302.536 116.78 302.481 116.622 302.423 116.464C302.409 116.424 302.394 116.385 302.379 116.346L302.338 116.237C302.308 116.157 302.279 116.077 302.249 115.997C302.19 115.847 302.129 115.697 302.067 115.546C302.049 115.502 302.028 115.457 302.01 115.413C301.991 115.368 301.979 115.341 301.964 115.305C301.933 115.234 301.905 115.166 301.874 115.096C301.808 114.945 301.739 114.796 301.669 114.646C301.646 114.596 301.62 114.546 301.597 114.495L301.535 114.367C301.5 114.295 301.467 114.223 301.432 114.151C301.336 113.962 301.24 113.775 301.144 113.589C301.138 113.577 301.13 113.564 301.123 113.551C301.069 113.451 301.012 113.354 300.957 113.254C300.863 113.086 300.772 112.916 300.674 112.75C300.664 112.732 300.652 112.715 300.641 112.697C300.428 112.338 300.205 111.985 299.972 111.638C299.956 111.613 299.941 111.587 299.925 111.566C299.832 111.427 299.733 111.293 299.637 111.157C299.565 111.052 299.493 110.945 299.414 110.841C299.4 110.822 299.387 110.802 299.372 110.782C299.239 110.602 299.103 110.422 298.965 110.248C298.933 110.207 298.899 110.168 298.867 110.127C298.834 110.086 298.801 110.045 298.767 110.004C298.711 109.932 298.655 109.86 298.597 109.794C298.479 109.65 298.358 109.51 298.237 109.371L298.186 109.314C298.161 109.286 298.137 109.26 298.114 109.232C298.032 109.141 297.95 109.049 297.867 108.959C297.74 108.822 297.611 108.687 297.48 108.554L297.464 108.537L246.002 56.2409C245.876 56.1128 245.748 55.9869 245.62 55.8646C245.482 55.7312 245.343 55.6015 245.202 55.4754L245.189 55.4646L245.165 55.443C245.037 55.3279 244.907 55.2149 244.778 55.1055C244.648 54.9962 244.497 54.8717 244.355 54.7602H244.351L244.342 54.7537C244.207 54.648 244.074 54.5451 243.938 54.4465C243.803 54.3479 243.667 54.2501 243.53 54.1587L243.511 54.1458L243.482 54.1271C243.366 54.0472 243.249 53.9695 243.132 53.8954C243.002 53.8129 242.871 53.733 242.741 53.6558L242.651 53.604C242.553 53.5464 242.454 53.4918 242.356 53.4378L242.284 53.4018L242.118 53.3155C242.069 53.291 242.021 53.2644 241.974 53.2435L241.877 53.1982C241.821 53.1709 241.765 53.145 241.709 53.1191C241.671 53.1011 241.633 53.0824 241.595 53.0651C241.557 53.0478 241.513 53.0306 241.472 53.0126L241.304 52.9406C241.275 52.9291 241.246 52.9155 241.217 52.904C241.166 52.8838 241.116 52.8658 241.065 52.8471C241.015 52.8284 240.955 52.8047 240.9 52.7845L240.838 52.7615C240.777 52.7399 240.717 52.7219 240.657 52.7018C240.596 52.6816 240.55 52.6658 240.497 52.65C240.483 52.6457 240.47 52.6399 240.455 52.6363C240.383 52.6147 240.318 52.5975 240.249 52.5787C240.197 52.5644 240.145 52.5492 240.094 52.5363L240.067 52.5291C239.995 52.5104 239.924 52.496 239.852 52.4802C239.798 52.4687 239.744 52.455 239.69 52.4442L239.672 52.4406C239.547 52.4161 239.422 52.3953 239.298 52.3773L187.719 45.1825H187.693C187.549 45.1629 187.405 45.1483 187.261 45.1387H187.251C187.189 45.1387 187.13 45.1387 187.069 45.1329C186.982 45.1329 186.894 45.1243 186.809 45.1243H186.796C186.637 45.1243 186.482 45.1322 186.33 45.1466H186.325C186.314 45.1466 186.304 45.1466 186.294 45.1509C186.138 45.1662 185.985 45.1883 185.836 45.2171C185.82 45.2171 185.802 45.2207 185.785 45.2243C185.768 45.2279 185.738 45.2379 185.713 45.2437C185.536 45.2816 185.362 45.3297 185.191 45.3876C185.175 45.3934 185.157 45.3955 185.141 45.4013L185.12 45.4092C185.032 45.4408 184.946 45.4811 184.86 45.5142C184.817 45.5329 184.773 45.548 184.731 45.5675C184.605 45.6265 184.482 45.6898 184.361 45.7596L170.207 53.9709C170.326 53.899 170.45 53.8371 170.577 53.7788C170.618 53.7594 170.662 53.7443 170.704 53.7263C170.79 53.6896 170.877 53.6544 170.966 53.6205C170.989 53.6126 171.013 53.6069 171.038 53.599C171.209 53.5415 171.384 53.4934 171.56 53.4551C171.601 53.4464 171.641 53.4364 171.682 53.4292C171.832 53.4004 171.985 53.3783 172.14 53.363L172.176 53.3579C172.328 53.3445 172.484 53.3373 172.642 53.3364C172.731 53.3364 172.821 53.3407 172.911 53.3443C172.974 53.3443 173.035 53.3443 173.097 53.35C173.25 53.3611 173.406 53.3771 173.564 53.3982L225.143 60.593C225.273 60.6117 225.403 60.634 225.535 60.6599C225.588 60.6707 225.642 60.6836 225.695 60.6959C225.777 60.7139 225.858 60.7311 225.94 60.7513L226.094 60.7944C226.177 60.8167 226.26 60.8398 226.343 60.8664C226.396 60.8829 226.45 60.9016 226.503 60.9189C226.584 60.9455 226.665 60.9721 226.746 61.0016C226.801 61.0211 226.856 61.0427 226.911 61.0635C226.991 61.0937 227.071 61.1254 227.15 61.1578C227.206 61.1808 227.262 61.2045 227.317 61.2297C227.396 61.2643 227.476 61.3017 227.555 61.3362C227.611 61.3621 227.668 61.388 227.724 61.4153C227.804 61.4542 227.884 61.4945 227.965 61.5355C228.02 61.5643 228.075 61.5916 228.13 61.6211C228.252 61.6866 228.375 61.7528 228.497 61.8233C228.774 61.9835 229.051 62.1578 229.328 62.3463L229.357 62.3658C229.635 62.5576 229.912 62.761 230.188 62.9759L230.195 62.9824C230.469 63.1982 230.741 63.427 231.01 63.668L231.035 63.6903C231.308 63.9364 231.579 64.1952 231.847 64.4666L283.299 116.762C283.52 116.987 283.736 117.219 283.946 117.457C283.971 117.485 283.996 117.511 284.018 117.539C284.217 117.764 284.411 117.995 284.601 118.229L284.7 118.352C284.887 118.585 285.069 118.823 285.247 119.066C285.323 119.17 285.396 119.277 285.47 119.382C285.584 119.542 285.696 119.702 285.806 119.865C286.038 120.212 286.26 120.566 286.473 120.925C286.583 121.109 286.689 121.295 286.789 121.481C286.845 121.581 286.903 121.679 286.957 121.779C287.101 122.048 287.239 122.319 287.37 122.592C287.391 122.635 287.412 122.677 287.432 122.72C287.561 122.989 287.684 123.26 287.8 123.531L287.845 123.637C287.961 123.911 288.071 124.186 288.175 124.462C288.188 124.498 288.202 124.534 288.215 124.571C288.317 124.845 288.411 125.12 288.499 125.395C288.512 125.436 288.526 125.477 288.539 125.518C288.625 125.791 288.704 126.063 288.776 126.336L288.811 126.467C288.881 126.739 288.945 127.01 289.001 127.28C289.01 127.321 289.018 127.362 289.026 127.403C289.081 127.675 289.129 127.945 289.17 128.214L289.185 128.32C289.224 128.591 289.256 128.859 289.28 129.126C289.28 129.159 289.285 129.192 289.288 129.226C289.309 129.492 289.324 129.755 289.329 130.017C289.329 130.051 289.329 130.083 289.329 130.117C289.329 130.39 289.329 130.66 289.316 130.926C289.265 131.881 289.203 132.826 289.135 133.766C289.118 133.998 289.101 134.23 289.083 134.461C289.036 135.078 288.981 135.688 288.926 136.299C288.885 136.749 288.846 137.201 288.801 137.648C288.744 138.216 288.68 138.778 288.617 139.34C288.568 139.771 288.521 140.203 288.469 140.635C288.405 141.158 288.333 141.674 288.263 142.192C288.198 142.673 288.136 143.156 288.066 143.631C287.991 144.143 287.909 144.648 287.827 145.154C287.755 145.624 287.683 146.096 287.601 146.561C287.529 147 287.443 147.432 287.364 147.867C287.262 148.423 287.161 148.98 287.053 149.53C286.967 149.967 286.874 150.397 286.783 150.83C286.671 151.364 286.56 151.898 286.442 152.425C286.353 152.82 286.259 153.208 286.166 153.599C286.022 154.209 285.878 154.818 285.723 155.418C285.622 155.815 285.518 156.21 285.413 156.6C285.258 157.182 285.098 157.759 284.935 158.332C284.792 158.841 284.648 159.349 284.494 159.85C284.446 160.006 284.4 160.162 284.35 160.317C284.118 161.072 283.878 161.82 283.63 162.559C283.58 162.711 283.528 162.861 283.477 163.012C283.245 163.692 283.007 164.366 282.764 165.034C282.729 165.128 282.696 165.224 282.661 165.322C282.387 166.064 282.105 166.798 281.814 167.521C281.738 167.713 281.659 167.901 281.582 168.09C281.358 168.64 281.13 169.183 280.898 169.722C280.806 169.937 280.714 170.147 280.621 170.358C280.344 170.987 280.061 171.609 279.772 172.224C279.737 172.296 279.701 172.374 279.668 172.449C279.316 173.193 278.954 173.927 278.583 174.65C278.511 174.787 278.439 174.919 278.368 175.055C278.065 175.636 277.761 176.215 277.447 176.782C277.309 177.034 277.16 177.28 277.021 177.53C276.77 177.973 276.517 178.417 276.261 178.852C276.096 179.129 275.927 179.399 275.758 179.673C275.512 180.076 275.266 180.48 275.014 180.875C274.885 181.077 274.753 181.274 274.622 181.474C274.346 181.897 274.068 182.317 273.785 182.731C273.634 182.953 273.481 183.172 273.328 183.391C273.051 183.785 272.772 184.175 272.49 184.561C272.337 184.77 272.185 184.979 272.031 185.185C271.712 185.61 271.389 186.029 271.062 186.442C270.943 186.594 270.826 186.749 270.703 186.899C270.255 187.457 269.801 188.006 269.34 188.545C269.245 188.656 269.147 188.761 269.052 188.873C268.682 189.3 268.309 189.721 267.93 190.134C267.766 190.314 267.6 190.489 267.434 190.665C267.114 191.008 266.79 191.346 266.464 191.68C266.284 191.863 266.104 192.045 265.922 192.227C265.591 192.556 265.257 192.881 264.919 193.202C264.748 193.365 264.576 193.53 264.403 193.691C263.99 194.075 263.572 194.452 263.148 194.823C263.051 194.909 262.956 194.997 262.861 195.082C262.34 195.534 261.812 195.976 261.278 196.407C261.129 196.527 260.977 196.642 260.828 196.761C260.438 197.071 260.045 197.376 259.648 197.675C259.452 197.819 259.254 197.967 259.057 198.112C258.694 198.378 258.328 198.64 257.959 198.898C257.754 199.042 257.55 199.186 257.342 199.324C256.954 199.588 256.562 199.847 256.168 200.1C255.985 200.218 255.808 200.338 255.62 200.454C255.045 200.814 254.463 201.173 253.874 201.514L268.03 193.286C268.619 192.944 269.2 192.589 269.777 192.226C269.96 192.11 270.141 191.99 270.323 191.873C270.718 191.618 271.11 191.36 271.499 191.096C271.705 190.956 271.911 190.814 272.115 190.67C272.484 190.413 272.849 190.151 273.213 189.885C273.41 189.741 273.608 189.597 273.804 189.447C274.202 189.149 274.595 188.842 274.985 188.532C275.134 188.414 275.285 188.299 275.433 188.179C275.967 187.747 276.495 187.306 277.016 186.855C277.114 186.769 277.21 186.68 277.308 186.594C277.73 186.224 278.148 185.847 278.561 185.463C278.734 185.302 278.905 185.137 279.077 184.974C279.413 184.653 279.747 184.328 280.08 183.999C280.261 183.818 280.442 183.635 280.622 183.451C280.949 183.118 281.272 182.781 281.592 182.438C281.757 182.261 281.924 182.086 282.088 181.907C282.466 181.493 282.84 181.072 283.21 180.646C283.305 180.535 283.403 180.43 283.497 180.317C283.959 179.778 284.413 179.229 284.859 178.671C284.98 178.521 285.097 178.366 285.219 178.215C285.545 177.8 285.866 177.382 286.187 176.957C286.342 176.751 286.494 176.542 286.646 176.333C286.929 175.947 287.209 175.557 287.485 175.163C287.638 174.944 287.79 174.725 287.942 174.504C288.225 174.089 288.503 173.669 288.78 173.246C288.91 173.046 289.042 172.849 289.17 172.648C289.216 172.576 289.262 172.509 289.307 172.438C289.513 172.112 289.712 171.776 289.915 171.445C290.082 171.171 290.252 170.901 290.418 170.624C290.677 170.193 290.928 169.744 291.18 169.3C291.323 169.051 291.467 168.806 291.605 168.555C291.919 167.984 292.225 167.403 292.528 166.819C292.6 166.685 292.672 166.557 292.739 166.422C293.101 165.715 293.455 164.999 293.8 164.273C293.808 164.256 293.816 164.238 293.825 164.22C293.86 164.148 293.893 164.07 293.928 163.996C294.216 163.381 294.499 162.757 294.778 162.125C294.871 161.915 294.963 161.704 295.053 161.492C295.286 160.953 295.514 160.408 295.738 159.858C295.816 159.668 295.894 159.481 295.971 159.291C296.244 158.606 296.511 157.914 296.773 157.215C296.788 157.174 296.802 157.131 296.817 157.09C296.852 156.997 296.885 156.902 296.919 156.808C297.164 156.14 297.401 155.465 297.633 154.782C297.684 154.633 297.736 154.483 297.786 154.333C298.034 153.593 298.274 152.844 298.506 152.088C298.553 151.934 298.598 151.779 298.645 151.625C298.734 151.331 298.825 151.039 298.911 150.742C298.973 150.532 299.028 150.314 299.088 150.103C299.251 149.531 299.41 148.956 299.565 148.376C299.67 147.983 299.775 147.589 299.876 147.191C300.029 146.592 300.175 145.985 300.318 145.376C300.382 145.108 300.452 144.846 300.513 144.577C300.541 144.452 300.566 144.323 300.594 144.199C300.712 143.673 300.823 143.141 300.935 142.608C301.026 142.176 301.119 141.745 301.205 141.303C301.314 140.755 301.414 140.201 301.515 139.648C301.579 139.299 301.649 138.955 301.71 138.602C301.726 138.514 301.738 138.424 301.754 138.335C301.833 137.872 301.905 137.4 301.979 136.933C302.06 136.426 302.143 135.92 302.218 135.407C302.29 134.932 302.351 134.45 302.415 133.968C302.471 133.556 302.533 133.148 302.584 132.733C302.598 132.625 302.609 132.517 302.622 132.405C302.674 131.979 302.72 131.548 302.766 131.118C302.83 130.554 302.894 129.991 302.951 129.42C302.995 128.975 303.035 128.525 303.075 128.076C303.11 127.688 303.147 127.304 303.182 126.913C303.201 126.688 303.216 126.459 303.233 126.232C303.251 126.005 303.268 125.772 303.284 125.542C303.353 124.602 303.415 123.656 303.466 122.7C303.466 122.659 303.47 122.618 303.471 122.577C303.478 122.433 303.481 122.284 303.482 122.135C303.493 122.053 303.491 121.971 303.489 121.889Z" fill="#27AE60"/>
<path d="M254.874 135.044C254.874 134.962 254.865 134.88 254.862 134.799C254.856 134.641 254.848 134.483 254.84 134.325C254.831 134.144 254.826 133.966 254.814 133.782C254.804 133.623 254.788 133.464 254.777 133.305C254.765 133.146 254.751 132.966 254.736 132.796C254.727 132.692 254.722 132.591 254.712 132.487C254.687 132.223 254.654 131.956 254.623 131.691C254.608 131.559 254.596 131.429 254.58 131.297C254.575 131.259 254.571 131.22 254.567 131.181C254.51 130.736 254.447 130.29 254.376 129.843C254.376 129.825 254.37 129.807 254.367 129.789C254.352 129.693 254.333 129.597 254.317 129.502C254.262 129.167 254.207 128.831 254.144 128.497C254.13 128.425 254.112 128.347 254.098 128.272C254.063 128.09 254.026 127.907 253.987 127.725C253.945 127.519 253.907 127.314 253.862 127.107C253.834 126.978 253.801 126.85 253.773 126.721C253.728 126.525 253.682 126.33 253.636 126.134C253.602 125.99 253.572 125.852 253.537 125.71C253.491 125.523 253.438 125.335 253.39 125.148C253.342 124.96 253.289 124.759 253.236 124.564C253.212 124.474 253.191 124.385 253.165 124.296C253.093 124.028 253.009 123.762 252.931 123.496C252.884 123.334 252.839 123.172 252.788 123.011C252.776 122.969 252.764 122.928 252.752 122.887C252.609 122.427 252.462 121.968 252.311 121.509L252.3 121.479C252.277 121.41 252.252 121.342 252.229 121.273C252.102 120.899 251.973 120.524 251.838 120.151C251.814 120.079 251.786 120.014 251.761 119.945C251.704 119.789 251.644 119.633 251.586 119.477C251.506 119.266 251.43 119.055 251.348 118.845C251.292 118.702 251.233 118.558 251.176 118.415C251.109 118.245 251.041 118.075 250.972 117.905C250.923 117.786 250.877 117.667 250.829 117.546C250.725 117.295 250.614 117.044 250.508 116.795C250.452 116.665 250.397 116.535 250.341 116.405C250.321 116.361 250.303 116.317 250.284 116.273C250.093 115.842 249.897 115.412 249.698 114.984C249.689 114.965 249.679 114.946 249.67 114.927C249.61 114.798 249.546 114.671 249.485 114.543C249.331 114.22 249.178 113.897 249.019 113.578C248.993 113.526 248.964 113.475 248.939 113.423C248.804 113.154 248.664 112.888 248.525 112.621C248.415 112.406 248.31 112.19 248.194 111.98C248.174 111.941 248.15 111.903 248.129 111.864C247.759 111.173 247.377 110.489 246.982 109.813C246.949 109.756 246.919 109.697 246.886 109.641C246.787 109.472 246.682 109.306 246.581 109.138C246.411 108.855 246.241 108.572 246.068 108.292C245.917 108.05 245.765 107.811 245.611 107.574C245.435 107.297 245.257 107.023 245.078 106.75C245.017 106.657 244.959 106.563 244.898 106.471C244.837 106.379 244.781 106.308 244.725 106.225C244.237 105.501 243.739 104.784 243.22 104.084L243.213 104.074C243.167 104.012 243.118 103.951 243.07 103.888C242.748 103.457 242.422 103.028 242.092 102.603C242.074 102.578 242.055 102.553 242.036 102.531C241.783 102.209 241.523 101.892 241.265 101.576C241.186 101.48 241.109 101.381 241.029 101.285L241.012 101.264C240.674 100.856 240.332 100.455 239.985 100.06C239.971 100.043 239.956 100.027 239.941 100.011C239.842 99.898 239.74 99.7888 239.64 99.6761C239.411 99.4197 239.182 99.162 238.95 98.9099C238.911 98.8683 238.871 98.8288 238.832 98.7871C238.683 98.627 238.531 98.4705 238.38 98.3125C238.207 98.1308 238.036 97.9463 237.861 97.7675C237.802 97.7079 237.742 97.6504 237.683 97.5908C237.518 97.4235 237.351 97.2605 237.181 97.0961C237.033 96.9525 236.887 96.801 236.738 96.6574C236.66 96.5856 236.58 96.5138 236.502 96.442C236.321 96.2703 236.139 96.1023 235.957 95.9343C235.827 95.8144 235.699 95.6894 235.568 95.5753C235.474 95.4898 235.377 95.4101 235.281 95.3261C235.099 95.1638 234.916 95.0034 234.732 94.845C234.616 94.7452 234.501 94.6403 234.384 94.5412C234.267 94.4422 234.152 94.3531 234.036 94.254C233.856 94.1051 233.676 93.9577 233.495 93.8117C233.396 93.732 233.299 93.6487 233.2 93.5697C233.056 93.4555 232.907 93.3478 232.762 93.2351C232.593 93.1051 232.425 92.9752 232.255 92.8481C232.183 92.7921 232.107 92.7332 232.033 92.6786C231.839 92.535 231.644 92.4014 231.449 92.2628C231.301 92.1573 231.153 92.0474 231.004 91.9462C230.961 91.916 230.918 91.8837 230.875 91.8543C230.535 91.6202 230.192 91.3954 229.849 91.1743C229.818 91.1542 229.787 91.1326 229.756 91.1132L229.746 91.1068C229.373 90.8674 228.997 90.6369 228.619 90.4153L228.399 90.286C228.116 90.1228 227.835 89.965 227.554 89.8128C227.448 89.7554 227.339 89.7037 227.235 89.6477C227.092 89.5708 226.949 89.4962 226.802 89.4222C226.69 89.3655 226.577 89.303 226.466 89.2484C226.287 89.1594 226.107 89.0804 225.933 88.9964C225.804 88.9361 225.675 88.8729 225.547 88.814C225.495 88.7903 225.442 88.7637 225.39 88.7422C225.036 88.5833 224.683 88.4337 224.333 88.2934L224.322 88.2891C223.963 88.1455 223.607 88.0112 223.254 87.8863C223.208 87.8705 223.163 87.8575 223.117 87.8417C222.988 87.7972 222.861 87.7577 222.733 87.7161C222.553 87.6565 222.37 87.5926 222.191 87.538C222.101 87.5107 222.013 87.4899 221.923 87.4662C221.767 87.421 221.611 87.3786 221.455 87.337C221.335 87.3046 221.213 87.2651 221.097 87.2371C220.981 87.2091 220.847 87.1826 220.723 87.1538C220.566 87.1172 220.41 87.082 220.255 87.0497C220.173 87.0325 220.09 87.0102 220.008 86.9944C219.865 86.9657 219.721 86.9478 219.574 86.9226C219.394 86.8918 219.215 86.8594 219.034 86.8336C218.972 86.825 218.908 86.8106 218.845 86.802C218.696 86.7826 218.552 86.774 218.405 86.7575C218.214 86.7359 218.021 86.7137 217.832 86.6986C217.777 86.6943 217.719 86.6857 217.664 86.6814C217.535 86.6727 217.41 86.6749 217.282 86.6692C217.055 86.6584 216.828 86.6483 216.605 86.6469C216.543 86.6469 216.478 86.6397 216.416 86.6404C216.319 86.6404 216.225 86.6519 216.129 86.6541C215.847 86.6598 215.568 86.673 215.291 86.6936C215.208 86.7 215.122 86.6979 215.039 86.7058C214.924 86.7165 214.811 86.7331 214.697 86.746C214.61 86.756 214.523 86.7654 214.437 86.7769C214.124 86.8185 213.813 86.8666 213.505 86.9284L213.477 86.9348C213.393 86.9521 213.313 86.9751 213.23 86.9937C212.977 87.0497 212.728 87.1086 212.479 87.1783C212.358 87.2127 212.241 87.2537 212.12 87.291C211.963 87.3405 211.802 87.3851 211.647 87.4396C211.608 87.454 211.571 87.4727 211.532 87.487C211.293 87.5746 211.06 87.673 210.829 87.7743C210.716 87.8231 210.601 87.8662 210.49 87.9179C210.151 88.0766 209.819 88.2474 209.497 88.4356L205.508 90.7578C205.83 90.5697 206.162 90.3988 206.501 90.2401C206.612 90.1876 206.727 90.1446 206.84 90.0965C207.071 89.9952 207.304 89.8968 207.543 89.8092C207.736 89.7374 207.933 89.675 208.131 89.6132C208.25 89.5759 208.367 89.5349 208.49 89.5012C208.736 89.4294 208.991 89.3719 209.242 89.3159C209.325 89.2973 209.405 89.2743 209.489 89.257C209.802 89.1931 210.122 89.1422 210.445 89.0991C210.531 89.0876 210.618 89.0782 210.705 89.0682C210.901 89.0459 211.1 89.0309 211.3 89.0158C211.576 88.9949 211.855 88.9827 212.137 88.9763C212.295 88.9727 212.454 88.9677 212.613 88.9691C212.837 88.9691 213.064 88.9806 213.29 88.9914C213.474 89 213.656 89.0064 213.841 89.0208C214.026 89.0352 214.223 89.0589 214.414 89.0797C214.623 89.1027 214.832 89.1256 215.043 89.1558C215.222 89.1816 215.402 89.214 215.582 89.2448C215.808 89.2843 216.035 89.3245 216.264 89.3719C216.419 89.4042 216.575 89.4394 216.731 89.476C216.975 89.5321 217.221 89.5931 217.468 89.6592C217.623 89.7008 217.779 89.7432 217.936 89.7884C218.204 89.8667 218.475 89.9514 218.746 90.0404C218.874 90.0828 219.001 90.1216 219.129 90.1661C219.528 90.304 219.93 90.4533 220.336 90.6142H220.34C220.743 90.7757 221.148 90.9524 221.559 91.1384C221.687 91.1965 221.816 91.2597 221.945 91.32C222.231 91.4565 222.521 91.5986 222.814 91.7466C222.958 91.8198 223.101 91.8947 223.244 91.9713C223.631 92.1752 224.018 92.3842 224.408 92.6104C224.863 92.8737 225.316 93.1492 225.765 93.4369C225.797 93.457 225.827 93.4785 225.858 93.4979C226.245 93.7473 226.631 94.0046 227.014 94.2698C227.163 94.3732 227.311 94.4809 227.459 94.5865C227.729 94.7782 227.997 94.9721 228.264 95.1717C228.434 95.2988 228.602 95.4288 228.771 95.5587C229.017 95.7502 229.261 95.9417 229.505 96.1332C229.686 96.2768 229.866 96.4242 230.045 96.5755C230.279 96.7687 230.51 96.9654 230.742 97.1643C230.925 97.3233 231.108 97.4831 231.29 97.644C231.517 97.845 231.741 98.0497 231.966 98.2565C232.148 98.4245 232.33 98.5925 232.51 98.7642C232.738 98.9796 232.964 99.2007 233.188 99.4226C233.355 99.5863 233.522 99.7501 233.69 99.9166C233.925 100.154 234.157 100.396 234.389 100.64C234.539 100.797 234.69 100.953 234.839 101.112C235.113 101.406 235.382 101.706 235.651 102.007C235.75 102.118 235.851 102.222 235.948 102.337C236.316 102.754 236.678 103.179 237.037 103.611C237.114 103.704 237.189 103.801 237.265 103.894C237.546 104.236 237.825 104.581 238.1 104.932C238.431 105.354 238.757 105.782 239.078 106.216C239.126 106.282 239.177 106.346 239.226 106.413C239.741 107.113 240.239 107.83 240.731 108.553C240.849 108.729 240.968 108.902 241.084 109.078C241.264 109.351 241.442 109.626 241.617 109.903C241.77 110.143 241.923 110.382 242.074 110.621C242.246 110.901 242.417 111.182 242.586 111.465C242.721 111.691 242.857 111.915 242.988 112.142C243.384 112.82 243.766 113.503 244.135 114.192C244.27 114.444 244.4 114.695 244.531 114.95C244.669 115.217 244.81 115.483 244.945 115.751C245.131 116.125 245.314 116.5 245.493 116.877C245.553 117.003 245.616 117.129 245.676 117.255C245.906 117.746 246.13 118.239 246.347 118.734C246.403 118.864 246.457 118.994 246.513 119.124C246.672 119.493 246.827 119.863 246.978 120.233C247.05 120.402 247.116 120.572 247.183 120.742C247.323 121.095 247.459 121.449 247.592 121.802C247.65 121.959 247.711 122.115 247.768 122.271C247.93 122.714 248.085 123.156 248.235 123.599C248.258 123.671 248.284 123.736 248.307 123.804C248.478 124.315 248.64 124.826 248.794 125.338C248.843 125.498 248.888 125.657 248.934 125.816C249.039 126.175 249.141 126.534 249.24 126.893C249.292 127.087 249.342 127.281 249.392 127.474C249.477 127.804 249.56 128.133 249.639 128.462C249.687 128.658 249.732 128.854 249.775 129.049C249.851 129.384 249.918 129.718 249.99 130.054C250.027 130.237 250.066 130.419 250.101 130.602C250.18 131.013 250.253 131.423 250.321 131.832C250.336 131.928 250.355 132.025 250.37 132.119C250.45 132.624 250.522 133.126 250.585 133.627C250.601 133.759 250.614 133.89 250.629 134.021C250.671 134.391 250.71 134.759 250.742 135.126C250.757 135.296 250.77 135.466 250.782 135.635C250.808 135.976 250.829 136.317 250.846 136.655C250.854 136.813 250.862 136.971 250.868 137.129C250.885 137.605 250.898 138.081 250.897 138.552C250.897 139.048 250.882 139.534 250.86 140.013C250.855 140.15 250.844 140.282 250.836 140.417C250.817 140.745 250.795 141.071 250.764 141.39C250.748 141.576 250.727 141.759 250.708 141.942C250.678 142.213 250.647 142.482 250.611 142.747C250.584 142.942 250.554 143.135 250.524 143.327C250.485 143.57 250.444 143.811 250.399 144.05C250.359 144.265 250.317 144.477 250.272 144.686C250.227 144.896 250.179 145.108 250.128 145.322C250.069 145.569 250.006 145.812 249.939 146.051C249.888 146.239 249.835 146.425 249.778 146.609C249.69 146.896 249.596 147.175 249.499 147.452C249.446 147.602 249.395 147.755 249.339 147.901C249.163 148.366 248.975 148.819 248.771 149.252C248.612 149.589 248.447 149.918 248.269 150.235V150.242C248.092 150.562 247.906 150.871 247.714 151.171C247.674 151.233 247.633 151.291 247.592 151.351C247.444 151.574 247.293 151.791 247.137 152.003C247.074 152.087 247.01 152.171 246.945 152.255C246.796 152.446 246.643 152.633 246.487 152.815C246.428 152.887 246.37 152.959 246.31 153.023C246.095 153.263 245.875 153.496 245.647 153.718C245.615 153.749 245.581 153.778 245.548 153.809C245.35 153.998 245.147 154.18 244.939 154.355C244.863 154.418 244.786 154.479 244.709 154.541C244.531 154.685 244.349 154.823 244.164 154.955C244.088 155.01 244.013 155.065 243.936 155.118C243.678 155.295 243.416 155.465 243.148 155.621L247.137 153.299C247.405 153.142 247.667 152.972 247.925 152.796C248.002 152.743 248.078 152.688 248.154 152.632C248.339 152.499 248.52 152.361 248.698 152.219C248.775 152.157 248.852 152.096 248.928 152.032C249.136 151.857 249.34 151.673 249.538 151.486C249.571 151.455 249.604 151.427 249.636 151.396C249.864 151.174 250.084 150.941 250.298 150.701C250.359 150.633 250.417 150.562 250.477 150.492C250.633 150.311 250.786 150.124 250.935 149.932C250.999 149.849 251.063 149.765 251.126 149.68C251.282 149.469 251.434 149.252 251.581 149.029C251.622 148.969 251.664 148.911 251.703 148.849C251.715 148.831 251.728 148.814 251.739 148.796C251.919 148.513 252.092 148.221 252.258 147.919V147.913C252.426 147.609 252.586 147.296 252.738 146.975C252.745 146.96 252.75 146.945 252.757 146.929C252.961 146.499 253.149 146.044 253.326 145.579C253.341 145.539 253.36 145.503 253.375 145.462C253.415 145.355 253.446 145.239 253.484 145.131C253.582 144.854 253.677 144.574 253.765 144.286C253.788 144.209 253.816 144.138 253.836 144.061C253.868 143.953 253.892 143.838 253.922 143.729C253.989 143.49 254.052 143.247 254.112 143C254.137 142.899 254.166 142.804 254.19 142.702C254.213 142.601 254.234 142.476 254.257 142.365C254.302 142.154 254.345 141.943 254.385 141.727C254.406 141.617 254.431 141.512 254.451 141.4C254.473 141.27 254.489 141.135 254.509 141.005C254.54 140.812 254.57 140.62 254.596 140.425C254.61 140.325 254.628 140.229 254.64 140.129C254.661 139.962 254.674 139.788 254.693 139.619C254.712 139.436 254.733 139.254 254.75 139.068C254.756 138.996 254.766 138.925 254.773 138.848C254.793 138.601 254.804 138.345 254.819 138.094C254.827 137.959 254.838 137.827 254.844 137.691C254.844 137.657 254.849 137.626 254.85 137.592C254.868 137.171 254.878 136.742 254.88 136.306V136.23C254.888 135.834 254.886 135.439 254.874 135.044Z" fill="#D8D8D8"/>
<path d="M224.419 92.601C209.748 84.1136 197.816 90.9229 197.771 107.814C197.726 124.705 209.578 145.275 224.249 153.758C238.92 162.24 250.856 155.43 250.902 138.545C250.925 121.654 239.084 101.101 224.419 92.601ZM223.592 131.448C223.355 131.57 223.089 131.622 222.824 131.599C222.558 131.576 222.305 131.479 222.092 131.318C221.487 130.936 220.996 130.397 220.671 129.758L213.575 116.837L216.507 115.408L222.144 125.676L232.197 119.026L235.112 123.837L223.592 131.448Z" fill="white"/>
<path d="M235.111 123.832L223.592 131.443C223.355 131.565 223.089 131.618 222.824 131.595C222.558 131.572 222.305 131.474 222.092 131.313C221.487 130.931 220.997 130.392 220.672 129.754L213.575 116.832L216.508 115.403L222.145 125.672L232.197 119.021L235.111 123.832Z" fill="#60DF95"/>
<path d="M125.504 177.753V243.435C125.139 243.239 124.773 243.044 124.417 242.849C124.092 242.679 123.759 242.508 123.442 242.334C122.461 241.798 121.495 241.253 120.539 240.692C91.6538 223.989 75.8 202.581 73 180.733L73.2055 108.33C73.2902 118.549 76.0035 128.573 81.0836 137.435C88.7901 151.31 102.171 164.364 121.206 175.368C122.165 175.922 123.13 176.466 124.102 177.002C124.427 177.181 124.752 177.352 125.075 177.53C125.219 177.606 125.358 177.68 125.504 177.753Z" fill="white" fill-opacity="0.2"/>
<path d="M397.877 116.274L397.715 174.445C397.715 174.925 397.708 175.396 397.691 175.876C397.683 176.005 397.675 176.143 397.667 176.273C397.659 176.685 397.634 177.097 397.61 177.501C397.586 177.858 397.569 178.217 397.537 178.565C397.513 178.977 397.464 179.395 397.423 179.801C397.39 180.159 397.359 180.508 397.321 180.866C397.271 181.278 397.206 181.69 397.15 182.101C397.101 182.451 397.052 182.8 396.996 183.15C396.931 183.572 396.849 183.987 396.769 184.41C396.719 184.678 396.679 184.955 396.63 185.222C396.61 185.294 396.594 185.368 396.582 185.441C396.492 185.853 396.395 186.265 396.305 186.677C396.224 187.017 396.152 187.359 396.07 187.706C395.967 188.118 395.851 188.536 395.738 188.958C395.649 189.291 395.559 189.633 395.462 189.966C395.34 190.388 395.203 190.82 395.072 191.242C394.97 191.567 394.867 191.892 394.764 192.218C394.618 192.664 394.456 193.104 394.293 193.542C394.191 193.826 394.107 194.103 394.002 194.387C393.993 194.412 393.977 194.437 393.969 194.469C393.726 195.111 393.466 195.753 393.198 196.395C393.15 196.509 393.109 196.623 393.069 196.736C392.744 197.493 392.411 198.24 392.063 198.996C391.96 199.223 391.836 199.451 391.73 199.679C391.478 200.194 391.226 200.719 390.959 201.24C390.813 201.532 390.651 201.816 390.497 202.11C390.261 202.565 390.018 203.019 389.766 203.474L389.669 203.645C389.555 203.856 389.418 204.057 389.304 204.271C389.004 204.786 388.704 205.301 388.395 205.807C388.208 206.108 388.021 206.401 387.835 206.701C387.535 207.181 387.227 207.653 386.918 208.124C386.712 208.433 386.507 208.742 386.293 209.042C385.978 209.514 385.653 209.977 385.32 210.44C385.11 210.741 384.891 211.041 384.662 211.343C384.314 211.822 383.949 212.294 383.583 212.772C383.429 212.978 383.283 213.179 383.129 213.383C383.04 213.486 382.951 213.594 382.861 213.708C382.748 213.854 382.626 214 382.505 214.155C382.074 214.683 381.636 215.211 381.19 215.74C381.109 215.837 381.036 215.935 380.947 216.032C380.433 216.634 379.908 217.235 379.373 217.829C379.243 217.975 379.106 218.121 378.975 218.267C378.504 218.788 378.017 219.308 377.537 219.819C377.434 219.922 377.349 220.015 377.252 220.113C376.692 220.706 376.108 221.291 375.516 221.876C375.378 222.014 375.232 222.153 375.086 222.299C374.567 222.803 374.04 223.307 373.503 223.811C373.401 223.908 373.298 224.006 373.187 224.112C373.139 224.152 373.098 224.201 373.049 224.241C372.766 224.502 372.473 224.756 372.181 225.013C371.77 225.387 371.369 225.753 370.956 226.119C370.615 226.419 370.267 226.712 369.917 227.005C369.506 227.362 369.09 227.721 368.66 228.078C368.303 228.378 367.94 228.671 367.573 228.964C367.143 229.313 366.712 229.663 366.275 230.012C365.894 230.305 365.504 230.606 365.122 230.898C364.684 231.24 364.238 231.581 363.786 231.914C363.388 232.215 362.984 232.507 362.578 232.8C362.124 233.133 361.669 233.458 361.206 233.792C360.795 234.084 360.371 234.377 359.948 234.661C359.478 234.987 359.008 235.312 358.529 235.637C358.099 235.93 357.661 236.214 357.23 236.499C356.743 236.815 356.257 237.14 355.762 237.449C355.316 237.742 354.861 238.018 354.407 238.302C353.904 238.611 353.409 238.928 352.898 239.238C352.752 239.326 352.606 239.416 352.451 239.514C351.803 239.904 351.137 240.294 350.472 240.684C349.255 241.392 348.024 242.085 346.78 242.765C346.423 242.96 346.061 243.147 345.702 243.342C344.736 243.862 343.77 244.371 342.789 244.87C342.456 245.04 342.131 245.211 341.799 245.385C340.525 246.019 339.243 246.653 337.945 247.263L337.264 247.58C336.167 248.092 335.064 248.596 333.953 249.092C333.555 249.263 333.157 249.432 332.76 249.606C332.712 249.631 332.657 249.648 332.606 249.671V184.629C332.882 184.515 333.149 184.402 333.428 184.279C333.825 184.108 334.223 183.939 334.612 183.76C335.724 183.272 336.827 182.77 337.922 182.256C338.149 182.153 338.385 182.045 338.612 181.939C339.913 181.321 341.195 180.692 342.458 180.053C342.791 179.89 343.124 179.712 343.455 179.55C344.43 179.045 345.408 178.534 346.368 178.021L347.44 177.436C348.69 176.761 349.92 176.07 351.131 175.363C351.959 174.884 352.762 174.396 353.565 173.909C354.079 173.6 354.571 173.291 355.075 172.982C355.529 172.698 355.983 172.414 356.43 172.129C356.924 171.812 357.403 171.495 357.89 171.179C358.328 170.886 358.767 170.601 359.196 170.317C359.675 169.992 360.146 169.667 360.616 169.342C361.038 169.049 361.46 168.756 361.866 168.472C362.336 168.138 362.79 167.806 363.245 167.472C363.65 167.18 364.056 166.887 364.446 166.594C364.9 166.253 365.339 165.912 365.782 165.578C366.163 165.278 366.552 164.985 366.925 164.684C367.371 164.343 367.793 163.993 368.224 163.644C368.589 163.351 368.962 163.05 369.319 162.758C369.749 162.401 370.163 162.042 370.577 161.685C370.925 161.385 371.275 161.091 371.615 160.799L372.848 159.685C373.181 159.385 373.514 159.092 373.838 158.784C373.951 158.686 374.057 158.578 374.171 158.483C374.698 157.979 375.226 157.474 375.744 156.971C375.883 156.833 376.029 156.694 376.175 156.548C376.767 155.971 377.343 155.378 377.912 154.793C378.008 154.695 378.098 154.597 378.187 154.499C378.682 153.985 379.169 153.46 379.64 152.939C379.769 152.801 379.907 152.655 380.038 152.509C380.573 151.915 381.1 151.314 381.611 150.713L381.854 150.42C382.301 149.891 382.739 149.363 383.169 148.827C383.291 148.681 383.405 148.534 383.526 148.38C383.769 148.071 384.005 147.754 384.245 147.445C384.61 146.974 384.975 146.494 385.324 146.023C385.551 145.722 385.762 145.412 385.982 145.112C386.313 144.649 386.638 144.186 386.955 143.722C387.16 143.414 387.377 143.105 387.58 142.796C387.888 142.324 388.196 141.853 388.489 141.382C388.683 141.081 388.869 140.78 389.056 140.479C389.364 139.968 389.665 139.456 389.957 138.943C390.111 138.683 390.274 138.415 390.42 138.146C390.679 137.691 390.914 137.236 391.157 136.79C391.312 136.496 391.474 136.204 391.62 135.912C391.888 135.391 392.14 134.871 392.39 134.351C392.493 134.124 392.619 133.896 392.723 133.668C393.073 132.92 393.405 132.165 393.722 131.408C393.77 131.295 393.811 131.181 393.86 131.068C394.127 130.425 394.387 129.783 394.63 129.141C394.744 128.832 394.849 128.523 394.955 128.214C395.118 127.776 395.272 127.337 395.418 126.898C395.531 126.572 395.623 126.239 395.734 125.914C395.864 125.492 396.001 125.069 396.123 124.647C396.22 124.305 396.301 123.971 396.399 123.631C396.502 123.219 396.626 122.801 396.724 122.379C396.813 122.037 396.886 121.695 396.967 121.35C397.056 120.938 397.154 120.526 397.234 120.114C397.308 119.774 397.365 119.432 397.429 119.085C397.511 118.673 397.584 118.247 397.657 117.833C397.713 117.483 397.759 117.134 397.811 116.784C397.837 116.606 397.861 116.448 397.877 116.274Z" fill="white" fill-opacity="0.2"/>
<path d="M272.596 201.568V266.828L272.109 266.878C271.882 266.901 271.663 266.934 271.436 266.959C271.362 266.959 271.289 266.967 271.216 266.974C269.821 267.113 268.425 267.243 267.022 267.357C266.786 267.381 266.551 267.397 266.307 267.414C265.139 267.517 263.971 267.593 262.803 267.674L261.334 267.771C260.409 267.829 259.485 267.885 258.56 267.934L256.921 268.007C256.037 268.048 255.161 268.088 254.284 268.121C253.993 268.129 253.7 268.146 253.4 268.161C253.116 268.169 252.831 268.169 252.54 268.186C251.802 268.202 251.063 268.226 250.317 268.242C249.708 268.259 249.108 268.267 248.499 268.284L246.26 268.307C245.659 268.316 245.059 268.316 244.459 268.316C243.704 268.324 242.941 268.316 242.187 268.316C241.594 268.307 241.002 268.307 240.41 268.3C239.639 268.292 238.868 268.275 238.089 268.259C237.644 268.251 237.197 268.251 236.754 268.234C236.624 268.234 236.502 268.226 236.372 268.226L234.23 268.153C233.63 268.137 233.022 268.121 232.413 268.096C231.694 268.064 230.969 268.023 230.246 267.993C229.654 267.97 229.063 267.945 228.461 267.913C227.732 267.872 226.993 267.824 226.263 267.774C225.679 267.742 225.102 267.709 224.516 267.671L222.244 267.5C221.74 267.459 221.238 267.427 220.734 267.386C220.684 267.376 220.632 267.371 220.58 267.37C219.793 267.305 219.006 267.232 218.217 267.164C217.703 267.115 217.178 267.074 216.659 267.018C215.775 266.936 214.891 266.838 214.006 266.742C213.595 266.7 213.171 266.66 212.757 266.611C211.459 266.465 210.161 266.31 208.862 266.148C208.716 266.131 208.562 266.108 208.415 266.091C207.272 265.937 206.128 265.791 204.983 265.628C204.968 265.628 204.943 265.62 204.927 265.62C204.627 265.578 204.335 265.53 204.035 265.482C203.036 265.343 202.039 265.197 201.049 265.034C200.562 264.961 200.075 264.88 199.588 264.798C199.382 264.766 199.158 264.725 198.948 264.695V199.243L200.27 199.462C200.749 199.535 201.227 199.625 201.709 199.698C202.706 199.852 203.705 199.999 204.711 200.145C205.028 200.194 205.336 200.242 205.652 200.283C206.829 200.454 208.005 200.609 209.182 200.763C209.295 200.779 209.409 200.795 209.53 200.803C210.821 200.974 212.119 201.128 213.426 201.275L214.634 201.397C215.534 201.494 216.427 201.592 217.327 201.681C217.841 201.73 218.355 201.771 218.868 201.819L221.245 202.038L222.889 202.161C223.653 202.217 224.415 202.282 225.178 202.332C225.754 202.372 226.329 202.405 226.906 202.445C227.644 202.486 228.382 202.535 229.121 202.576C229.713 202.608 230.305 202.632 230.898 202.665L233.072 202.762C233.673 202.787 234.281 202.803 234.881 202.827C235.596 202.852 236.32 202.876 237.031 202.893C237.599 202.908 238.168 202.916 238.744 202.933C239.523 202.949 240.302 202.966 241.081 202.974C241.664 202.981 242.257 202.981 242.849 202.981C243.603 202.989 244.358 202.989 245.11 202.989C245.71 202.989 246.311 202.981 246.911 202.974C247.666 202.974 248.412 202.966 249.158 202.949C249.759 202.941 250.367 202.925 250.967 202.908C251.714 202.893 252.46 202.876 253.199 202.852C253.783 202.835 254.359 202.811 254.935 202.795C255.819 202.762 256.696 202.722 257.581 202.681C258.124 202.657 258.668 202.632 259.211 202.599C260.144 202.551 261.069 202.496 262.002 202.437C262.489 202.405 262.976 202.38 263.455 202.348C264.639 202.267 265.818 202.177 266.992 202.08L267.674 202.031C269.078 201.909 270.481 201.787 271.877 201.648C272.125 201.625 272.361 201.6 272.596 201.568Z" fill="white" fill-opacity="0.2"/>
<defs>
<filter id="filter0_f_648_2572" x="188" y="236.067" width="95" height="64.0161" filterUnits="userSpaceOnUse" color-interpolation-filters="sRGB">
<feFlood flood-opacity="0" result="BackgroundImageFix"/>
<feBlend mode="normal" in="SourceGraphic" in2="BackgroundImageFix" result="shape"/>
<feGaussianBlur stdDeviation="5" result="effect1_foregroundBlur_648_2572"/>
</filter>
</defs>
</svg>
