<svg width="783" height="633" viewBox="0 0 783 633" fill="none" xmlns="http://www.w3.org/2000/svg">
    <path d="M552.915 429.678L469.079 478.357L384.695 429.679L468.531 381L552.915 429.678Z" fill="#171717"/>
    <path d="M678.915 340.678L595.079 389.357L510.695 340.679L594.531 292L678.915 340.678Z" fill="#171717"/>
    <path d="M429.915 340.678L346.079 389.357L261.695 340.679L345.531 292L429.915 340.678Z" fill="#171717"/>
    <path d="M173.829 531.999C213.783 555.04 213.993 592.388 174.308 615.422C134.613 638.463 70.0523 638.463 30.0963 615.422C-9.84938 592.39 -10.0598 555.04 29.6354 531.999C69.3212 508.967 133.883 508.967 173.829 531.999Z" fill="#151515"/>
    <path d="M471.524 520.721C466.52 520.725 461.603 519.413 457.267 516.917L166.348 349.189C163.813 347.728 161.708 345.627 160.243 343.097C158.778 340.567 158.004 337.697 158 334.774C157.996 331.852 158.761 328.979 160.219 326.445C161.677 323.911 163.776 321.804 166.307 320.336L455.15 152.712C459.491 150.2 464.419 148.874 469.436 148.867C474.454 148.86 479.385 150.172 483.734 152.671L774.653 320.4C777.187 321.861 779.292 323.962 780.758 326.492C782.223 329.022 782.996 331.893 783 334.815C783.005 337.738 782.239 340.61 780.781 343.144C779.323 345.678 777.224 347.785 774.693 349.254L485.85 516.877C481.498 519.399 476.555 520.725 471.524 520.721ZM469.477 149.942C464.635 149.939 459.879 151.215 455.69 153.641L166.848 321.266C164.481 322.64 162.517 324.611 161.153 326.981C159.789 329.352 159.073 332.039 159.077 334.773C159.081 337.507 159.805 340.192 161.175 342.559C162.546 344.925 164.515 346.891 166.886 348.258L457.806 515.987C461.99 518.391 466.735 519.653 471.563 519.646C476.391 519.639 481.131 518.363 485.309 515.947L774.154 348.323C776.521 346.949 778.485 344.978 779.849 342.608C781.213 340.237 781.929 337.55 781.925 334.815C781.921 332.081 781.197 329.396 779.826 327.03C778.455 324.663 776.485 322.697 774.114 321.331L483.196 153.603C479.024 151.201 474.293 149.939 469.477 149.942Z" fill="#353535"/>
    <path d="M554.65 151.836L554.413 235.648L470.577 284.3L470.815 200.489L554.65 151.836Z" fill="#262626"/>
    <path d="M470.815 200.489L470.577 284.3L386.193 235.649L386.431 151.836L470.815 200.489Z" fill="#404040"/>
    <path d="M554.65 151.837L470.815 200.489L386.431 151.837L470.267 103.184L554.65 151.837Z" fill="#171717"/>
    <path d="M554.65 61.6818L554.413 145.495L470.577 194.147L470.815 110.334L554.65 61.6818Z" fill="#262626"/>
    <path d="M470.815 110.334L470.577 194.147L386.193 145.496L386.431 61.6829L470.815 110.334Z" fill="#404040"/>
    <path d="M554.65 61.6818L470.815 110.334L386.431 61.6829L470.267 13.0307L554.65 61.6818Z" fill="#323232"/>
    <path d="M679.312 240.297L679.074 324.11L595.239 372.762L595.477 288.949L679.312 240.297Z" fill="#262626"/>
    <path d="M595.477 288.949L595.239 372.762L510.854 324.111L511.093 240.298L595.477 288.949Z" fill="#404040"/>
    <path d="M679.312 240.297L595.477 288.949L511.093 240.298L594.929 191.646L679.312 240.297Z" fill="#171717"/>
    <path d="M679.312 150.149L679.074 233.962L595.239 282.614L595.477 198.801L679.312 150.149Z" fill="#262626"/>
    <path d="M595.477 198.801L595.239 282.614L510.854 233.963L511.093 150.15L595.477 198.801Z" fill="#404040"/>
    <path d="M679.312 150.149L595.477 198.801L511.093 150.15L594.929 101.498L679.312 150.149Z" fill="#323232"/>
    <path d="M429.457 240.297L429.219 324.11L345.384 372.762L345.622 288.949L429.457 240.297Z" fill="#262626"/>
    <path d="M345.622 288.949L345.384 372.762L261 324.111L261.238 240.298L345.622 288.949Z" fill="#404040"/>
    <path d="M429.457 240.297L345.622 288.949L261.238 240.298L345.073 191.646L429.457 240.297Z" fill="#171717"/>
    <path d="M448.979 128.443V134.66L406.626 110.233V104.027L448.979 128.443Z" fill="#5B5B5B"/>
    <path d="M448.979 148.933V155.14L406.626 130.723V124.517L448.979 148.933Z" fill="#5B5B5B"/>
    <path d="M448.979 218.601V224.807L406.626 200.38V194.174L448.979 218.601Z" fill="#5B5B5B"/>
    <path d="M448.979 239.081V245.287L406.626 220.87V214.664L448.979 239.081Z" fill="#F2F2F2"/>
    <path d="M429.457 150.149L429.219 233.962L345.384 282.614L345.622 198.801L429.457 150.149Z" fill="#262626"/>
    <path d="M345.622 198.801L345.384 282.614L261 233.963L261.238 150.15L345.622 198.801Z" fill="#404040"/>
    <path d="M429.457 150.149L345.622 198.801L261.238 150.15L345.073 101.498L429.457 150.149Z" fill="#323232"/>
    <path d="M574.341 218.563V224.78L531.989 200.353V194.147L574.341 218.563Z" fill="#5B5B5B"/>
    <path d="M574.341 239.054V245.26L531.989 220.844V214.637L574.341 239.054Z" fill="#5B5B5B"/>
    <path d="M574.341 308.721V314.927L531.989 290.5V284.294L574.341 308.721Z" fill="#5B5B5B"/>
    <path d="M574.341 329.201V335.407L531.989 310.991V304.784L574.341 329.201Z" fill="#5B5B5B"/>
    <path d="M554.117 328.762L553.879 412.575L470.043 461.227L470.281 377.414L554.117 328.762Z" fill="#262626"/>
    <path d="M470.281 377.414L470.043 461.227L385.66 412.576L385.897 328.763L470.281 377.414Z" fill="#404040"/>
    <path d="M554.117 328.762L470.281 377.414L385.896 328.763L469.732 280.111L554.117 328.762Z" fill="#171717"/>
    <path d="M554.117 238.614L553.879 322.427L470.043 371.079L470.281 287.266L554.117 238.614Z" fill="#262626"/>
    <path d="M470.281 287.266L470.043 371.079L385.66 322.428L385.897 238.615L470.281 287.266Z" fill="#404040"/>
    <path d="M554.117 238.614L470.281 287.266L385.896 238.615L469.732 189.963L554.117 238.614Z" fill="#323232"/>
    <path d="M323.615 215.24V221.457L281.263 197.029V190.823L323.615 215.24Z" fill="#5B5B5B"/>
    <path d="M323.615 235.73V241.936L281.263 217.52V211.314L323.615 235.73Z" fill="#5B5B5B"/>
    <path d="M323.615 305.398V311.604L281.263 287.177V280.97L323.615 305.398Z" fill="#5B5B5B"/>
    <path d="M323.615 325.877V332.084L281.263 307.667V301.461L323.615 325.877Z" fill="#5B5B5B"/>
    <path d="M450.633 307.03V313.247L408.281 288.82V282.614L450.633 307.03Z" fill="#5B5B5B"/>
    <path d="M450.633 327.521V333.727L408.281 309.311V303.104L450.633 327.521Z" fill="#5B5B5B"/>
    <path d="M450.633 397.188V403.395L408.281 378.967V372.761L450.633 397.188Z" fill="#5B5B5B"/>
    <path d="M450.633 417.668V423.874L408.281 399.458V393.251L450.633 417.668Z" fill="#5B5B5B"/>
    <path d="M594.591 184.65C593.36 184.652 592.15 184.329 591.083 183.714L540.118 154.33C539.382 153.905 538.771 153.296 538.346 152.561C537.921 151.827 537.696 150.994 537.695 150.145C537.694 149.297 537.916 148.463 538.339 147.728C538.762 146.992 539.371 146.38 540.106 145.954L590.693 116.596C591.762 115.978 592.974 115.652 594.209 115.65C595.443 115.648 596.657 115.971 597.727 116.585L648.693 145.97C649.429 146.394 650.04 147.004 650.465 147.739C650.891 148.473 651.115 149.307 651.116 150.155C651.117 151.004 650.895 151.838 650.472 152.573C650.049 153.309 649.439 153.921 648.704 154.347L598.117 183.705C597.046 184.325 595.83 184.651 594.591 184.65ZM594.219 116.725C593.171 116.724 592.141 117 591.234 117.526L540.646 146.883C540.075 147.215 539.601 147.691 539.272 148.263C538.943 148.835 538.77 149.484 538.771 150.144C538.772 150.803 538.947 151.452 539.278 152.023C539.608 152.594 540.084 153.068 540.656 153.398L591.621 182.779C592.527 183.299 593.554 183.572 594.599 183.57C595.644 183.569 596.67 183.293 597.575 182.77L648.169 153.414C648.741 153.083 649.215 152.607 649.544 152.035C649.874 151.462 650.046 150.814 650.045 150.154C650.044 149.494 649.87 148.845 649.539 148.274C649.208 147.703 648.732 147.228 648.159 146.898L597.194 117.515C596.289 116.995 595.263 116.722 594.219 116.725Z" fill="#171717"/>
    <path d="M471.001 273.114C469.77 273.116 468.56 272.793 467.493 272.178L416.525 242.798C415.789 242.374 415.178 241.764 414.753 241.029C414.327 240.295 414.103 239.461 414.102 238.613C414.1 237.764 414.323 236.93 414.746 236.195C415.169 235.459 415.779 234.847 416.513 234.421L467.101 205.063C468.17 204.446 469.383 204.12 470.618 204.119C471.853 204.117 473.066 204.44 474.137 205.056L525.098 234.435C525.834 234.859 526.445 235.469 526.871 236.204C527.296 236.938 527.521 237.772 527.522 238.62C527.523 239.469 527.301 240.302 526.877 241.038C526.454 241.774 525.845 242.386 525.11 242.812L474.522 272.169C473.453 272.788 472.238 273.114 471.001 273.114ZM470.627 205.189C469.579 205.189 468.55 205.465 467.643 205.99L417.056 235.348C416.485 235.68 416.011 236.155 415.682 236.728C415.352 237.3 415.18 237.948 415.18 238.608C415.181 239.268 415.356 239.916 415.687 240.487C416.017 241.059 416.493 241.533 417.065 241.863L468.032 271.248C468.938 271.768 469.965 272.041 471.01 272.039C472.055 272.038 473.082 271.761 473.986 271.238L524.574 241.881C525.145 241.55 525.619 241.074 525.949 240.502C526.278 239.929 526.451 239.281 526.45 238.621C526.449 237.961 526.274 237.312 525.943 236.741C525.612 236.17 525.136 235.695 524.564 235.365L473.599 205.982C472.695 205.462 471.671 205.188 470.627 205.189Z" fill="#171717"/>
    <path d="M345.415 183.681C344.184 183.682 342.973 183.36 341.906 182.745L290.94 153.361C290.205 152.936 289.594 152.326 289.168 151.592C288.743 150.858 288.519 150.024 288.518 149.176C288.516 148.328 288.738 147.494 289.162 146.758C289.585 146.023 290.194 145.411 290.928 144.985L341.516 115.627C342.585 115.009 343.797 114.683 345.032 114.681C346.267 114.68 347.48 115.002 348.551 115.617L399.516 145.001C400.252 145.425 400.864 146.035 401.289 146.769C401.715 147.504 401.939 148.337 401.941 149.186C401.942 150.034 401.72 150.868 401.297 151.604C400.873 152.34 400.264 152.951 399.529 153.378L399.258 152.913L399.529 153.378L348.941 182.736C347.87 183.356 346.653 183.682 345.415 183.681ZM345.043 115.756C343.994 115.755 342.964 116.032 342.058 116.557L291.472 145.914C290.901 146.246 290.427 146.721 290.098 147.294C289.769 147.866 289.596 148.514 289.597 149.174C289.597 149.834 289.772 150.482 290.103 151.053C290.433 151.625 290.909 152.099 291.481 152.429L342.447 181.815C343.353 182.335 344.38 182.608 345.425 182.606C346.47 182.605 347.497 182.328 348.401 181.805L398.988 152.446C399.559 152.115 400.033 151.639 400.362 151.067C400.691 150.495 400.864 149.846 400.863 149.186C400.862 148.526 400.687 147.878 400.356 147.307C400.026 146.736 399.55 146.261 398.978 145.931L348.012 116.547C347.109 116.028 346.085 115.755 345.043 115.756Z" fill="#171717"/>
    <path d="M471.001 95.7615C469.77 95.7626 468.56 95.4394 467.493 94.8247L416.525 65.4443C415.789 65.02 415.178 64.4099 414.753 63.6754C414.328 62.9408 414.103 62.1075 414.102 61.259C414.101 60.4104 414.323 59.5766 414.747 58.8409C415.17 58.1052 415.78 57.4936 416.514 57.0674L467.101 27.7107C468.17 27.0923 469.382 26.7658 470.617 26.7639C471.852 26.762 473.066 27.0848 474.137 27.6999L525.098 57.0846C525.834 57.5089 526.445 58.1189 526.87 58.8533C527.295 59.5877 527.52 60.4208 527.521 61.2691C527.522 62.1175 527.3 62.9512 526.877 63.6868C526.454 64.4224 525.844 65.0341 525.11 65.4604L474.527 94.8182C473.455 95.4381 472.239 95.7636 471.001 95.7615ZM470.628 27.8355C469.58 27.8345 468.55 28.111 467.644 28.6368L417.056 57.9968C416.485 58.3283 416.011 58.804 415.682 59.3761C415.352 59.9483 415.179 60.5968 415.18 61.2567C415.181 61.9166 415.356 62.5647 415.687 63.136C416.017 63.7073 416.493 64.1817 417.065 64.5117L468.032 93.8964C468.937 94.417 469.965 94.6903 471.01 94.6887C472.055 94.6872 473.081 94.411 473.986 93.8878L524.573 64.5311C525.145 64.1995 525.619 63.7237 525.948 63.1515C526.277 62.5793 526.45 61.9307 526.449 61.2708C526.448 60.6109 526.273 59.9629 525.942 59.3916C525.611 58.8204 525.136 58.3461 524.564 58.0161L473.599 28.6314C472.696 28.1116 471.671 27.8382 470.628 27.8387V27.8355Z" fill="#171717"/>
    <path d="M378.834 82.9338C378.834 82.7348 378.819 82.5347 378.806 82.3346C378.806 82.2432 378.792 82.1507 378.784 82.0593L378.774 81.941C378.774 81.8711 378.765 81.8012 378.758 81.7259C378.739 81.5244 378.716 81.3221 378.69 81.1192C378.665 80.9127 378.634 80.7051 378.602 80.4964V80.4781V80.4523C378.572 80.2587 378.539 80.0647 378.502 79.8704C378.461 79.6553 378.418 79.4402 378.371 79.2251C378.353 79.1476 378.334 79.0702 378.317 78.9938L378.284 78.8583C378.263 78.7636 378.242 78.67 378.219 78.5754C378.165 78.356 378.107 78.1365 378.045 77.9171C378.001 77.7568 377.953 77.5944 377.905 77.4363C377.896 77.4062 377.888 77.3761 377.878 77.346C377.869 77.3158 377.862 77.29 377.854 77.2621C377.788 77.0469 377.72 76.8318 377.648 76.6167C377.576 76.4016 377.504 76.195 377.427 75.9842C377.413 75.9455 377.398 75.9057 377.383 75.867L377.347 75.7713C377.298 75.64 377.249 75.5077 377.199 75.3776C377.12 75.1754 377.039 74.9753 376.956 74.7742C376.896 74.63 376.832 74.4859 376.77 74.3439L376.738 74.2686L376.702 74.1847C376.614 73.9847 376.523 73.7853 376.429 73.5867C376.326 73.3716 376.22 73.1489 376.112 72.9316L376.06 72.8327C376.039 72.7897 376.016 72.7466 375.993 72.7036C375.905 72.5304 375.818 72.3583 375.726 72.1862C375.612 71.9711 375.489 71.7625 375.37 71.5516C375.308 71.4441 375.249 71.3365 375.186 71.2289C375.161 71.187 375.138 71.144 375.113 71.102C375.006 70.917 374.885 70.7417 374.773 70.5642C374.608 70.2964 374.45 70.0264 374.272 69.7672C374.245 69.7252 374.22 69.6811 374.192 69.6403C373.94 69.2627 373.679 68.8873 373.41 68.5281V68.5216C373.23 68.2775 373.045 68.0354 372.858 67.7977C372.706 67.6048 372.552 67.4145 372.396 67.2266L372.386 67.2158L372.379 67.2061C372.221 67.0168 372.061 66.8297 371.899 66.6458C371.738 66.4618 371.576 66.2865 371.416 66.1079C371.39 66.08 371.362 66.0531 371.336 66.0251L371.252 65.938C371.138 65.8165 371.024 65.6949 370.907 65.5766C370.735 65.4002 370.56 65.2277 370.384 65.0592C370.33 65.0076 370.276 64.9592 370.221 64.9086L370.097 64.7935C370.011 64.7129 369.925 64.6311 369.838 64.5526C369.655 64.3884 369.471 64.2278 369.285 64.0707C369.205 64.004 369.124 63.9395 369.043 63.8728L368.917 63.7653C368.855 63.7158 368.795 63.6642 368.734 63.6158C368.553 63.4738 368.372 63.335 368.189 63.2006C368.057 63.1048 367.926 63.0123 367.793 62.9198L367.717 62.866L367.649 62.8176C367.475 62.6986 367.299 62.5828 367.122 62.4702C366.946 62.3576 366.771 62.2501 366.598 62.1475L366.475 62.0765L340.15 46.8996C340.018 46.8233 339.886 46.7491 339.755 46.6781C339.585 46.587 339.415 46.4992 339.246 46.4145C339.138 46.3608 339.03 46.3124 338.922 46.2618L338.841 46.2231C338.808 46.2091 338.776 46.1919 338.745 46.1779C338.577 46.1062 338.411 46.0345 338.247 45.9628C338.079 45.8961 337.912 45.8326 337.746 45.7745L337.661 45.7466L337.573 45.7294C337.46 45.6917 337.348 45.653 337.236 45.6218C337.063 45.5702 336.892 45.5232 336.723 45.4809C336.641 45.4605 336.56 45.4443 336.48 45.4261L336.372 45.4024C336.319 45.3916 336.264 45.3776 336.215 45.3669C336.03 45.3314 335.849 45.3013 335.67 45.2776C335.562 45.2626 335.454 45.255 335.346 45.2443L335.231 45.2324C335.195 45.2324 335.158 45.2238 335.123 45.2217C334.926 45.2077 334.731 45.2012 334.54 45.2023C334.455 45.2023 334.373 45.2109 334.289 45.2142L334.095 45.2228C334.029 45.2228 333.96 45.2228 333.896 45.2324C333.655 45.2553 333.416 45.2912 333.179 45.34H333.166C333.114 45.3508 333.065 45.3701 333.013 45.382C332.775 45.4329 332.541 45.4976 332.31 45.5756C332.292 45.582 332.276 45.5928 332.257 45.6003C331.927 45.7183 331.608 45.8655 331.304 46.0402L316.117 54.8506C316.421 54.6765 316.739 54.5293 317.069 54.4106C317.315 54.3233 317.567 54.2515 317.823 54.1955C317.876 54.1837 317.924 54.1633 317.977 54.1536C318.283 54.0933 318.594 54.0541 318.905 54.0363C318.97 54.0363 319.035 54.0299 319.099 54.0267C319.414 54.0144 319.73 54.0209 320.044 54.046L320.159 54.0578C320.505 54.0911 320.849 54.1439 321.189 54.216L321.297 54.2396C321.666 54.3222 322.031 54.4242 322.39 54.5451L322.466 54.5698C322.853 54.7021 323.247 54.8603 323.646 55.042L323.727 55.0797C324.131 55.2679 324.542 55.4777 324.958 55.7175L351.282 70.8955C351.702 71.1379 352.117 71.4007 352.525 71.6839L352.6 71.7366C352.979 72.0027 353.355 72.2848 353.725 72.5831L353.849 72.6842C354.208 72.9775 354.56 73.2848 354.906 73.606L355.028 73.7201C355.378 74.0506 355.722 74.3938 356.06 74.7494L356.143 74.8366C356.502 75.2195 356.852 75.6157 357.193 76.0251L357.205 76.0391C357.554 76.4586 357.891 76.8888 358.218 77.3298V77.3352C358.516 77.7386 358.802 78.1537 359.079 78.5743C359.253 78.8357 359.417 79.1057 359.581 79.3735C359.719 79.5961 359.861 79.8156 359.993 80.0414C360.056 80.149 360.116 80.2566 360.177 80.3695C360.392 80.7503 360.608 81.1332 360.801 81.5215C360.823 81.5645 360.846 81.6065 360.867 81.6495C361.107 82.1238 361.334 82.6036 361.545 83.0865L361.577 83.1607C361.784 83.6354 361.977 84.1123 362.155 84.5913L362.19 84.6859C362.371 85.1771 362.537 85.6698 362.687 86.1638C362.695 86.1929 362.703 86.2219 362.712 86.251C362.854 86.7253 362.981 87.2007 363.092 87.674L363.124 87.8095C363.232 88.2989 363.333 88.7873 363.411 89.2724V89.2939C363.489 89.7843 363.546 90.2705 363.587 90.7535L363.597 90.8707C363.635 91.3537 363.656 91.8323 363.655 92.3045L363.569 122.512C363.569 122.983 363.544 123.437 363.504 123.874L363.491 123.991C363.452 124.391 363.395 124.777 363.322 125.148C363.313 125.198 363.303 125.248 363.292 125.297C363.221 125.645 363.132 125.988 363.026 126.327C363.007 126.39 362.985 126.45 362.965 126.511C362.866 126.811 362.75 127.106 362.62 127.394C362.605 127.427 362.593 127.462 362.578 127.493C362.432 127.805 362.265 128.107 362.078 128.397C362.054 128.434 362.028 128.467 362.003 128.504C361.854 128.725 361.693 128.938 361.52 129.141C361.458 129.213 361.393 129.281 361.33 129.35C361.182 129.508 361.027 129.659 360.863 129.8C360.796 129.86 360.731 129.92 360.662 129.975C360.435 130.158 360.195 130.325 359.943 130.474L375.131 121.663C375.382 121.514 375.622 121.347 375.849 121.163C375.918 121.108 375.983 121.048 376.049 120.99C376.213 120.848 376.369 120.697 376.517 120.538C376.581 120.469 376.645 120.402 376.706 120.33C376.88 120.127 377.042 119.914 377.19 119.693C377.215 119.656 377.242 119.624 377.265 119.585L377.283 119.561C377.457 119.288 377.614 119.004 377.752 118.712L377.765 118.681C377.78 118.65 377.792 118.616 377.806 118.584C377.891 118.397 377.975 118.206 378.051 118.006C378.087 117.906 378.119 117.801 378.153 117.699C378.172 117.637 378.194 117.578 378.213 117.517C378.233 117.456 378.251 117.409 378.267 117.352C378.327 117.147 378.383 116.936 378.433 116.719C378.45 116.642 378.464 116.562 378.48 116.484L378.51 116.337C378.525 116.262 378.542 116.189 378.555 116.111C378.588 115.917 378.618 115.72 378.643 115.518C378.657 115.411 378.668 115.293 378.679 115.179C378.679 115.14 378.687 115.101 378.69 115.062C378.694 115.024 378.701 114.969 378.706 114.92C378.722 114.729 378.734 114.534 378.742 114.335C378.751 114.136 378.755 113.938 378.756 113.735V113.7L378.842 83.492C378.842 83.307 378.84 83.1209 378.834 82.9338Z" fill="#CCCCCC"/>
    <path d="M351.279 70.8912C358.136 74.8441 363.681 84.4353 363.66 92.3034L363.573 122.511C363.551 130.387 357.972 133.563 351.113 129.61L324.788 114.432C317.924 110.475 312.379 100.879 312.401 93.008L312.486 62.8004C312.509 54.9323 318.087 51.756 324.954 55.7132L351.279 70.8912Z" fill="#E6E6E6"/>
    <path d="M352.458 96.0154C350.932 91.482 347.91 87.6002 343.887 85.0054C343.473 84.7662 343.045 84.5525 342.605 84.3654L342.509 84.1987C341.102 81.6966 339.084 79.5902 336.644 78.0752C334.519 76.8512 332.394 76.5425 330.754 77.4299C330.048 77.8824 329.463 78.4983 329.047 79.2252C328.631 79.9522 328.397 80.7688 328.365 81.6054C327.786 81.3776 327.165 81.2749 326.543 81.3042C325.922 81.3335 325.314 81.4941 324.759 81.7753C323.358 82.5186 322.561 84.1987 322.558 86.4349C322.703 88.9734 323.445 91.442 324.725 93.6398C326.006 95.8377 327.787 97.7027 329.926 99.083L343.783 107.073C349.106 110.141 353.449 107.709 353.508 101.621C353.483 99.7064 353.128 97.8099 352.458 96.0154Z" fill="#27AE60"/>
    <path d="M628.415 79.6124C628.408 79.4134 628.4 79.2134 628.387 79.0133C628.381 78.9219 628.372 78.8304 628.365 78.7379L628.356 78.6196C628.349 78.5497 628.346 78.4798 628.338 78.411C628.319 78.2087 628.297 78.0062 628.272 77.8032C628.245 77.5967 628.216 77.3891 628.182 77.1805V77.1622V77.1363C628.151 76.9427 628.117 76.7488 628.082 76.5544C628.041 76.3393 627.997 76.1242 627.95 75.9091C627.933 75.8316 627.914 75.7542 627.896 75.6778L627.864 75.5423C627.842 75.4476 627.821 75.3541 627.799 75.2594C627.744 75.0443 627.691 74.8206 627.625 74.6011C627.581 74.4409 627.533 74.2784 627.484 74.1203L627.458 74.03C627.45 74.002 627.442 73.974 627.434 73.9461C627.368 73.731 627.3 73.5158 627.228 73.3007C627.156 73.0856 627.084 72.8748 627.012 72.6682C626.998 72.6295 626.982 72.5908 626.968 72.551C626.954 72.5112 626.944 72.4875 626.932 72.4553C626.883 72.3241 626.835 72.1928 626.784 72.0616C626.705 71.8594 626.625 71.6593 626.541 71.4582C626.48 71.3141 626.418 71.1699 626.355 71.0279L626.323 70.9526C626.31 70.9247 626.299 70.8967 626.286 70.8698C626.198 70.6687 626.108 70.4697 626.014 70.2707C625.911 70.0513 625.803 69.8329 625.691 69.6157C625.675 69.5823 625.656 69.55 625.64 69.5167C625.624 69.4834 625.595 69.4307 625.573 69.3876C625.485 69.2155 625.398 69.0424 625.306 68.8703C625.191 68.6551 625.069 68.4465 624.949 68.2356C624.887 68.1281 624.828 68.0205 624.766 67.913C624.741 67.8699 624.718 67.8269 624.693 67.785C624.586 67.601 624.465 67.4246 624.353 67.2472C624.187 66.9793 624.03 66.7094 623.852 66.4501C623.824 66.4082 623.8 66.3641 623.772 66.3232C623.52 65.946 623.259 65.5753 622.991 65.211V65.2046C622.811 64.9604 622.626 64.7184 622.439 64.4807C622.287 64.2881 622.132 64.0978 621.976 63.9095L621.967 63.8988L621.96 63.8891C621.801 63.6998 621.642 63.5126 621.479 63.3287C621.317 63.1448 621.156 62.9694 620.997 62.7909C620.97 62.7619 620.943 62.735 620.916 62.707C620.889 62.679 620.861 62.6489 620.833 62.6199C620.719 62.4983 620.605 62.3768 620.488 62.2585C620.315 62.0831 620.14 61.91 619.964 61.7411C619.911 61.6895 619.856 61.6411 619.802 61.5905L619.669 61.4668C619.583 61.3861 619.497 61.3044 619.409 61.2259C619.227 61.0609 619.044 60.9007 618.858 60.7451C618.777 60.6773 618.696 60.6128 618.615 60.5472L618.489 60.4396C618.428 60.3901 618.368 60.3385 618.305 60.2901C618.125 60.1481 617.943 60.0094 617.766 59.8749C617.635 59.7792 617.503 59.6867 617.37 59.5942L617.295 59.5404L617.227 59.492C617.052 59.3726 616.876 59.2564 616.699 59.1446C616.522 59.0327 616.35 58.9294 616.175 58.8219L616.053 58.7509L589.727 43.574C589.596 43.4976 589.463 43.4234 589.333 43.3524C589.162 43.261 588.993 43.1728 588.823 43.09C588.716 43.0351 588.608 42.9824 588.5 42.9361L588.418 42.8974L588.324 42.8522C588.157 42.7805 587.991 42.7106 587.826 42.6425C587.658 42.5747 587.49 42.5124 587.324 42.4532L587.239 42.4263L587.163 42.4005C587.055 42.3628 586.937 42.3241 586.826 42.2929C586.654 42.2413 586.483 42.1943 586.313 42.152C586.231 42.1316 586.15 42.1154 586.069 42.0972L585.962 42.0735C585.91 42.0627 585.854 42.0488 585.804 42.0391C585.621 42.0025 585.44 41.9735 585.266 41.9487C585.158 41.9337 585.05 41.9261 584.943 41.9154L584.827 41.9036C584.791 41.9036 584.753 41.8949 584.72 41.8928C584.521 41.8788 584.328 41.8724 584.136 41.8734C584.051 41.8734 583.969 41.882 583.885 41.8853L583.691 41.8939C583.624 41.8939 583.556 41.8939 583.491 41.9036C583.25 41.9266 583.011 41.9625 582.774 42.0111H582.761C582.709 42.0219 582.661 42.0412 582.61 42.0531C582.372 42.1039 582.137 42.1685 581.906 42.2467C581.887 42.2531 581.871 42.2639 581.852 42.2714C581.522 42.3894 581.204 42.5367 580.9 42.7113L565.713 51.5217C566.017 51.3479 566.336 51.2007 566.665 51.0818C566.912 50.9948 567.164 50.923 567.419 50.8666C567.471 50.8548 567.519 50.8354 567.572 50.8247C567.879 50.7645 568.189 50.7253 568.502 50.7074C568.566 50.7074 568.631 50.701 568.695 50.6988C569.01 50.6857 569.326 50.6918 569.64 50.7171L569.755 50.729C570.101 50.7623 570.445 50.8151 570.785 50.8871L570.893 50.9107C571.262 50.9932 571.627 51.0952 571.986 51.2162L572.062 51.241C572.45 51.3743 572.845 51.5317 573.247 51.7131L573.328 51.7508C573.733 51.939 574.143 52.1498 574.559 52.3886L600.884 67.5666C601.303 67.8086 601.718 68.0732 602.126 68.355L602.201 68.4077C602.582 68.6731 602.957 68.9552 603.326 69.2543L603.451 69.3554C603.81 69.6494 604.161 69.9566 604.506 70.2772L604.629 70.3912C604.98 70.7217 605.324 71.0649 605.661 71.4205L605.744 71.5077C606.103 71.8906 606.453 72.285 606.794 72.6908L606.806 72.7048C607.155 73.1243 607.493 73.5546 607.819 73.9956V74.002C608.117 74.4043 608.402 74.8195 608.681 75.24C608.856 75.5025 609.018 75.7714 609.184 76.0392C609.321 76.2619 609.463 76.4813 609.596 76.7072C609.658 76.8147 609.717 76.9223 609.78 77.0299C609.995 77.4106 610.211 77.7935 610.403 78.1818C610.425 78.2249 610.449 78.2668 610.47 78.3098C610.709 78.7845 610.935 79.2636 611.148 79.7469L611.179 79.8211C611.386 80.2958 611.578 80.7726 611.757 81.2516L611.793 81.3463C611.972 81.8382 612.138 82.3308 612.288 82.8242L612.314 82.9113C612.458 83.386 612.584 83.8607 612.694 84.3354C612.705 84.3795 612.716 84.4247 612.726 84.4699C612.833 84.9593 612.935 85.4476 613.012 85.9327V85.9553C613.09 86.4444 613.149 86.9305 613.189 87.4138L613.198 87.5311C613.236 88.014 613.257 88.4927 613.256 88.9649L613.17 119.172C613.17 119.645 613.146 120.097 613.105 120.534C613.105 120.574 613.097 120.612 613.093 120.651C613.052 121.052 612.996 121.438 612.924 121.809C612.914 121.859 612.904 121.909 612.894 121.958C612.822 122.317 612.733 122.66 612.628 122.989C612.608 123.05 612.587 123.111 612.566 123.173C612.467 123.472 612.351 123.767 612.22 124.055C612.206 124.087 612.194 124.122 612.178 124.155C612.033 124.466 611.866 124.768 611.68 125.057C611.656 125.095 611.628 125.127 611.603 125.165C611.455 125.386 611.294 125.599 611.121 125.801C611.059 125.873 610.995 125.941 610.93 126.01C610.783 126.169 610.627 126.319 610.464 126.461C610.397 126.52 610.331 126.58 610.262 126.635C610.036 126.819 609.795 126.986 609.544 127.134L624.731 118.324C624.983 118.175 625.223 118.008 625.45 117.824C625.518 117.769 625.584 117.708 625.651 117.65C625.814 117.508 625.97 117.357 626.118 117.199C626.182 117.131 626.247 117.063 626.308 116.991C626.481 116.788 626.642 116.575 626.791 116.353C626.815 116.317 626.843 116.284 626.867 116.246L626.884 116.221C627.058 115.948 627.215 115.665 627.353 115.372L627.367 115.341C627.381 115.311 627.393 115.277 627.407 115.245C627.493 115.057 627.577 114.867 627.651 114.667C627.689 114.567 627.719 114.461 627.759 114.359C627.779 114.298 627.8 114.239 627.819 114.177C627.839 114.116 627.857 114.07 627.874 114.013C627.934 113.808 627.989 113.596 628.039 113.379C628.057 113.303 628.07 113.222 628.086 113.145C628.097 113.096 628.107 113.047 628.116 112.997C628.13 112.922 628.148 112.849 628.162 112.771C628.195 112.578 628.224 112.381 628.25 112.179C628.264 112.071 628.274 111.953 628.286 111.839C628.286 111.8 628.294 111.761 628.297 111.723C628.301 111.684 628.308 111.629 628.312 111.582C628.328 111.389 628.339 111.195 628.348 110.996C628.357 110.797 628.361 110.599 628.362 110.395V110.36L628.448 80.1524C628.423 79.9856 628.42 79.7996 628.415 79.6124Z" fill="#CCCCCC"/>
    <path d="M600.86 67.5699C607.716 71.5227 613.262 81.1151 613.239 88.9821L613.154 119.19C613.131 127.065 607.553 130.242 600.693 126.289L574.368 111.111C567.505 107.154 561.96 97.558 561.982 89.6866L562.068 59.4791C562.09 51.6121 567.669 48.4358 574.535 52.3919L600.86 67.5699Z" fill="#E6E6E6"/>
    <path d="M596.086 87.8473C594.692 86.5989 593.278 85.4365 591.844 84.3602C591.137 83.8224 590.432 83.3179 589.725 82.8285C588.55 82.0379 587.362 81.271 586.187 80.5945C585.011 79.9179 583.823 79.3123 582.648 78.7487L582.658 75.3229C582.664 73.0813 584.254 72.1767 586.212 73.3029C587.24 73.9701 588.095 74.8704 588.708 75.9305C589.321 76.9906 589.674 78.1803 589.739 79.4027L591.859 80.6246C591.756 78.6696 591.191 76.7667 590.211 75.0713C589.231 73.376 587.863 71.9362 586.219 70.8698C583.095 69.0682 580.552 70.5138 580.543 74.0967L580.532 77.8323C579.147 77.2713 577.728 76.8007 576.283 76.4232C575.056 76.1145 574.207 76.9159 574.208 78.3798C574.212 78.7324 574.253 79.0836 574.332 79.4274L576.923 90.2911C578.226 95.7692 582.025 100.974 586.123 103.337C587.041 103.881 588.039 104.277 589.081 104.51C589.729 104.692 590.408 104.744 591.077 104.662C591.746 104.581 592.392 104.367 592.977 104.034C593.563 103.701 594.076 103.255 594.487 102.722C594.899 102.189 595.2 101.579 595.373 100.929L598.019 93.0899C598.488 91.6367 597.658 89.3252 596.086 87.8473ZM586.15 93.5986C585.739 93.3317 585.397 92.9717 585.152 92.5477C584.907 92.1238 584.765 91.648 584.739 91.1591C584.739 90.261 585.379 89.9007 586.16 90.3513C586.571 90.6179 586.913 90.9779 587.158 91.4019C587.403 91.826 587.544 92.3019 587.57 92.7908C587.571 93.6868 586.931 94.0493 586.15 93.5986Z" fill="#F2C955"/>
    <path d="M595.002 1H651.012V151.415L595.002 183.854V1Z" fill="url(#paint0_linear_653_1314)"/>
    <path d="M595.035 1H538.993V151.798L595.035 184.32V1Z" fill="url(#paint1_linear_653_1314)"/>
    <path d="M344.695 0H401.695V150.451L344.695 182.898V0Z" fill="url(#paint2_linear_653_1314)"/>
    <path d="M344.695 0H288.695V150.451L344.695 182.898V0Z" fill="url(#paint3_linear_653_1314)"/>
    <g clip-path="url(#clip0_653_1314)">
        <path d="M205.922 520.555C205.893 521.068 205.863 521.58 205.811 522.092C205.767 522.538 205.707 522.984 205.643 523.43C205.572 523.939 205.496 524.448 205.402 524.956C205.32 525.405 205.222 525.853 205.122 526.301C205.01 526.798 204.892 527.294 204.757 527.788C204.636 528.237 204.502 528.685 204.363 529.132C204.211 529.625 204.051 530.116 203.875 530.607C203.719 531.046 203.551 531.484 203.377 531.922C203.172 532.438 202.955 532.952 202.726 533.465C202.534 533.895 202.333 534.324 202.125 534.752C201.875 535.263 201.61 535.771 201.336 536.279C201.113 536.691 200.886 537.104 200.647 537.514C200.295 538.118 199.918 538.719 199.53 539.318C199.294 539.682 199.067 540.046 198.818 540.41C198.364 541.072 197.875 541.727 197.378 542.381C197.146 542.687 196.931 542.996 196.689 543.3C196.576 543.442 196.455 543.582 196.341 543.723C195.809 544.377 195.255 545.026 194.679 545.67C194.523 545.845 194.367 546.021 194.211 546.196C193.529 546.94 192.819 547.678 192.081 548.409C191.948 548.541 191.806 548.669 191.672 548.801C191.108 549.346 190.519 549.886 189.923 550.422C189.445 550.852 188.953 551.278 188.455 551.702C187.993 552.095 187.527 552.486 187.049 552.873C186.528 553.293 185.994 553.705 185.453 554.121C184.955 554.502 184.454 554.882 183.937 555.257C183.376 555.664 182.797 556.066 182.214 556.467C181.678 556.836 181.141 557.204 180.587 557.566C179.984 557.961 179.362 558.347 178.738 558.737C177.956 559.22 177.188 559.707 176.375 560.178C174.851 561.062 173.278 561.902 171.683 562.719C171.224 562.954 170.758 563.181 170.295 563.411C169.053 564.023 167.792 564.616 166.513 565.189C166.082 565.382 165.656 565.582 165.221 565.77C163.554 566.492 161.859 567.183 160.136 567.841C159.832 567.956 159.521 568.061 159.215 568.175C157.757 568.715 156.282 569.232 154.789 569.726C154.177 569.928 153.561 570.127 152.943 570.322C152.12 570.581 151.292 570.833 150.459 571.077C149.758 571.285 149.054 571.487 148.347 571.683C147.505 571.916 146.659 572.141 145.808 572.359C145.096 572.542 144.383 572.723 143.665 572.899C142.803 573.107 141.935 573.304 141.066 573.498C140.346 573.659 139.628 573.82 138.904 573.97C138.019 574.154 137.13 574.325 136.238 574.494C135.554 574.625 134.871 574.754 134.182 574.879C132.271 575.216 130.35 575.527 128.414 575.798C128.142 575.836 127.867 575.865 127.594 575.902C125.908 576.129 124.214 576.331 122.511 576.507C121.864 576.574 121.216 576.638 120.567 576.697C119.477 576.798 118.383 576.889 117.287 576.969C116.597 577.021 115.907 577.07 115.215 577.113C114.077 577.183 112.938 577.236 111.797 577.285C111.149 577.312 110.5 577.345 109.85 577.365C108.861 577.396 107.871 577.408 106.882 577.422C106.185 577.432 105.488 577.45 104.791 577.452C103.728 577.452 102.664 577.436 101.601 577.419C100.976 577.41 100.348 577.41 99.7221 577.393C98.7509 577.368 97.7807 577.321 96.8101 577.279C96.1273 577.25 95.4436 577.232 94.7614 577.195C93.711 577.137 92.6638 577.057 91.616 576.981C91.0187 576.938 90.4183 576.907 89.8236 576.857C88.5623 576.753 87.3063 576.624 86.0507 576.493C85.6721 576.454 85.2909 576.424 84.9129 576.382C83.2812 576.2 81.6573 575.994 80.0412 575.766C79.7844 575.73 79.5303 575.684 79.2736 575.646C77.8811 575.443 76.4922 575.23 75.1122 574.991C74.5394 574.892 73.9666 574.776 73.3937 574.671C72.3402 574.477 71.2857 574.285 70.2411 574.072C69.6927 573.959 69.1516 573.833 68.6059 573.715C67.4602 573.467 66.3146 573.214 65.1793 572.942C64.5445 572.79 63.916 572.627 63.2853 572.467C62.2495 572.203 61.2185 571.933 60.1952 571.649C59.6114 571.488 59.0308 571.32 58.4512 571.152C56.8285 570.679 55.2232 570.181 53.6352 569.657C53.3524 569.563 53.0624 569.478 52.7822 569.382C50.9596 568.764 49.1629 568.104 47.3919 567.415C46.6696 567.134 45.9556 566.843 45.2432 566.55C44.6792 566.318 44.1121 566.091 43.5544 565.851C42.754 565.508 41.9671 565.149 41.1803 564.79C40.6652 564.555 40.144 564.327 39.6347 564.085C38.7744 563.677 37.9308 563.25 37.0882 562.823C36.6716 562.613 36.2466 562.411 35.8347 562.195C34.5891 561.543 33.3641 560.872 32.1597 560.18C12.0622 548.587 2.02305 533.373 2.06627 518.18L2.00014 541.407C1.95743 556.599 11.9987 571.814 32.0962 583.404C33.2981 584.097 34.5226 584.768 35.7696 585.418C36.1862 585.635 36.6143 585.839 37.0345 586.052C37.874 586.477 38.714 586.902 39.5717 587.308C40.081 587.55 40.6028 587.777 41.1183 588.014C41.9046 588.373 42.6905 588.731 43.4903 589.074C44.0491 589.314 44.6173 589.542 45.1828 589.775C45.726 589.998 46.2597 590.232 46.8086 590.449C46.9784 590.515 47.157 590.572 47.3294 590.638C49.0999 591.328 50.8965 591.99 52.7234 592.607C53.0009 592.701 53.2847 592.785 53.5633 592.878C55.1541 593.405 56.7639 593.904 58.3928 594.376C58.6626 594.455 58.923 594.548 59.1938 594.625C59.5031 594.712 59.8187 594.786 60.1311 594.873C61.156 595.157 62.1881 595.427 63.226 595.691C63.8545 595.85 64.481 596.013 65.1137 596.165C66.25 596.437 67.3962 596.691 68.545 596.938C68.9751 597.032 69.398 597.139 69.8292 597.228C69.9453 597.252 70.063 597.271 70.1791 597.295C71.2206 597.509 72.2762 597.7 73.3297 597.894C73.9025 597.998 74.4717 598.115 75.0482 598.214C76.4277 598.452 77.8165 598.666 79.209 598.87C79.4538 598.905 79.6949 598.95 79.9381 598.985L79.9756 598.989C81.5927 599.217 83.2166 599.423 84.8472 599.606C85.231 599.648 85.6174 599.678 86.0018 599.718C87.2516 599.849 88.5014 599.978 89.7549 600.082L89.8517 600.092C90.4204 600.139 90.9922 600.166 91.5614 600.208C92.6065 600.283 93.6506 600.364 94.6989 600.42C95.3759 600.457 96.0576 600.476 96.7372 600.505C97.7089 600.546 98.6801 600.593 99.6534 600.619C99.7346 600.619 99.8148 600.626 99.8961 600.628C100.45 600.642 101.005 600.636 101.559 600.645C102.613 600.661 103.668 600.68 104.722 600.677C105.422 600.677 106.12 600.658 106.819 600.648C107.808 600.634 108.798 600.621 109.787 600.591C109.971 600.585 110.152 600.586 110.338 600.58C110.8 600.564 111.26 600.528 111.721 600.51C112.867 600.462 114.013 600.406 115.153 600.338C115.842 600.295 116.528 600.245 117.216 600.195C118.313 600.114 119.406 600.024 120.497 599.922C120.878 599.887 121.263 599.865 121.642 599.827C121.909 599.801 122.172 599.76 122.439 599.732C124.136 599.556 125.827 599.354 127.51 599.129C127.788 599.091 128.067 599.062 128.343 599.025C130.279 598.754 132.2 598.443 134.11 598.106C134.288 598.074 134.47 598.054 134.648 598.02C135.156 597.928 135.656 597.818 136.163 597.722C137.055 597.552 137.946 597.382 138.83 597.198C139.554 597.047 140.271 596.885 140.989 596.725C141.86 596.531 142.729 596.334 143.593 596.126C144.311 595.952 145.023 595.77 145.735 595.586C146.587 595.367 147.434 595.141 148.277 594.91C148.985 594.714 149.688 594.513 150.388 594.306C151.221 594.061 152.048 593.809 152.871 593.551C153.23 593.437 153.6 593.336 153.956 593.22C154.216 593.137 154.461 593.038 154.718 592.953C156.209 592.46 157.682 591.944 159.137 591.405C159.446 591.29 159.762 591.185 160.066 591.068C161.79 590.413 163.485 589.723 165.15 588.997C165.585 588.809 166.009 588.611 166.439 588.418C167.72 587.844 168.981 587.251 170.224 586.638C170.688 586.409 171.152 586.182 171.61 585.947C173.206 585.13 174.779 584.291 176.304 583.406C176.723 583.163 177.137 582.919 177.548 582.672C177.932 582.441 178.287 582.2 178.663 581.966C179.288 581.578 179.913 581.189 180.516 580.794C181.07 580.43 181.606 580.066 182.142 579.695C182.724 579.294 183.304 578.893 183.865 578.485C184.381 578.11 184.882 577.73 185.381 577.35C185.922 576.934 186.459 576.521 186.98 576.101C187.458 575.716 187.921 575.326 188.381 574.935C188.881 574.51 189.375 574.083 189.854 573.651C190.05 573.475 190.265 573.303 190.458 573.125C190.85 572.761 191.223 572.397 191.603 572.033C191.739 571.902 191.88 571.773 192.013 571.641C192.753 570.913 193.463 570.176 194.141 569.43C194.303 569.253 194.458 569.076 194.616 568.899C195.191 568.255 195.744 567.607 196.276 566.954C196.39 566.813 196.51 566.674 196.622 566.532C196.674 566.467 196.732 566.403 196.783 566.337C196.972 566.098 197.13 565.852 197.313 565.612C197.81 564.958 198.299 564.303 198.753 563.642C199.001 563.278 199.228 562.913 199.464 562.549C199.851 561.95 200.229 561.35 200.581 560.745C200.678 560.58 200.793 560.417 200.886 560.252C201.025 560.007 201.136 559.757 201.27 559.51C201.544 559.003 201.809 558.494 202.059 557.983C202.267 557.555 202.468 557.126 202.66 556.696C202.889 556.183 203.106 555.669 203.311 555.153C203.403 554.923 203.515 554.694 203.602 554.463C203.68 554.255 203.735 554.047 203.81 553.839C203.985 553.348 204.146 552.856 204.299 552.363C204.437 551.916 204.571 551.469 204.693 551.02C204.826 550.525 204.944 550.029 205.057 549.533C205.117 549.265 205.199 548.999 205.253 548.73C205.289 548.55 205.305 548.366 205.338 548.188C205.432 547.679 205.508 547.17 205.578 546.659C205.641 546.215 205.702 545.77 205.747 545.324C205.799 544.812 205.829 544.299 205.857 543.786C205.874 543.486 205.913 543.187 205.922 542.888C205.93 542.588 205.935 542.291 205.936 541.993L206.001 518.767C205.998 519.36 205.954 519.957 205.922 520.555Z" fill="#262626"/>
        <path d="M175.895 476.755C215.849 499.795 216.059 537.143 176.374 560.178C136.679 583.218 72.1182 583.218 32.1622 560.178C-7.78346 537.145 -7.99384 499.795 31.7013 476.755C71.3871 453.722 135.949 453.722 175.895 476.755Z" fill="#323232"/>
        <path d="M97.413 523.22L95.343 524.421L93.2598 523.22L95.3298 522.019L97.413 523.22Z" fill="#999999"/>
        <path d="M94.2875 521.418L92.2174 522.619L90.1338 521.418L92.2038 520.216L94.2875 521.418Z" fill="#999999"/>
        <path d="M100.538 525.022L98.4684 526.224L96.3848 525.022L98.4548 523.821L100.538 525.022Z" fill="#999999"/>
        <path d="M96.3915 526.224L94.3214 527.425L92.2378 526.224L94.3078 525.022L96.3915 526.224Z" fill="#999999"/>
        <path d="M66.2382 519.615L64.1681 520.817L62.0845 519.615L64.1545 518.414L66.2382 519.615Z" fill="#999999"/>
        <path d="M91.1615 519.615L89.0914 520.817L87.0078 519.615L89.0779 518.414L91.1615 519.615Z" fill="#999999"/>
        <path d="M87.015 520.818L84.945 522.019L82.8613 520.818L84.9314 519.616L87.015 520.818Z" fill="#999999"/>
        <path d="M90.1408 522.619L88.0712 523.821L85.9863 522.619L88.0564 521.417L90.1408 522.619Z" fill="#999999"/>
        <path d="M93.2665 524.421L91.1964 525.623L89.1128 524.421L91.1828 523.22L93.2665 524.421Z" fill="#999999"/>
        <path d="M89.1195 525.623L87.0494 526.824L84.9658 525.623L87.0359 524.421L89.1195 525.623Z" fill="#999999"/>
        <path d="M87.0758 531.63L85.0058 532.832L65.21 521.417L67.28 520.216L87.0758 531.63Z" fill="#999999"/>
        <path d="M85.9938 523.821L83.9238 525.022L81.8394 523.82L83.9094 522.619L85.9938 523.821Z" fill="#999999"/>
        <path d="M82.868 522.018L80.798 523.22L78.7144 522.018L80.7844 520.817L82.868 522.018Z" fill="#999999"/>
        <path d="M83.8895 519.015L81.8195 520.216L79.7358 519.015L81.8059 517.813L83.8895 519.015Z" fill="#999999"/>
        <path d="M79.7425 520.216L77.6725 521.417L75.5889 520.216L77.6589 519.015L79.7425 520.216Z" fill="#999999"/>
        <path d="M84.9106 516.011L82.8405 517.212L80.7573 516.011L82.827 514.81L84.9106 516.011Z" fill="#999999"/>
        <path d="M80.7634 517.212L78.6937 518.414L76.6089 517.212L78.6789 516.011L80.7634 517.212Z" fill="#999999"/>
        <path d="M76.6169 518.415L74.5468 519.616L72.4624 518.414L74.5325 517.213L76.6169 518.415Z" fill="#999999"/>
        <path d="M73.4907 516.611L71.4206 517.813L69.3374 516.611L71.4071 515.41L73.4907 516.611Z" fill="#999999"/>
        <path d="M70.3656 514.809L68.2955 516.011L66.2119 514.809L68.282 513.608L70.3656 514.809Z" fill="#999999"/>
        <path d="M65.1758 515.41L63.1058 516.612L61.0214 515.41L55.8125 512.406L57.8822 511.205L63.091 514.209L65.1758 515.41Z" fill="#999999"/>
        <path d="M67.2402 513.007L65.1701 514.209L63.0857 513.006L58.9185 510.604L60.9885 509.402L65.1558 511.805L67.2402 513.007Z" fill="#999999"/>
        <path d="M68.2608 510.003L66.1908 511.204L62.0239 508.801L64.0936 507.6L68.2608 510.003Z" fill="#999999"/>
        <path d="M69.2821 507L67.212 508.201L65.1284 507L67.1985 505.798L69.2821 507Z" fill="#999999"/>
        <path d="M77.6376 515.41L75.5675 516.611L73.4839 515.41L75.5539 514.208L77.6376 515.41Z" fill="#999999"/>
        <path d="M74.5126 513.608L72.4425 514.809L70.3589 513.608L72.4289 512.406L74.5126 513.608Z" fill="#999999"/>
        <path d="M78.6591 512.406L76.5895 513.608L74.5059 512.406L76.5759 511.205L78.6591 512.406Z" fill="#999999"/>
        <path d="M75.5336 510.604L73.4636 511.805L71.3804 510.604L73.45 509.403L75.5336 510.604Z" fill="#999999"/>
        <path d="M71.3874 511.806L69.3173 513.007L67.2329 511.805L69.3026 510.604L71.3874 511.806Z" fill="#999999"/>
        <path d="M68.3016 517.213L66.2316 518.414L64.1479 517.213L66.218 516.011L68.3016 517.213Z" fill="#999999"/>
        <path d="M74.5529 520.817L72.4829 522.019L70.3984 520.817L72.4681 519.615L74.5529 520.817Z" fill="#999999"/>
        <path d="M71.4266 519.015L69.3566 520.216L67.2729 519.015L69.343 517.813L71.4266 519.015Z" fill="#999999"/>
        <path d="M77.6781 522.619L75.608 523.821L73.5244 522.619L75.5945 521.418L77.6781 522.619Z" fill="#999999"/>
        <path d="M80.8036 524.421L78.7335 525.623L76.6499 524.421L78.72 523.22L80.8036 524.421Z" fill="#999999"/>
        <path d="M83.9294 526.224L81.8597 527.425L79.7749 526.224L81.8449 525.022L83.9294 526.224Z" fill="#999999"/>
        <path d="M87.055 528.026L84.985 529.228L82.9014 528.026L84.9714 526.825L87.055 528.026Z" fill="#999999"/>
        <path d="M90.1805 529.829L88.1105 531.03L86.0269 529.829L88.0969 528.627L90.1805 529.829Z" fill="#999999"/>
        <path d="M93.3068 531.631L91.2368 532.833L89.1523 531.63L91.2224 530.429L93.3068 531.631Z" fill="#999999"/>
        <path d="M112 531.631L109.93 532.832L105.762 530.429L107.832 529.228L112 531.631Z" fill="#999999"/>
        <path d="M105.768 531.63L103.698 532.832L101.614 531.63L103.684 530.429L105.768 531.63Z" fill="#999999"/>
        <path d="M108.894 533.433L106.824 534.634L104.74 533.433L106.81 532.231L108.894 533.433Z" fill="#999999"/>
        <path d="M105.789 535.235L103.719 536.437L100.593 534.634L102.663 533.433L105.789 535.235Z" fill="#999999"/>
        <path d="M102.684 537.038L100.613 538.239L95.4038 535.235L97.4739 534.034L102.684 537.038Z" fill="#999999"/>
        <path d="M90.2013 533.433L88.1313 534.634L86.0469 533.433L88.1169 532.231L90.2013 533.433Z" fill="#999999"/>
        <path d="M93.3271 535.235L91.2571 536.437L89.1738 535.235L91.2435 534.034L93.3271 535.235Z" fill="#999999"/>
        <path d="M96.432 533.433L94.3619 534.634L92.2783 533.433L94.3484 532.232L96.432 533.433Z" fill="#999999"/>
        <path d="M101.621 532.832L99.5514 534.033L97.4678 532.832L99.5378 531.63L101.621 532.832Z" fill="#999999"/>
        <path d="M103.664 526.825L101.594 528.026L99.5107 526.825L101.581 525.624L103.664 526.825Z" fill="#999999"/>
        <path d="M99.5173 528.027L97.4472 529.228L95.3628 528.026L97.4328 526.825L99.5173 528.027Z" fill="#999999"/>
        <path d="M106.789 528.628L104.719 529.829L102.636 528.628L104.705 527.426L106.789 528.628Z" fill="#999999"/>
        <path d="M95.3708 529.228L93.3007 530.429L91.2163 529.227L93.286 528.025L95.3708 529.228Z" fill="#999999"/>
        <path d="M102.643 529.828L100.573 531.029L98.4893 529.828L100.559 528.627L102.643 529.828Z" fill="#999999"/>
        <path d="M98.496 531.03L96.4259 532.231L94.3423 531.03L96.4123 529.828L98.496 531.03Z" fill="#999999"/>
        <path d="M92.2445 527.425L90.1744 528.626L88.0908 527.425L90.1609 526.224L92.2445 527.425Z" fill="#999999"/>
        <path d="M56.8612 514.209L54.7911 515.41L52.7075 514.209L54.7776 513.007L56.8612 514.209Z" fill="#999999"/>
        <path d="M59.9868 516.011L57.9167 517.212L55.8335 516.011L57.9031 514.809L59.9868 516.011Z" fill="#999999"/>
        <path d="M63.1132 517.813L61.0431 519.015L58.9595 517.813L61.0295 516.612L63.1132 517.813Z" fill="#999999"/>
        <path d="M96.4521 537.037L94.3825 538.239L92.2988 537.037L94.3689 535.836L96.4521 537.037Z" fill="#999999"/>
        <path d="M99.5783 538.84L97.5083 540.041L95.4238 538.839L97.4939 537.638L99.5783 538.84Z" fill="#999999"/>
        <path d="M72.4076 508.801L70.3375 510.003L68.2539 508.801L70.324 507.6L72.4076 508.801Z" fill="#999999"/>
        <path d="M81.7845 514.208L79.7145 515.41L77.6309 514.208L79.7009 513.007L81.7845 514.208Z" fill="#999999"/>
        <path d="M88.0356 517.813L85.966 519.015L83.8823 517.813L85.9524 516.612L88.0356 517.813Z" fill="#999999"/>
        <path d="M134.671 491.835C134.671 491.2 134.675 490.539 134.677 489.866L134.682 487.717C134.686 486.639 134.689 485.533 134.692 484.409L134.695 483.421C134.697 482.701 134.699 481.98 134.701 481.256L134.707 479.065C134.707 478.737 134.708 478.409 134.71 478.082L134.719 474.766C134.722 474.038 134.724 473.327 134.726 472.634L134.731 470.648C134.727 470.606 134.721 470.564 134.711 470.523C134.708 470.482 134.701 470.44 134.691 470.4C134.672 470.34 134.647 470.282 134.616 470.226C134.6 470.187 134.581 470.149 134.56 470.113C134.514 470.048 134.464 469.988 134.409 469.932C134.38 469.902 134.36 469.871 134.327 469.841C134.225 469.748 134.114 469.666 133.995 469.596C133.866 469.519 133.73 469.453 133.59 469.398C133.489 469.358 133.385 469.323 133.278 469.294C133.247 469.285 133.215 469.279 133.184 469.271L133.105 469.252C133.071 469.244 133.039 469.234 133.005 469.227C132.92 469.21 132.833 469.195 132.744 469.182C132.725 469.182 132.706 469.178 132.687 469.176C132.669 469.173 132.649 469.172 132.63 469.17C132.583 469.164 132.538 469.158 132.492 469.154C132.406 469.147 132.321 469.143 132.235 469.141C132.22 469.141 132.205 469.141 132.19 469.141H132.132C132.08 469.141 132.023 469.141 131.97 469.141C131.872 469.144 131.776 469.15 131.68 469.16H131.675L131.656 469.162C131.552 469.173 131.448 469.187 131.348 469.205C131.322 469.21 131.298 469.219 131.273 469.224C131.185 469.241 131.1 469.264 131.015 469.288C130.963 469.302 130.911 469.31 130.859 469.326C130.842 469.332 130.827 469.341 130.81 469.348C130.64 469.403 130.475 469.474 130.318 469.559L130.257 469.595C130.204 469.625 130.17 469.661 130.124 469.693C130.072 469.731 130.011 469.766 129.964 469.807L129.94 469.829C129.935 469.833 129.928 469.837 129.923 469.842C129.865 469.895 129.812 469.952 129.763 470.013C129.755 470.024 129.749 470.035 129.742 470.046C129.734 470.057 129.725 470.07 129.716 470.082C129.707 470.094 129.699 470.108 129.691 470.121C129.683 470.134 129.668 470.153 129.659 470.169C129.632 470.216 129.609 470.265 129.589 470.316C129.589 470.322 129.586 470.328 129.584 470.335C129.582 470.341 129.58 470.351 129.577 470.359C129.574 470.367 129.571 470.379 129.568 470.389C129.565 470.399 129.561 470.411 129.559 470.422C129.556 470.433 129.55 470.449 129.547 470.463C129.537 470.512 129.532 470.561 129.53 470.611V470.635L129.47 491.834C129.483 491.917 129.497 492 129.51 492.082C129.529 492.142 129.554 492.2 129.585 492.256C129.602 492.295 129.621 492.333 129.642 492.37C129.687 492.434 129.738 492.494 129.793 492.55C129.821 492.58 129.842 492.612 129.874 492.641C129.976 492.734 130.087 492.816 130.206 492.887C130.335 492.963 130.471 493.029 130.611 493.084C130.712 493.124 130.817 493.159 130.926 493.188C130.956 493.197 130.989 493.203 131.02 493.211L131.099 493.231C131.132 493.239 131.165 493.248 131.199 493.255C131.284 493.272 131.37 493.287 131.459 493.3C131.478 493.3 131.498 493.304 131.516 493.306L131.575 493.313C131.621 493.318 131.666 493.324 131.713 493.328C131.797 493.335 131.883 493.339 131.969 493.342C131.984 493.342 131.999 493.342 132.015 493.342C132.03 493.342 132.052 493.342 132.071 493.342C132.123 493.342 132.18 493.342 132.234 493.342C132.331 493.338 132.428 493.332 132.524 493.322H132.53H132.548C132.652 493.311 132.756 493.297 132.856 493.279C132.882 493.274 132.906 493.266 132.931 493.26C133.018 493.243 133.1 493.221 133.184 493.198L133.211 493.191C133.255 493.179 133.301 493.172 133.344 493.158C133.362 493.152 133.376 493.143 133.393 493.137C133.563 493.081 133.728 493.01 133.885 492.925L133.947 492.89C133.999 492.859 134.034 492.824 134.079 492.791C134.132 492.753 134.193 492.718 134.239 492.678C134.248 492.671 134.255 492.663 134.263 492.656C134.272 492.648 134.276 492.647 134.28 492.643C134.338 492.59 134.391 492.532 134.44 492.471C134.449 492.461 134.454 492.449 134.462 492.439C134.471 492.428 134.479 492.414 134.487 492.402L134.513 492.364C134.523 492.348 134.536 492.332 134.545 492.315C134.572 492.268 134.595 492.219 134.614 492.168C134.614 492.162 134.617 492.156 134.619 492.15C134.622 492.144 134.624 492.133 134.626 492.125C134.629 492.117 134.632 492.105 134.635 492.095C134.638 492.085 134.642 492.073 134.644 492.062C134.647 492.051 134.653 492.036 134.656 492.022C134.666 491.973 134.672 491.923 134.673 491.873V491.85L134.671 491.835Z" fill="#262626"/>
        <path d="M183.948 503.289C183.569 503.271 183.201 503.155 182.88 502.953L81.6514 444.581C80.8744 444.069 80.2273 443.382 79.7612 442.577C79.295 441.772 79.0226 440.869 78.9653 439.941L79.1361 379.894C79.1361 378.908 79.5569 378.32 80.2547 378.32C80.6328 378.339 80.9998 378.454 81.3202 378.655L182.546 437.027C183.324 437.54 183.971 438.227 184.437 439.033C184.903 439.839 185.175 440.742 185.232 441.672L185.062 501.718C185.061 502.701 184.644 503.289 183.948 503.289Z" fill="#5B5B5B"/>
        <path d="M80.2549 378.841C80.5419 378.858 80.8194 378.95 81.06 379.107L182.286 437.477C182.988 437.94 183.572 438.56 183.993 439.288C184.414 440.016 184.66 440.831 184.712 441.67L184.542 501.716C184.542 502.109 184.461 502.769 183.946 502.769C183.659 502.748 183.381 502.657 183.138 502.502L81.912 444.132C81.2105 443.669 80.6262 443.05 80.2052 442.323C79.7843 441.596 79.5382 440.782 79.4863 439.944L79.6571 379.897C79.6571 379.502 79.7373 378.841 80.2549 378.841ZM80.2549 377.801C79.2863 377.801 78.6198 378.567 78.6161 379.894L78.4453 439.941C78.4993 440.962 78.7944 441.955 79.3065 442.84C79.8186 443.725 80.5332 444.477 81.3917 445.033L182.619 503.404C183.019 503.652 183.477 503.792 183.948 503.809C184.915 503.809 185.581 503.045 185.585 501.72L185.755 441.673C185.702 440.651 185.407 439.657 184.894 438.771C184.382 437.885 183.668 437.133 182.809 436.576L81.5808 378.206C81.1817 377.958 80.7244 377.818 80.2544 377.801H80.2549Z" fill="#262626"/>
        <path d="M132.397 491.66C144.01 498.356 144.073 509.255 132.53 515.954L130.286 514.66C140.597 508.679 140.54 498.939 130.164 492.956C119.788 486.973 102.952 486.971 92.6434 492.956L90.3989 491.662C101.939 484.961 120.778 484.961 132.397 491.66Z" fill="#262626"/>
    </g>
    <defs>
        <linearGradient id="paint0_linear_653_1314" x1="623.782" y1="183.19" x2="622.238" y2="1.07072" gradientUnits="userSpaceOnUse">
            <stop stop-color="#F2F2F2" stop-opacity="0.1"/>
            <stop offset="1" stop-color="#F2F2F2" stop-opacity="0"/>
        </linearGradient>
        <linearGradient id="paint1_linear_653_1314" x1="566.238" y1="183.654" x2="567.79" y2="1.07096" gradientUnits="userSpaceOnUse">
            <stop stop-color="#F2F2F2" stop-opacity="0.2"/>
            <stop offset="1" stop-color="#F2F2F2" stop-opacity="0"/>
        </linearGradient>
        <linearGradient id="paint2_linear_653_1314" x1="373.983" y1="182.234" x2="372.465" y2="0.0702905" gradientUnits="userSpaceOnUse">
            <stop stop-color="#F2F2F2" stop-opacity="0.1"/>
            <stop offset="1" stop-color="#F2F2F2" stop-opacity="0"/>
        </linearGradient>
        <linearGradient id="paint3_linear_653_1314" x1="315.92" y1="182.234" x2="317.466" y2="0.0707545" gradientUnits="userSpaceOnUse">
            <stop stop-color="#F2F2F2" stop-opacity="0.2"/>
            <stop offset="1" stop-color="#F2F2F2" stop-opacity="0"/>
        </linearGradient>
        <clipPath id="clip0_653_1314">
            <rect width="204" height="222.876" fill="white" transform="translate(2 377.801)"/>
        </clipPath>
    </defs>
</svg>
