<svg width="1038" height="918" viewBox="0 0 1038 918" fill="none" xmlns="http://www.w3.org/2000/svg">
<path d="M807.915 429.678L724.079 478.357L639.695 429.679L723.531 381L807.915 429.678Z" fill="#171717"/>
<path d="M933.915 340.678L850.079 389.357L765.695 340.679L849.531 292L933.915 340.678Z" fill="#171717"/>
<path d="M684.915 340.678L601.079 389.357L516.695 340.679L600.531 292L684.915 340.678Z" fill="#171717"/>
<path d="M538.758 416.208L1 742.381V918H0V741.816L538.242 415.352L538.758 416.208ZM607 739.812V918H606V740.386L339.748 585.117L340.252 584.254L607 739.812ZM303 908.505H302V569.694H303V908.505ZM899 759.295V895.513H898V759.881L421.756 493.173L422.244 492.301L899 759.295Z" fill="#353535"/>
<path d="M428.829 531.999C468.783 555.04 468.993 592.388 429.308 615.422C389.613 638.463 325.052 638.463 285.096 615.422C245.151 592.39 244.94 555.04 284.635 531.999C324.321 508.967 388.883 508.967 428.829 531.999Z" fill="#151515"/>
<path d="M726.524 520.721C721.52 520.725 716.603 519.413 712.267 516.917L421.348 349.189C418.813 347.728 416.708 345.627 415.243 343.097C413.778 340.567 413.004 337.697 413 334.774C412.996 331.852 413.761 328.979 415.219 326.445C416.677 323.911 418.776 321.804 421.307 320.336L710.15 152.712C714.491 150.2 719.419 148.874 724.436 148.867C729.454 148.86 734.385 150.172 738.734 152.671L1029.65 320.4C1032.19 321.861 1034.29 323.962 1035.76 326.492C1037.22 329.022 1038 331.893 1038 334.815C1038 337.738 1037.24 340.61 1035.78 343.144C1034.32 345.678 1032.22 347.785 1029.69 349.254L740.85 516.877C736.498 519.399 731.555 520.725 726.524 520.721ZM724.477 149.942C719.635 149.939 714.879 151.215 710.69 153.641L421.848 321.266C419.481 322.64 417.517 324.611 416.153 326.981C414.789 329.352 414.073 332.039 414.077 334.773C414.081 337.507 414.805 340.192 416.175 342.559C417.546 344.925 419.515 346.891 421.886 348.258L712.806 515.987C716.99 518.391 721.735 519.653 726.563 519.646C731.391 519.639 736.131 518.363 740.309 515.947L1029.15 348.323C1031.52 346.949 1033.49 344.978 1034.85 342.608C1036.21 340.237 1036.93 337.55 1036.92 334.815C1036.92 332.081 1036.2 329.396 1034.83 327.03C1033.46 324.663 1031.49 322.697 1029.11 321.331L738.196 153.603C734.024 151.201 729.293 149.939 724.477 149.942Z" fill="#353535"/>
<path d="M809.65 151.836L809.413 235.648L725.577 284.3L725.815 200.489L809.65 151.836Z" fill="#262626"/>
<path d="M725.815 200.489L725.577 284.3L641.193 235.649L641.431 151.836L725.815 200.489Z" fill="#404040"/>
<path d="M809.65 151.837L725.815 200.489L641.431 151.837L725.267 103.184L809.65 151.837Z" fill="#171717"/>
<path d="M809.65 61.6818L809.413 145.495L725.577 194.147L725.815 110.334L809.65 61.6818Z" fill="#262626"/>
<path d="M725.815 110.334L725.577 194.147L641.193 145.496L641.431 61.6829L725.815 110.334Z" fill="#404040"/>
<path d="M809.65 61.6818L725.815 110.334L641.431 61.6829L725.267 13.0307L809.65 61.6818Z" fill="#323232"/>
<path d="M934.312 240.297L934.074 324.11L850.239 372.762L850.477 288.949L934.312 240.297Z" fill="#262626"/>
<path d="M850.477 288.949L850.239 372.762L765.854 324.111L766.093 240.298L850.477 288.949Z" fill="#404040"/>
<path d="M934.312 240.297L850.477 288.949L766.093 240.298L849.929 191.646L934.312 240.297Z" fill="#171717"/>
<path d="M934.312 150.149L934.074 233.962L850.239 282.614L850.477 198.801L934.312 150.149Z" fill="#262626"/>
<path d="M850.477 198.801L850.239 282.614L765.854 233.963L766.093 150.15L850.477 198.801Z" fill="#404040"/>
<path d="M934.312 150.149L850.477 198.801L766.093 150.15L849.929 101.498L934.312 150.149Z" fill="#323232"/>
<path d="M684.457 240.297L684.219 324.11L600.384 372.762L600.622 288.949L684.457 240.297Z" fill="#262626"/>
<path d="M600.622 288.949L600.384 372.762L516 324.111L516.238 240.298L600.622 288.949Z" fill="#404040"/>
<path d="M684.457 240.297L600.622 288.949L516.238 240.298L600.073 191.646L684.457 240.297Z" fill="#171717"/>
<path d="M703.979 128.443V134.66L661.626 110.233V104.027L703.979 128.443Z" fill="#5B5B5B"/>
<path d="M703.979 148.933V155.14L661.626 130.723V124.517L703.979 148.933Z" fill="#5B5B5B"/>
<path d="M703.979 218.601V224.807L661.626 200.38V194.174L703.979 218.601Z" fill="#5B5B5B"/>
<path d="M703.979 239.081V245.287L661.626 220.87V214.664L703.979 239.081Z" fill="#F2F2F2"/>
<path d="M684.457 150.149L684.219 233.962L600.384 282.614L600.622 198.801L684.457 150.149Z" fill="#262626"/>
<path d="M600.622 198.801L600.384 282.614L516 233.963L516.238 150.15L600.622 198.801Z" fill="#404040"/>
<path d="M684.457 150.149L600.622 198.801L516.238 150.15L600.073 101.498L684.457 150.149Z" fill="#323232"/>
<path d="M829.342 218.563V224.78L786.99 200.353V194.147L829.342 218.563Z" fill="#5B5B5B"/>
<path d="M829.342 239.054V245.26L786.99 220.844V214.637L829.342 239.054Z" fill="#5B5B5B"/>
<path d="M829.342 308.721V314.927L786.99 290.5V284.294L829.342 308.721Z" fill="#5B5B5B"/>
<path d="M829.342 329.201V335.407L786.99 310.991V304.784L829.342 329.201Z" fill="#5B5B5B"/>
<path d="M809.117 328.762L808.879 412.575L725.043 461.227L725.281 377.414L809.117 328.762Z" fill="#262626"/>
<path d="M725.281 377.414L725.043 461.227L640.66 412.576L640.897 328.763L725.281 377.414Z" fill="#404040"/>
<path d="M809.117 328.762L725.281 377.414L640.896 328.763L724.732 280.111L809.117 328.762Z" fill="#171717"/>
<path d="M809.117 238.614L808.879 322.427L725.043 371.079L725.281 287.266L809.117 238.614Z" fill="#262626"/>
<path d="M725.281 287.266L725.043 371.079L640.66 322.428L640.897 238.615L725.281 287.266Z" fill="#404040"/>
<path d="M809.117 238.614L725.281 287.266L640.896 238.615L724.732 189.963L809.117 238.614Z" fill="#323232"/>
<path d="M578.615 215.24V221.457L536.263 197.029V190.823L578.615 215.24Z" fill="#5B5B5B"/>
<path d="M578.615 235.73V241.936L536.263 217.52V211.314L578.615 235.73Z" fill="#5B5B5B"/>
<path d="M578.615 305.398V311.604L536.263 287.177V280.97L578.615 305.398Z" fill="#5B5B5B"/>
<path d="M578.615 325.877V332.084L536.263 307.667V301.461L578.615 325.877Z" fill="#5B5B5B"/>
<path d="M705.633 307.03V313.247L663.281 288.82V282.614L705.633 307.03Z" fill="#5B5B5B"/>
<path d="M705.633 327.521V333.727L663.281 309.311V303.104L705.633 327.521Z" fill="#5B5B5B"/>
<path d="M705.633 397.188V403.395L663.281 378.967V372.761L705.633 397.188Z" fill="#5B5B5B"/>
<path d="M705.633 417.668V423.874L663.281 399.458V393.251L705.633 417.668Z" fill="#5B5B5B"/>
<path d="M849.591 184.65C848.36 184.652 847.15 184.329 846.083 183.714L795.118 154.33C794.382 153.905 793.771 153.296 793.346 152.561C792.921 151.827 792.696 150.994 792.695 150.145C792.694 149.297 792.916 148.463 793.339 147.728C793.762 146.992 794.371 146.38 795.106 145.954L845.693 116.596C846.762 115.978 847.974 115.652 849.209 115.65C850.443 115.648 851.657 115.971 852.727 116.585L903.693 145.97C904.429 146.394 905.04 147.004 905.465 147.739C905.891 148.473 906.115 149.307 906.116 150.155C906.117 151.004 905.895 151.838 905.472 152.573C905.049 153.309 904.439 153.921 903.704 154.347L853.117 183.705C852.046 184.325 850.83 184.651 849.591 184.65ZM849.219 116.725C848.171 116.724 847.141 117 846.234 117.526L795.646 146.883C795.075 147.215 794.601 147.691 794.272 148.263C793.943 148.835 793.77 149.484 793.771 150.144C793.772 150.803 793.947 151.452 794.278 152.023C794.608 152.594 795.084 153.068 795.656 153.398L846.621 182.779C847.527 183.299 848.554 183.572 849.599 183.57C850.644 183.569 851.67 183.293 852.575 182.77L903.169 153.414C903.741 153.083 904.215 152.607 904.544 152.035C904.874 151.462 905.046 150.814 905.045 150.154C905.044 149.494 904.87 148.845 904.539 148.274C904.208 147.703 903.732 147.228 903.159 146.898L852.194 117.515C851.289 116.995 850.263 116.722 849.219 116.725Z" fill="#171717"/>
<path d="M726.001 273.114C724.77 273.116 723.56 272.793 722.493 272.178L671.525 242.798C670.789 242.374 670.178 241.764 669.753 241.029C669.327 240.295 669.103 239.461 669.102 238.613C669.1 237.764 669.323 236.93 669.746 236.195C670.169 235.459 670.779 234.847 671.513 234.421L722.101 205.063C723.17 204.446 724.383 204.12 725.618 204.119C726.853 204.117 728.066 204.44 729.137 205.056L780.098 234.435C780.834 234.859 781.445 235.469 781.871 236.204C782.296 236.938 782.521 237.772 782.522 238.62C782.523 239.469 782.301 240.302 781.877 241.038C781.454 241.774 780.845 242.386 780.11 242.812L729.522 272.169C728.453 272.788 727.238 273.114 726.001 273.114ZM725.627 205.189C724.579 205.189 723.55 205.465 722.643 205.99L672.056 235.348C671.485 235.68 671.011 236.155 670.682 236.728C670.352 237.3 670.18 237.948 670.18 238.608C670.181 239.268 670.356 239.916 670.687 240.487C671.017 241.059 671.493 241.533 672.065 241.863L723.032 271.248C723.938 271.768 724.965 272.041 726.01 272.039C727.055 272.038 728.082 271.761 728.986 271.238L779.574 241.881C780.145 241.55 780.619 241.074 780.949 240.502C781.278 239.929 781.451 239.281 781.45 238.621C781.449 237.961 781.274 237.312 780.943 236.741C780.612 236.17 780.136 235.695 779.564 235.365L728.599 205.982C727.695 205.462 726.671 205.188 725.627 205.189Z" fill="#171717"/>
<path d="M600.415 183.681C599.184 183.682 597.973 183.36 596.906 182.745L545.94 153.361C545.205 152.936 544.594 152.326 544.168 151.592C543.743 150.858 543.519 150.024 543.518 149.176C543.516 148.328 543.738 147.494 544.162 146.758C544.585 146.023 545.194 145.411 545.928 144.985L596.516 115.627C597.585 115.009 598.797 114.683 600.032 114.681C601.267 114.68 602.48 115.002 603.551 115.617L654.516 145.001C655.252 145.425 655.864 146.035 656.289 146.769C656.715 147.504 656.939 148.337 656.941 149.186C656.942 150.034 656.72 150.868 656.297 151.604C655.873 152.34 655.264 152.951 654.529 153.378L654.258 152.913L654.529 153.378L603.941 182.736C602.87 183.356 601.653 183.682 600.415 183.681ZM600.043 115.756C598.994 115.755 597.964 116.032 597.058 116.557L546.472 145.914C545.901 146.246 545.427 146.721 545.098 147.294C544.769 147.866 544.596 148.514 544.597 149.174C544.597 149.834 544.772 150.482 545.103 151.053C545.433 151.625 545.909 152.099 546.481 152.429L597.447 181.815C598.353 182.335 599.38 182.608 600.425 182.606C601.47 182.605 602.497 182.328 603.401 181.805L653.988 152.446C654.559 152.115 655.033 151.639 655.362 151.067C655.691 150.495 655.864 149.846 655.863 149.186C655.862 148.526 655.687 147.878 655.356 147.307C655.026 146.736 654.55 146.261 653.978 145.931L603.012 116.547C602.109 116.028 601.085 115.755 600.043 115.756Z" fill="#171717"/>
<path d="M726.001 95.7615C724.77 95.7626 723.56 95.4394 722.493 94.8247L671.525 65.4443C670.789 65.02 670.178 64.4099 669.753 63.6754C669.328 62.9408 669.103 62.1075 669.102 61.259C669.101 60.4104 669.323 59.5766 669.747 58.8409C670.17 58.1052 670.78 57.4936 671.514 57.0674L722.101 27.7107C723.17 27.0923 724.382 26.7658 725.617 26.7639C726.852 26.762 728.066 27.0848 729.137 27.6999L780.098 57.0846C780.834 57.5089 781.445 58.1189 781.87 58.8533C782.295 59.5877 782.52 60.4208 782.521 61.2691C782.522 62.1175 782.3 62.9512 781.877 63.6868C781.454 64.4224 780.844 65.0341 780.11 65.4604L729.527 94.8182C728.455 95.4381 727.239 95.7636 726.001 95.7615ZM725.628 27.8355C724.58 27.8345 723.55 28.111 722.644 28.6368L672.056 57.9968C671.485 58.3283 671.011 58.804 670.682 59.3761C670.352 59.9483 670.179 60.5968 670.18 61.2567C670.181 61.9166 670.356 62.5647 670.687 63.136C671.017 63.7073 671.493 64.1817 672.065 64.5117L723.032 93.8964C723.937 94.417 724.965 94.6903 726.01 94.6887C727.055 94.6872 728.081 94.411 728.986 93.8878L779.573 64.5311C780.145 64.1995 780.619 63.7237 780.948 63.1515C781.277 62.5793 781.45 61.9307 781.449 61.2708C781.448 60.6109 781.273 59.9629 780.942 59.3916C780.611 58.8204 780.136 58.3461 779.564 58.0161L728.599 28.6314C727.696 28.1116 726.671 27.8382 725.628 27.8387V27.8355Z" fill="#171717"/>
<path d="M633.834 82.9338C633.834 82.7348 633.819 82.5347 633.806 82.3346C633.806 82.2432 633.792 82.1507 633.784 82.0593L633.774 81.941C633.774 81.8711 633.765 81.8012 633.758 81.7259C633.739 81.5244 633.716 81.3221 633.69 81.1192C633.665 80.9127 633.634 80.7051 633.602 80.4964V80.4781V80.4523C633.572 80.2587 633.539 80.0647 633.502 79.8704C633.461 79.6553 633.418 79.4402 633.371 79.2251C633.353 79.1476 633.334 79.0702 633.317 78.9938L633.284 78.8583C633.263 78.7636 633.242 78.67 633.219 78.5754C633.165 78.356 633.107 78.1365 633.045 77.9171C633.001 77.7568 632.953 77.5944 632.905 77.4363C632.896 77.4062 632.888 77.3761 632.878 77.346C632.869 77.3158 632.862 77.29 632.854 77.2621C632.788 77.0469 632.72 76.8318 632.648 76.6167C632.576 76.4016 632.504 76.195 632.427 75.9842C632.413 75.9455 632.398 75.9057 632.383 75.867L632.347 75.7713C632.298 75.64 632.249 75.5077 632.199 75.3776C632.12 75.1754 632.039 74.9753 631.956 74.7742C631.896 74.63 631.832 74.4859 631.77 74.3439L631.738 74.2686L631.702 74.1847C631.614 73.9847 631.523 73.7853 631.429 73.5867C631.326 73.3716 631.22 73.1489 631.112 72.9316L631.06 72.8327C631.039 72.7897 631.016 72.7466 630.993 72.7036C630.905 72.5304 630.818 72.3583 630.726 72.1862C630.612 71.9711 630.489 71.7625 630.37 71.5516C630.308 71.4441 630.249 71.3365 630.186 71.2289C630.161 71.187 630.138 71.144 630.113 71.102C630.006 70.917 629.885 70.7417 629.773 70.5642C629.608 70.2964 629.45 70.0264 629.272 69.7672C629.245 69.7252 629.22 69.6811 629.192 69.6403C628.94 69.2627 628.679 68.8873 628.41 68.5281V68.5216C628.23 68.2775 628.045 68.0354 627.858 67.7977C627.706 67.6048 627.552 67.4145 627.396 67.2266L627.386 67.2158L627.379 67.2061C627.221 67.0168 627.061 66.8297 626.899 66.6458C626.738 66.4618 626.576 66.2865 626.416 66.1079C626.39 66.08 626.362 66.0531 626.336 66.0251L626.252 65.938C626.138 65.8165 626.024 65.6949 625.907 65.5766C625.735 65.4002 625.56 65.2277 625.384 65.0592C625.33 65.0076 625.276 64.9592 625.221 64.9086L625.097 64.7935C625.011 64.7129 624.925 64.6311 624.838 64.5526C624.655 64.3884 624.471 64.2278 624.285 64.0707C624.205 64.004 624.124 63.9395 624.043 63.8728L623.917 63.7653C623.855 63.7158 623.795 63.6642 623.734 63.6158C623.553 63.4738 623.372 63.335 623.189 63.2006C623.057 63.1048 622.926 63.0123 622.793 62.9198L622.717 62.866L622.649 62.8176C622.475 62.6986 622.299 62.5828 622.122 62.4702C621.946 62.3576 621.771 62.2501 621.598 62.1475L621.475 62.0765L595.15 46.8996C595.018 46.8233 594.886 46.7491 594.755 46.6781C594.585 46.587 594.415 46.4992 594.246 46.4145C594.138 46.3608 594.03 46.3124 593.922 46.2618L593.841 46.2231C593.808 46.2091 593.776 46.1919 593.745 46.1779C593.577 46.1062 593.411 46.0345 593.247 45.9628C593.079 45.8961 592.912 45.8326 592.746 45.7745L592.661 45.7466L592.573 45.7294C592.46 45.6917 592.348 45.653 592.236 45.6218C592.063 45.5702 591.892 45.5232 591.723 45.4809C591.641 45.4605 591.56 45.4443 591.48 45.4261L591.372 45.4024C591.319 45.3916 591.264 45.3776 591.215 45.3669C591.03 45.3314 590.849 45.3013 590.67 45.2776C590.562 45.2626 590.454 45.255 590.346 45.2443L590.231 45.2324C590.195 45.2324 590.158 45.2238 590.123 45.2217C589.926 45.2077 589.731 45.2012 589.54 45.2023C589.455 45.2023 589.373 45.2109 589.289 45.2142L589.095 45.2228C589.029 45.2228 588.96 45.2228 588.896 45.2324C588.655 45.2553 588.416 45.2912 588.179 45.34H588.166C588.114 45.3508 588.065 45.3701 588.013 45.382C587.775 45.4329 587.541 45.4976 587.31 45.5756C587.292 45.582 587.276 45.5928 587.257 45.6003C586.927 45.7183 586.608 45.8655 586.304 46.0402L571.117 54.8506C571.421 54.6765 571.739 54.5293 572.069 54.4106C572.315 54.3233 572.567 54.2515 572.823 54.1955C572.876 54.1837 572.924 54.1633 572.977 54.1536C573.283 54.0933 573.594 54.0541 573.905 54.0363C573.97 54.0363 574.035 54.0299 574.099 54.0267C574.414 54.0144 574.73 54.0209 575.044 54.046L575.159 54.0578C575.505 54.0911 575.849 54.1439 576.189 54.216L576.297 54.2396C576.666 54.3222 577.031 54.4242 577.39 54.5451L577.466 54.5698C577.853 54.7021 578.247 54.8603 578.646 55.042L578.727 55.0797C579.131 55.2679 579.542 55.4777 579.958 55.7175L606.282 70.8955C606.702 71.1379 607.117 71.4007 607.525 71.6839L607.6 71.7366C607.979 72.0027 608.355 72.2848 608.725 72.5831L608.849 72.6842C609.208 72.9775 609.56 73.2848 609.906 73.606L610.028 73.7201C610.378 74.0506 610.722 74.3938 611.06 74.7494L611.143 74.8366C611.502 75.2195 611.852 75.6157 612.193 76.0251L612.205 76.0391C612.554 76.4586 612.891 76.8888 613.218 77.3298V77.3352C613.516 77.7386 613.802 78.1537 614.079 78.5743C614.253 78.8357 614.417 79.1057 614.581 79.3735C614.719 79.5961 614.861 79.8156 614.993 80.0414C615.056 80.149 615.116 80.2566 615.177 80.3695C615.392 80.7503 615.608 81.1332 615.801 81.5215C615.823 81.5645 615.846 81.6065 615.867 81.6495C616.107 82.1238 616.334 82.6036 616.545 83.0865L616.577 83.1607C616.784 83.6354 616.977 84.1123 617.155 84.5913L617.19 84.6859C617.371 85.1771 617.537 85.6698 617.687 86.1638C617.695 86.1929 617.703 86.2219 617.712 86.251C617.854 86.7253 617.981 87.2007 618.092 87.674L618.124 87.8095C618.232 88.2989 618.333 88.7873 618.411 89.2724V89.2939C618.489 89.7843 618.546 90.2705 618.587 90.7535L618.597 90.8707C618.635 91.3537 618.656 91.8323 618.655 92.3045L618.569 122.512C618.569 122.983 618.544 123.437 618.504 123.874L618.491 123.991C618.452 124.391 618.395 124.777 618.322 125.148C618.313 125.198 618.303 125.248 618.292 125.297C618.221 125.645 618.132 125.988 618.026 126.327C618.007 126.39 617.985 126.45 617.965 126.511C617.866 126.811 617.75 127.106 617.62 127.394C617.605 127.427 617.593 127.462 617.578 127.493C617.432 127.805 617.265 128.107 617.078 128.397C617.054 128.434 617.028 128.467 617.003 128.504C616.854 128.725 616.693 128.938 616.52 129.141C616.458 129.213 616.393 129.281 616.33 129.35C616.182 129.508 616.027 129.659 615.863 129.8C615.796 129.86 615.731 129.92 615.662 129.975C615.435 130.158 615.195 130.325 614.943 130.474L630.131 121.663C630.382 121.514 630.622 121.347 630.849 121.163C630.918 121.108 630.983 121.048 631.049 120.99C631.213 120.848 631.369 120.697 631.517 120.538C631.581 120.469 631.645 120.402 631.706 120.33C631.88 120.127 632.042 119.914 632.19 119.693C632.215 119.656 632.242 119.624 632.265 119.585L632.283 119.561C632.457 119.288 632.614 119.004 632.752 118.712L632.765 118.681C632.78 118.65 632.792 118.616 632.806 118.584C632.891 118.397 632.975 118.206 633.051 118.006C633.087 117.906 633.119 117.801 633.153 117.699C633.172 117.637 633.194 117.578 633.213 117.517C633.233 117.456 633.251 117.409 633.267 117.352C633.327 117.147 633.383 116.936 633.433 116.719C633.45 116.642 633.464 116.562 633.48 116.484L633.51 116.337C633.525 116.262 633.542 116.189 633.555 116.111C633.588 115.917 633.618 115.72 633.643 115.518C633.657 115.411 633.668 115.293 633.679 115.179C633.679 115.14 633.687 115.101 633.69 115.062C633.694 115.024 633.701 114.969 633.706 114.92C633.722 114.729 633.734 114.534 633.742 114.335C633.751 114.136 633.755 113.938 633.756 113.735V113.7L633.842 83.492C633.842 83.307 633.84 83.1209 633.834 82.9338Z" fill="#CCCCCC"/>
<path d="M606.279 70.8912C613.136 74.8441 618.681 84.4353 618.66 92.3034L618.573 122.511C618.551 130.387 612.972 133.563 606.113 129.61L579.788 114.432C572.924 110.475 567.379 100.879 567.401 93.008L567.486 62.8004C567.509 54.9323 573.087 51.756 579.954 55.7132L606.279 70.8912Z" fill="#E6E6E6"/>
<path d="M607.458 96.0154C605.932 91.482 602.91 87.6002 598.887 85.0054C598.473 84.7662 598.045 84.5525 597.605 84.3654L597.509 84.1987C596.102 81.6966 594.084 79.5902 591.644 78.0752C589.519 76.8512 587.394 76.5425 585.754 77.4299C585.048 77.8824 584.463 78.4983 584.047 79.2252C583.631 79.9522 583.397 80.7688 583.365 81.6054C582.786 81.3776 582.165 81.2749 581.543 81.3042C580.922 81.3335 580.314 81.4941 579.759 81.7753C578.358 82.5186 577.561 84.1987 577.558 86.4349C577.703 88.9734 578.445 91.442 579.725 93.6398C581.006 95.8377 582.787 97.7027 584.926 99.083L598.783 107.073C604.106 110.141 608.449 107.709 608.508 101.621C608.483 99.7064 608.128 97.8099 607.458 96.0154Z" fill="#27AE60"/>
<path d="M883.415 79.6124C883.408 79.4134 883.4 79.2134 883.387 79.0133C883.381 78.9219 883.372 78.8304 883.365 78.7379L883.356 78.6196C883.349 78.5497 883.346 78.4798 883.338 78.411C883.319 78.2087 883.297 78.0062 883.272 77.8032C883.245 77.5967 883.216 77.3891 883.182 77.1805V77.1622V77.1363C883.151 76.9427 883.117 76.7488 883.082 76.5544C883.041 76.3393 882.997 76.1242 882.95 75.9091C882.933 75.8316 882.914 75.7542 882.896 75.6778L882.864 75.5423C882.842 75.4476 882.821 75.3541 882.799 75.2594C882.744 75.0443 882.691 74.8206 882.625 74.6011C882.581 74.4409 882.533 74.2784 882.484 74.1203L882.458 74.03C882.45 74.002 882.442 73.974 882.434 73.9461C882.368 73.731 882.3 73.5158 882.228 73.3007C882.156 73.0856 882.084 72.8748 882.012 72.6682C881.998 72.6295 881.982 72.5908 881.968 72.551C881.954 72.5112 881.944 72.4875 881.932 72.4553C881.883 72.3241 881.835 72.1928 881.784 72.0616C881.705 71.8594 881.625 71.6593 881.541 71.4582C881.48 71.3141 881.418 71.1699 881.355 71.0279L881.323 70.9526C881.31 70.9247 881.299 70.8967 881.286 70.8698C881.198 70.6687 881.108 70.4697 881.014 70.2707C880.911 70.0513 880.803 69.8329 880.691 69.6157C880.675 69.5823 880.656 69.55 880.64 69.5167C880.624 69.4834 880.595 69.4307 880.573 69.3876C880.485 69.2155 880.398 69.0424 880.306 68.8703C880.191 68.6551 880.069 68.4465 879.949 68.2356C879.887 68.1281 879.828 68.0205 879.766 67.913C879.741 67.8699 879.718 67.8269 879.693 67.785C879.586 67.601 879.465 67.4246 879.353 67.2472C879.187 66.9793 879.03 66.7094 878.852 66.4501C878.824 66.4082 878.8 66.3641 878.772 66.3232C878.52 65.946 878.259 65.5753 877.991 65.211V65.2046C877.811 64.9604 877.626 64.7184 877.439 64.4807C877.287 64.2881 877.132 64.0978 876.976 63.9095L876.967 63.8988L876.96 63.8891C876.801 63.6998 876.642 63.5126 876.479 63.3287C876.317 63.1448 876.156 62.9694 875.997 62.7909C875.97 62.7619 875.943 62.735 875.916 62.707C875.889 62.679 875.861 62.6489 875.833 62.6199C875.719 62.4983 875.605 62.3768 875.488 62.2585C875.315 62.0831 875.14 61.91 874.964 61.7411C874.911 61.6895 874.856 61.6411 874.802 61.5905L874.669 61.4668C874.583 61.3861 874.497 61.3044 874.409 61.2259C874.227 61.0609 874.044 60.9007 873.858 60.7451C873.777 60.6773 873.696 60.6128 873.615 60.5472L873.489 60.4396C873.428 60.3901 873.368 60.3385 873.305 60.2901C873.125 60.1481 872.943 60.0094 872.766 59.8749C872.635 59.7792 872.503 59.6867 872.37 59.5942L872.295 59.5404L872.227 59.492C872.052 59.3726 871.876 59.2564 871.699 59.1446C871.522 59.0327 871.35 58.9294 871.175 58.8219L871.053 58.7509L844.727 43.574C844.596 43.4976 844.463 43.4234 844.333 43.3524C844.162 43.261 843.993 43.1728 843.823 43.09C843.716 43.0351 843.608 42.9824 843.5 42.9361L843.418 42.8974L843.324 42.8522C843.157 42.7805 842.991 42.7106 842.826 42.6425C842.658 42.5747 842.49 42.5124 842.324 42.4532L842.239 42.4263L842.163 42.4005C842.055 42.3628 841.937 42.3241 841.826 42.2929C841.654 42.2413 841.483 42.1943 841.313 42.152C841.231 42.1316 841.15 42.1154 841.069 42.0972L840.962 42.0735C840.91 42.0627 840.854 42.0488 840.804 42.0391C840.621 42.0025 840.44 41.9735 840.266 41.9487C840.158 41.9337 840.05 41.9261 839.943 41.9154L839.827 41.9036C839.791 41.9036 839.753 41.8949 839.72 41.8928C839.521 41.8788 839.328 41.8724 839.136 41.8734C839.051 41.8734 838.969 41.882 838.885 41.8853L838.691 41.8939C838.624 41.8939 838.556 41.8939 838.491 41.9036C838.25 41.9266 838.011 41.9625 837.774 42.0111H837.761C837.709 42.0219 837.661 42.0412 837.61 42.0531C837.372 42.1039 837.137 42.1685 836.906 42.2467C836.887 42.2531 836.871 42.2639 836.852 42.2714C836.522 42.3894 836.204 42.5367 835.9 42.7113L820.713 51.5217C821.017 51.3479 821.336 51.2007 821.665 51.0818C821.912 50.9948 822.164 50.923 822.419 50.8666C822.471 50.8548 822.519 50.8354 822.572 50.8247C822.879 50.7645 823.189 50.7253 823.502 50.7074C823.566 50.7074 823.631 50.701 823.695 50.6988C824.01 50.6857 824.326 50.6918 824.64 50.7171L824.755 50.729C825.101 50.7623 825.445 50.8151 825.785 50.8871L825.893 50.9107C826.262 50.9932 826.627 51.0952 826.986 51.2162L827.062 51.241C827.45 51.3743 827.845 51.5317 828.247 51.7131L828.328 51.7508C828.733 51.939 829.143 52.1498 829.559 52.3886L855.884 67.5666C856.303 67.8086 856.718 68.0732 857.126 68.355L857.201 68.4077C857.582 68.6731 857.957 68.9552 858.326 69.2543L858.451 69.3554C858.81 69.6494 859.161 69.9566 859.506 70.2772L859.629 70.3912C859.98 70.7217 860.324 71.0649 860.661 71.4205L860.744 71.5077C861.103 71.8906 861.453 72.285 861.794 72.6908L861.806 72.7048C862.155 73.1243 862.493 73.5546 862.819 73.9956V74.002C863.117 74.4043 863.402 74.8195 863.681 75.24C863.856 75.5025 864.018 75.7714 864.184 76.0392C864.321 76.2619 864.463 76.4813 864.596 76.7072C864.658 76.8147 864.717 76.9223 864.78 77.0299C864.995 77.4106 865.211 77.7935 865.403 78.1818C865.425 78.2249 865.449 78.2668 865.47 78.3098C865.709 78.7845 865.935 79.2636 866.148 79.7469L866.179 79.8211C866.386 80.2958 866.578 80.7726 866.757 81.2516L866.793 81.3463C866.972 81.8382 867.138 82.3308 867.288 82.8242L867.314 82.9113C867.458 83.386 867.584 83.8607 867.694 84.3354C867.705 84.3795 867.716 84.4247 867.726 84.4699C867.833 84.9593 867.935 85.4476 868.012 85.9327V85.9553C868.09 86.4444 868.149 86.9305 868.189 87.4138L868.198 87.5311C868.236 88.014 868.257 88.4927 868.256 88.9649L868.17 119.172C868.17 119.645 868.146 120.097 868.105 120.534C868.105 120.574 868.097 120.612 868.093 120.651C868.052 121.052 867.996 121.438 867.924 121.809C867.914 121.859 867.904 121.909 867.894 121.958C867.822 122.317 867.733 122.66 867.628 122.989C867.608 123.05 867.587 123.111 867.566 123.173C867.467 123.472 867.351 123.767 867.22 124.055C867.206 124.087 867.194 124.122 867.178 124.155C867.033 124.466 866.866 124.768 866.68 125.057C866.656 125.095 866.628 125.127 866.603 125.165C866.455 125.386 866.294 125.599 866.121 125.801C866.059 125.873 865.995 125.941 865.93 126.01C865.783 126.169 865.627 126.319 865.464 126.461C865.397 126.52 865.331 126.58 865.262 126.635C865.036 126.819 864.795 126.986 864.544 127.134L879.731 118.324C879.983 118.175 880.223 118.008 880.45 117.824C880.518 117.769 880.584 117.708 880.651 117.65C880.814 117.508 880.97 117.357 881.118 117.199C881.182 117.131 881.247 117.063 881.308 116.991C881.481 116.788 881.642 116.575 881.791 116.353C881.815 116.317 881.843 116.284 881.867 116.246L881.884 116.221C882.058 115.948 882.215 115.665 882.353 115.372L882.367 115.341C882.381 115.311 882.393 115.277 882.407 115.245C882.493 115.057 882.577 114.867 882.651 114.667C882.689 114.567 882.719 114.461 882.759 114.359C882.779 114.298 882.8 114.239 882.819 114.177C882.839 114.116 882.857 114.07 882.874 114.013C882.934 113.808 882.989 113.596 883.039 113.379C883.057 113.303 883.07 113.222 883.086 113.145C883.097 113.096 883.107 113.047 883.116 112.997C883.13 112.922 883.148 112.849 883.162 112.771C883.195 112.578 883.224 112.381 883.25 112.179C883.264 112.071 883.274 111.953 883.286 111.839C883.286 111.8 883.294 111.761 883.297 111.723C883.301 111.684 883.308 111.629 883.312 111.582C883.328 111.389 883.339 111.195 883.348 110.996C883.357 110.797 883.361 110.599 883.362 110.395V110.36L883.448 80.1524C883.423 79.9856 883.42 79.7996 883.415 79.6124Z" fill="#CCCCCC"/>
<path d="M855.86 67.5699C862.716 71.5227 868.262 81.1151 868.239 88.9821L868.154 119.19C868.131 127.065 862.553 130.242 855.693 126.289L829.368 111.111C822.505 107.154 816.96 97.558 816.982 89.6866L817.068 59.4791C817.09 51.6121 822.669 48.4358 829.535 52.3919L855.86 67.5699Z" fill="#E6E6E6"/>
<path d="M851.086 87.8473C849.692 86.5989 848.278 85.4365 846.844 84.3602C846.137 83.8224 845.432 83.3179 844.725 82.8285C843.55 82.0379 842.362 81.271 841.187 80.5945C840.011 79.9179 838.823 79.3123 837.648 78.7487L837.658 75.3229C837.664 73.0813 839.254 72.1767 841.212 73.3029C842.24 73.9701 843.095 74.8704 843.708 75.9305C844.321 76.9906 844.674 78.1803 844.739 79.4027L846.859 80.6246C846.756 78.6696 846.191 76.7667 845.211 75.0713C844.231 73.376 842.863 71.9362 841.219 70.8698C838.095 69.0682 835.552 70.5138 835.543 74.0967L835.532 77.8323C834.147 77.2713 832.728 76.8007 831.283 76.4232C830.056 76.1145 829.207 76.9159 829.208 78.3798C829.212 78.7324 829.253 79.0836 829.332 79.4274L831.923 90.2911C833.226 95.7692 837.025 100.974 841.123 103.337C842.041 103.881 843.039 104.277 844.081 104.51C844.729 104.692 845.408 104.744 846.077 104.662C846.746 104.581 847.392 104.367 847.977 104.034C848.563 103.701 849.076 103.255 849.487 102.722C849.899 102.189 850.2 101.579 850.373 100.929L853.019 93.0899C853.488 91.6367 852.658 89.3252 851.086 87.8473ZM841.15 93.5986C840.739 93.3317 840.397 92.9717 840.152 92.5477C839.907 92.1238 839.765 91.648 839.739 91.1591C839.739 90.261 840.379 89.9007 841.16 90.3513C841.571 90.6179 841.913 90.9779 842.158 91.4019C842.403 91.826 842.544 92.3019 842.57 92.7908C842.571 93.6868 841.931 94.0493 841.15 93.5986Z" fill="#F2C955"/>
<path d="M850.002 1H906.012V151.415L850.002 183.854V1Z" fill="url(#paint0_linear_1087_568)"/>
<path d="M850.035 1H793.993V151.798L850.035 184.32V1Z" fill="url(#paint1_linear_1087_568)"/>
<path d="M599.695 0H656.695V150.451L599.695 182.898V0Z" fill="url(#paint2_linear_1087_568)"/>
<path d="M599.695 0H543.695V150.451L599.695 182.898V0Z" fill="url(#paint3_linear_1087_568)"/>
<g clip-path="url(#clip0_1087_568)">
<path d="M460.922 520.555C460.893 521.068 460.863 521.58 460.811 522.092C460.767 522.538 460.707 522.984 460.643 523.43C460.572 523.939 460.496 524.448 460.402 524.956C460.32 525.405 460.222 525.853 460.122 526.301C460.01 526.798 459.892 527.294 459.757 527.788C459.636 528.237 459.502 528.685 459.363 529.132C459.211 529.625 459.051 530.116 458.875 530.607C458.719 531.046 458.551 531.484 458.377 531.922C458.172 532.438 457.955 532.952 457.726 533.465C457.534 533.895 457.333 534.324 457.125 534.752C456.875 535.263 456.61 535.771 456.336 536.279C456.113 536.691 455.886 537.104 455.647 537.514C455.295 538.118 454.918 538.719 454.53 539.318C454.294 539.682 454.067 540.046 453.818 540.41C453.364 541.072 452.875 541.727 452.378 542.381C452.146 542.687 451.931 542.996 451.689 543.3C451.576 543.442 451.455 543.582 451.341 543.723C450.809 544.377 450.255 545.026 449.679 545.67C449.523 545.845 449.367 546.021 449.211 546.196C448.529 546.94 447.819 547.678 447.081 548.409C446.948 548.541 446.806 548.669 446.672 548.801C446.108 549.346 445.519 549.886 444.923 550.422C444.445 550.852 443.953 551.278 443.455 551.702C442.993 552.095 442.527 552.486 442.049 552.873C441.528 553.293 440.994 553.705 440.453 554.121C439.955 554.502 439.454 554.882 438.937 555.257C438.376 555.664 437.797 556.066 437.214 556.467C436.678 556.836 436.141 557.204 435.587 557.566C434.984 557.961 434.362 558.347 433.738 558.737C432.956 559.22 432.188 559.707 431.375 560.178C429.851 561.062 428.278 561.902 426.683 562.719C426.224 562.954 425.758 563.181 425.295 563.411C424.053 564.023 422.792 564.616 421.513 565.189C421.082 565.382 420.656 565.582 420.221 565.77C418.554 566.492 416.859 567.183 415.136 567.841C414.832 567.956 414.521 568.061 414.215 568.175C412.757 568.715 411.282 569.232 409.789 569.726C409.177 569.928 408.561 570.127 407.943 570.322C407.12 570.581 406.292 570.833 405.459 571.077C404.758 571.285 404.054 571.487 403.347 571.683C402.505 571.916 401.659 572.141 400.808 572.359C400.096 572.542 399.383 572.723 398.665 572.899C397.803 573.107 396.935 573.304 396.066 573.498C395.346 573.659 394.628 573.82 393.904 573.97C393.019 574.154 392.13 574.325 391.238 574.494C390.554 574.625 389.871 574.754 389.182 574.879C387.271 575.216 385.35 575.527 383.414 575.798C383.142 575.836 382.867 575.865 382.594 575.902C380.908 576.129 379.214 576.331 377.511 576.507C376.864 576.574 376.216 576.638 375.567 576.697C374.477 576.798 373.383 576.889 372.287 576.969C371.597 577.021 370.907 577.07 370.215 577.113C369.077 577.183 367.938 577.236 366.797 577.285C366.149 577.312 365.5 577.345 364.85 577.365C363.861 577.396 362.871 577.408 361.882 577.422C361.185 577.432 360.488 577.45 359.791 577.452C358.728 577.452 357.664 577.436 356.601 577.419C355.976 577.41 355.348 577.41 354.722 577.393C353.751 577.368 352.781 577.321 351.81 577.279C351.127 577.25 350.444 577.232 349.761 577.195C348.711 577.137 347.664 577.057 346.616 576.981C346.019 576.938 345.418 576.907 344.824 576.857C343.562 576.753 342.306 576.624 341.051 576.493C340.672 576.454 340.291 576.424 339.913 576.382C338.281 576.2 336.657 575.994 335.041 575.766C334.784 575.73 334.53 575.684 334.274 575.646C332.881 575.443 331.492 575.23 330.112 574.991C329.539 574.892 328.967 574.776 328.394 574.671C327.34 574.477 326.286 574.285 325.241 574.072C324.693 573.959 324.152 573.833 323.606 573.715C322.46 573.467 321.315 573.214 320.179 572.942C319.545 572.79 318.916 572.627 318.285 572.467C317.25 572.203 316.218 571.933 315.195 571.649C314.611 571.488 314.031 571.32 313.451 571.152C311.828 570.679 310.223 570.181 308.635 569.657C308.352 569.563 308.062 569.478 307.782 569.382C305.96 568.764 304.163 568.104 302.392 567.415C301.67 567.134 300.956 566.843 300.243 566.55C299.679 566.318 299.112 566.091 298.554 565.851C297.754 565.508 296.967 565.149 296.18 564.79C295.665 564.555 295.144 564.327 294.635 564.085C293.774 563.677 292.931 563.25 292.088 562.823C291.672 562.613 291.247 562.411 290.835 562.195C289.589 561.543 288.364 560.872 287.16 560.18C267.062 548.587 257.023 533.373 257.066 518.18L257 541.407C256.957 556.599 266.999 571.814 287.096 583.404C288.298 584.097 289.523 584.768 290.77 585.418C291.186 585.635 291.614 585.839 292.035 586.052C292.874 586.477 293.714 586.902 294.572 587.308C295.081 587.55 295.603 587.777 296.118 588.014C296.905 588.373 297.69 588.731 298.49 589.074C299.049 589.314 299.617 589.542 300.183 589.775C300.726 589.998 301.26 590.232 301.809 590.449C301.978 590.515 302.157 590.572 302.329 590.638C304.1 591.328 305.897 591.99 307.723 592.607C308.001 592.701 308.285 592.785 308.563 592.878C310.154 593.405 311.764 593.904 313.393 594.376C313.663 594.455 313.923 594.548 314.194 594.625C314.503 594.712 314.819 594.786 315.131 594.873C316.156 595.157 317.188 595.427 318.226 595.691C318.855 595.85 319.481 596.013 320.114 596.165C321.25 596.437 322.396 596.691 323.545 596.938C323.975 597.032 324.398 597.139 324.829 597.228C324.945 597.252 325.063 597.271 325.179 597.295C326.221 597.509 327.276 597.7 328.33 597.894C328.903 597.998 329.472 598.115 330.048 598.214C331.428 598.452 332.817 598.666 334.209 598.87C334.454 598.905 334.695 598.95 334.938 598.985L334.976 598.989C336.593 599.217 338.217 599.423 339.847 599.606C340.231 599.648 340.617 599.678 341.002 599.718C342.252 599.849 343.501 599.978 344.755 600.082L344.852 600.092C345.42 600.139 345.992 600.166 346.561 600.208C347.607 600.283 348.651 600.364 349.699 600.42C350.376 600.457 351.058 600.476 351.737 600.505C352.709 600.546 353.68 600.593 354.653 600.619C354.735 600.619 354.815 600.626 354.896 600.628C355.45 600.642 356.005 600.636 356.559 600.645C357.613 600.661 358.668 600.68 359.722 600.677C360.422 600.677 361.12 600.658 361.819 600.648C362.808 600.634 363.798 600.621 364.787 600.591C364.971 600.585 365.152 600.586 365.338 600.58C365.8 600.564 366.26 600.528 366.721 600.51C367.867 600.462 369.013 600.406 370.153 600.338C370.842 600.295 371.528 600.245 372.216 600.195C373.313 600.114 374.406 600.024 375.497 599.922C375.878 599.887 376.263 599.865 376.642 599.827C376.909 599.801 377.172 599.76 377.439 599.732C379.136 599.556 380.827 599.354 382.51 599.129C382.788 599.091 383.067 599.062 383.343 599.025C385.279 598.754 387.2 598.443 389.11 598.106C389.288 598.074 389.47 598.054 389.648 598.02C390.156 597.928 390.656 597.818 391.163 597.722C392.055 597.552 392.946 597.382 393.83 597.198C394.554 597.047 395.271 596.885 395.989 596.725C396.86 596.531 397.729 596.334 398.593 596.126C399.311 595.952 400.023 595.77 400.735 595.586C401.587 595.367 402.434 595.141 403.277 594.91C403.985 594.714 404.688 594.513 405.388 594.306C406.221 594.061 407.048 593.809 407.871 593.551C408.23 593.437 408.6 593.336 408.956 593.22C409.216 593.137 409.461 593.038 409.718 592.953C411.209 592.46 412.682 591.944 414.137 591.405C414.446 591.29 414.762 591.185 415.066 591.068C416.79 590.413 418.485 589.723 420.15 588.997C420.585 588.809 421.009 588.611 421.439 588.418C422.72 587.844 423.981 587.251 425.224 586.638C425.688 586.409 426.152 586.182 426.61 585.947C428.206 585.13 429.779 584.291 431.304 583.406C431.723 583.163 432.137 582.919 432.548 582.672C432.932 582.441 433.287 582.2 433.663 581.966C434.288 581.578 434.913 581.189 435.516 580.794C436.07 580.43 436.606 580.066 437.142 579.695C437.724 579.294 438.304 578.893 438.865 578.485C439.381 578.11 439.882 577.73 440.381 577.35C440.922 576.934 441.459 576.521 441.98 576.101C442.458 575.716 442.921 575.326 443.381 574.935C443.881 574.51 444.375 574.083 444.854 573.651C445.05 573.475 445.265 573.303 445.458 573.125C445.85 572.761 446.223 572.397 446.603 572.033C446.739 571.902 446.88 571.773 447.013 571.641C447.753 570.913 448.463 570.176 449.141 569.43C449.303 569.253 449.458 569.076 449.616 568.899C450.191 568.255 450.744 567.607 451.276 566.954C451.39 566.813 451.51 566.674 451.622 566.532C451.674 566.467 451.732 566.403 451.783 566.337C451.972 566.098 452.13 565.852 452.313 565.612C452.81 564.958 453.299 564.303 453.753 563.642C454.001 563.278 454.228 562.913 454.464 562.549C454.851 561.95 455.229 561.35 455.581 560.745C455.678 560.58 455.793 560.417 455.886 560.252C456.025 560.007 456.136 559.757 456.27 559.51C456.544 559.003 456.809 558.494 457.059 557.983C457.267 557.555 457.468 557.126 457.66 556.696C457.889 556.183 458.106 555.669 458.311 555.153C458.403 554.923 458.515 554.694 458.602 554.463C458.68 554.255 458.735 554.047 458.81 553.839C458.985 553.348 459.146 552.856 459.299 552.363C459.437 551.916 459.571 551.469 459.693 551.02C459.826 550.525 459.944 550.029 460.057 549.533C460.117 549.265 460.199 548.999 460.253 548.73C460.289 548.55 460.305 548.366 460.338 548.188C460.432 547.679 460.508 547.17 460.578 546.659C460.641 546.215 460.702 545.77 460.747 545.324C460.799 544.812 460.829 544.299 460.857 543.786C460.874 543.486 460.913 543.187 460.922 542.888C460.93 542.588 460.935 542.291 460.936 541.993L461.001 518.767C460.998 519.36 460.954 519.957 460.922 520.555Z" fill="#262626"/>
<path d="M430.895 476.755C470.849 499.795 471.06 537.143 431.374 560.178C391.679 583.218 327.118 583.218 287.162 560.178C247.217 537.145 247.006 499.795 286.701 476.755C326.387 453.722 390.949 453.722 430.895 476.755Z" fill="#323232"/>
<path d="M352.413 523.22L350.343 524.421L348.26 523.22L350.33 522.019L352.413 523.22Z" fill="#999999"/>
<path d="M349.287 521.418L347.217 522.619L345.134 521.418L347.204 520.216L349.287 521.418Z" fill="#999999"/>
<path d="M355.538 525.022L353.468 526.224L351.385 525.022L353.455 523.821L355.538 525.022Z" fill="#999999"/>
<path d="M351.392 526.224L349.322 527.425L347.238 526.224L349.308 525.022L351.392 526.224Z" fill="#999999"/>
<path d="M321.238 519.615L319.168 520.817L317.084 519.615L319.154 518.414L321.238 519.615Z" fill="#999999"/>
<path d="M346.161 519.615L344.091 520.817L342.008 519.615L344.078 518.414L346.161 519.615Z" fill="#999999"/>
<path d="M342.015 520.818L339.945 522.019L337.861 520.818L339.931 519.616L342.015 520.818Z" fill="#999999"/>
<path d="M345.14 522.62L343.071 523.821L340.986 522.619L343.056 521.417L345.14 522.62Z" fill="#999999"/>
<path d="M348.266 524.421L346.196 525.623L344.112 524.421L346.182 523.22L348.266 524.421Z" fill="#999999"/>
<path d="M344.119 525.623L342.049 526.824L339.965 525.623L342.036 524.421L344.119 525.623Z" fill="#999999"/>
<path d="M342.075 531.63L340.005 532.832L320.21 521.417L322.28 520.216L342.075 531.63Z" fill="#999999"/>
<path d="M340.994 523.821L338.924 525.022L336.839 523.82L338.91 522.619L340.994 523.821Z" fill="#999999"/>
<path d="M337.868 522.018L335.798 523.22L333.714 522.018L335.784 520.817L337.868 522.018Z" fill="#999999"/>
<path d="M338.889 519.015L336.819 520.216L334.736 519.015L336.806 517.813L338.889 519.015Z" fill="#999999"/>
<path d="M334.742 520.216L332.672 521.417L330.589 520.216L332.659 519.015L334.742 520.216Z" fill="#999999"/>
<path d="M339.911 516.011L337.841 517.212L335.757 516.011L337.827 514.81L339.911 516.011Z" fill="#999999"/>
<path d="M335.764 517.212L333.694 518.414L331.609 517.212L333.679 516.011L335.764 517.212Z" fill="#999999"/>
<path d="M331.617 518.415L329.547 519.616L327.463 518.414L329.533 517.213L331.617 518.415Z" fill="#999999"/>
<path d="M328.491 516.611L326.421 517.813L324.338 516.611L326.407 515.41L328.491 516.611Z" fill="#999999"/>
<path d="M325.366 514.809L323.296 516.011L321.212 514.809L323.282 513.608L325.366 514.809Z" fill="#999999"/>
<path d="M320.176 515.41L318.106 516.612L316.021 515.41L310.813 512.406L312.882 511.205L318.091 514.209L320.176 515.41Z" fill="#999999"/>
<path d="M322.24 513.007L320.17 514.209L318.086 513.006L313.919 510.604L315.989 509.402L320.156 511.805L322.24 513.007Z" fill="#999999"/>
<path d="M323.261 510.003L321.191 511.204L317.024 508.801L319.093 507.6L323.261 510.003Z" fill="#999999"/>
<path d="M324.282 507L322.212 508.201L320.129 507L322.199 505.798L324.282 507Z" fill="#999999"/>
<path d="M332.638 515.41L330.568 516.611L328.484 515.41L330.554 514.208L332.638 515.41Z" fill="#999999"/>
<path d="M329.513 513.608L327.443 514.809L325.359 513.608L327.429 512.406L329.513 513.608Z" fill="#999999"/>
<path d="M333.659 512.406L331.589 513.608L329.506 512.406L331.576 511.205L333.659 512.406Z" fill="#999999"/>
<path d="M330.534 510.604L328.464 511.806L326.38 510.604L328.45 509.403L330.534 510.604Z" fill="#999999"/>
<path d="M326.387 511.806L324.317 513.007L322.233 511.805L324.302 510.604L326.387 511.806Z" fill="#999999"/>
<path d="M323.301 517.213L321.231 518.414L319.148 517.213L321.218 516.011L323.301 517.213Z" fill="#999999"/>
<path d="M329.553 520.817L327.483 522.019L325.399 520.817L327.468 519.615L329.553 520.817Z" fill="#999999"/>
<path d="M326.427 519.015L324.357 520.216L322.273 519.015L324.343 517.813L326.427 519.015Z" fill="#999999"/>
<path d="M332.678 522.62L330.608 523.821L328.525 522.62L330.595 521.418L332.678 522.62Z" fill="#999999"/>
<path d="M335.804 524.421L333.734 525.623L331.65 524.421L333.72 523.22L335.804 524.421Z" fill="#999999"/>
<path d="M338.929 526.224L336.86 527.425L334.775 526.224L336.845 525.022L338.929 526.224Z" fill="#999999"/>
<path d="M342.055 528.026L339.985 529.228L337.901 528.026L339.972 526.825L342.055 528.026Z" fill="#999999"/>
<path d="M345.181 529.829L343.11 531.03L341.027 529.829L343.097 528.627L345.181 529.829Z" fill="#999999"/>
<path d="M348.307 531.631L346.237 532.833L344.152 531.63L346.222 530.429L348.307 531.631Z" fill="#999999"/>
<path d="M367 531.631L364.93 532.832L360.762 530.429L362.832 529.228L367 531.631Z" fill="#999999"/>
<path d="M360.768 531.63L358.698 532.832L356.615 531.63L358.685 530.429L360.768 531.63Z" fill="#999999"/>
<path d="M363.894 533.433L361.824 534.634L359.74 533.433L361.81 532.231L363.894 533.433Z" fill="#999999"/>
<path d="M360.789 535.235L358.719 536.437L355.593 534.634L357.663 533.433L360.789 535.235Z" fill="#999999"/>
<path d="M357.684 537.038L355.613 538.239L350.404 535.235L352.474 534.034L357.684 537.038Z" fill="#999999"/>
<path d="M345.202 533.433L343.132 534.634L341.047 533.433L343.117 532.231L345.202 533.433Z" fill="#999999"/>
<path d="M348.327 535.235L346.257 536.437L344.174 535.235L346.243 534.034L348.327 535.235Z" fill="#999999"/>
<path d="M351.432 533.433L349.362 534.634L347.278 533.433L349.348 532.232L351.432 533.433Z" fill="#999999"/>
<path d="M356.622 532.832L354.552 534.033L352.468 532.832L354.538 531.63L356.622 532.832Z" fill="#999999"/>
<path d="M358.664 526.825L356.594 528.026L354.511 526.825L356.581 525.624L358.664 526.825Z" fill="#999999"/>
<path d="M354.518 528.027L352.447 529.228L350.363 528.026L352.433 526.825L354.518 528.027Z" fill="#999999"/>
<path d="M361.789 528.628L359.719 529.829L357.636 528.628L359.706 527.426L361.789 528.628Z" fill="#999999"/>
<path d="M350.371 529.228L348.301 530.429L346.216 529.227L348.286 528.026L350.371 529.228Z" fill="#999999"/>
<path d="M357.643 529.828L355.573 531.03L353.49 529.828L355.56 528.627L357.643 529.828Z" fill="#999999"/>
<path d="M353.496 531.03L351.426 532.231L349.343 531.03L351.413 529.828L353.496 531.03Z" fill="#999999"/>
<path d="M347.245 527.425L345.175 528.626L343.091 527.425L345.161 526.224L347.245 527.425Z" fill="#999999"/>
<path d="M311.861 514.209L309.791 515.41L307.708 514.209L309.778 513.007L311.861 514.209Z" fill="#999999"/>
<path d="M314.987 516.011L312.916 517.212L310.833 516.011L312.903 514.809L314.987 516.011Z" fill="#999999"/>
<path d="M318.113 517.813L316.043 519.015L313.959 517.813L316.029 516.612L318.113 517.813Z" fill="#999999"/>
<path d="M351.452 537.037L349.382 538.239L347.299 537.037L349.369 535.836L351.452 537.037Z" fill="#999999"/>
<path d="M354.578 538.84L352.508 540.041L350.424 538.839L352.494 537.638L354.578 538.84Z" fill="#999999"/>
<path d="M327.408 508.801L325.338 510.003L323.254 508.801L325.324 507.6L327.408 508.801Z" fill="#999999"/>
<path d="M336.784 514.208L334.714 515.41L332.631 514.208L334.701 513.007L336.784 514.208Z" fill="#999999"/>
<path d="M343.036 517.813L340.966 519.015L338.882 517.813L340.952 516.612L343.036 517.813Z" fill="#999999"/>
<path d="M389.671 491.835C389.671 491.2 389.675 490.539 389.677 489.866L389.682 487.717C389.686 486.639 389.689 485.533 389.692 484.409L389.695 483.421C389.697 482.701 389.699 481.98 389.701 481.256L389.707 479.065C389.707 478.737 389.708 478.409 389.71 478.082L389.719 474.766C389.722 474.038 389.724 473.327 389.726 472.634L389.731 470.648C389.727 470.606 389.721 470.564 389.711 470.523C389.708 470.482 389.701 470.44 389.691 470.4C389.672 470.34 389.647 470.282 389.616 470.226C389.6 470.187 389.581 470.149 389.56 470.113C389.514 470.048 389.464 469.988 389.409 469.932C389.38 469.902 389.36 469.871 389.327 469.841C389.225 469.748 389.114 469.666 388.995 469.596C388.866 469.519 388.73 469.453 388.59 469.398C388.489 469.358 388.385 469.323 388.278 469.294C388.247 469.285 388.215 469.279 388.184 469.271L388.105 469.252C388.071 469.244 388.039 469.234 388.005 469.227C387.92 469.21 387.833 469.195 387.744 469.182C387.725 469.182 387.706 469.178 387.687 469.176C387.669 469.173 387.649 469.172 387.63 469.17C387.583 469.164 387.538 469.158 387.492 469.154C387.406 469.147 387.321 469.143 387.235 469.141C387.22 469.141 387.205 469.141 387.19 469.141H387.132C387.08 469.141 387.023 469.141 386.97 469.141C386.872 469.144 386.776 469.15 386.68 469.16H386.675L386.656 469.162C386.552 469.173 386.448 469.187 386.348 469.205C386.322 469.21 386.298 469.219 386.273 469.224C386.185 469.241 386.1 469.264 386.015 469.288C385.963 469.302 385.911 469.31 385.859 469.326C385.842 469.332 385.827 469.341 385.81 469.347C385.64 469.403 385.475 469.474 385.318 469.559L385.257 469.595C385.204 469.625 385.17 469.661 385.124 469.693C385.072 469.731 385.011 469.766 384.964 469.807L384.94 469.829C384.935 469.833 384.928 469.837 384.923 469.842C384.865 469.895 384.812 469.952 384.763 470.013C384.755 470.024 384.749 470.035 384.742 470.046C384.734 470.057 384.725 470.07 384.716 470.082C384.707 470.094 384.699 470.108 384.691 470.121C384.683 470.134 384.668 470.153 384.659 470.169C384.632 470.216 384.609 470.265 384.589 470.316C384.589 470.322 384.586 470.328 384.584 470.335C384.582 470.341 384.58 470.351 384.577 470.359C384.574 470.367 384.571 470.379 384.568 470.389C384.565 470.399 384.561 470.411 384.559 470.422C384.556 470.433 384.55 470.449 384.547 470.463C384.537 470.512 384.532 470.561 384.53 470.611V470.635L384.47 491.834C384.483 491.917 384.497 492 384.51 492.082C384.529 492.142 384.554 492.2 384.585 492.256C384.602 492.295 384.621 492.333 384.642 492.37C384.687 492.434 384.738 492.494 384.793 492.55C384.821 492.58 384.842 492.612 384.874 492.641C384.976 492.734 385.087 492.816 385.206 492.887C385.335 492.963 385.471 493.029 385.611 493.084C385.712 493.124 385.817 493.159 385.926 493.188C385.956 493.197 385.989 493.203 386.02 493.211L386.099 493.231C386.132 493.239 386.165 493.248 386.199 493.255C386.284 493.272 386.37 493.287 386.459 493.3C386.478 493.3 386.498 493.304 386.516 493.306L386.575 493.313C386.621 493.318 386.666 493.324 386.713 493.328C386.797 493.335 386.883 493.339 386.969 493.342C386.984 493.342 386.999 493.342 387.015 493.342C387.03 493.342 387.052 493.342 387.071 493.342C387.123 493.342 387.18 493.342 387.234 493.342C387.331 493.338 387.428 493.332 387.524 493.322H387.53H387.548C387.652 493.311 387.756 493.297 387.856 493.279C387.882 493.274 387.906 493.266 387.931 493.26C388.018 493.243 388.1 493.221 388.184 493.198L388.211 493.191C388.255 493.179 388.301 493.172 388.344 493.158C388.362 493.152 388.376 493.143 388.393 493.137C388.563 493.081 388.728 493.01 388.885 492.925L388.947 492.89C388.999 492.859 389.034 492.823 389.079 492.791C389.132 492.753 389.193 492.718 389.239 492.678C389.248 492.671 389.255 492.663 389.263 492.656C389.272 492.648 389.276 492.647 389.28 492.643C389.338 492.59 389.391 492.532 389.44 492.471C389.449 492.46 389.454 492.449 389.462 492.439C389.471 492.428 389.479 492.414 389.487 492.402L389.513 492.364C389.523 492.348 389.536 492.332 389.545 492.315C389.572 492.268 389.595 492.219 389.614 492.168C389.614 492.162 389.617 492.156 389.619 492.15C389.622 492.144 389.624 492.133 389.626 492.125C389.629 492.117 389.632 492.105 389.635 492.095C389.638 492.085 389.642 492.073 389.644 492.062C389.647 492.051 389.653 492.036 389.656 492.022C389.666 491.972 389.672 491.923 389.673 491.873V491.85L389.671 491.835Z" fill="#262626"/>
<path d="M438.948 503.289C438.569 503.271 438.201 503.155 437.88 502.953L336.651 444.581C335.874 444.069 335.227 443.382 334.761 442.577C334.295 441.772 334.022 440.869 333.965 439.941L334.136 379.894C334.136 378.908 334.557 378.32 335.255 378.32C335.633 378.339 336 378.454 336.32 378.655L437.546 437.027C438.323 437.54 438.971 438.227 439.437 439.033C439.903 439.839 440.175 440.742 440.232 441.672L440.061 501.718C440.061 502.701 439.644 503.289 438.948 503.289Z" fill="#5B5B5B"/>
<path d="M335.255 378.841C335.542 378.858 335.819 378.95 336.06 379.107L437.286 437.477C437.988 437.94 438.572 438.56 438.993 439.288C439.414 440.016 439.66 440.831 439.711 441.67L439.541 501.716C439.541 502.109 439.461 502.769 438.945 502.769C438.658 502.748 438.381 502.657 438.138 502.502L336.912 444.132C336.21 443.669 335.626 443.05 335.205 442.323C334.784 441.596 334.538 440.782 334.486 439.944L334.657 379.897C334.657 379.502 334.737 378.841 335.255 378.841ZM335.255 377.801C334.286 377.801 333.619 378.567 333.616 379.894L333.445 439.941C333.499 440.962 333.794 441.955 334.306 442.84C334.818 443.725 335.533 444.477 336.391 445.033L437.619 503.404C438.019 503.652 438.477 503.792 438.948 503.809C439.915 503.809 440.581 503.045 440.585 501.72L440.755 441.673C440.701 440.651 440.406 439.657 439.894 438.771C439.382 437.885 438.667 437.133 437.809 436.576L336.58 378.206C336.181 377.958 335.724 377.818 335.254 377.801H335.255Z" fill="#262626"/>
<path d="M387.397 491.66C399.01 498.356 399.073 509.255 387.53 515.954L385.286 514.66C395.597 508.679 395.54 498.939 385.164 492.956C374.788 486.973 357.952 486.971 347.643 492.956L345.399 491.662C356.939 484.961 375.778 484.961 387.397 491.66Z" fill="#262626"/>
</g>
<defs>
<linearGradient id="paint0_linear_1087_568" x1="878.782" y1="183.19" x2="877.238" y2="1.07072" gradientUnits="userSpaceOnUse">
<stop stop-color="#F2F2F2" stop-opacity="0.1"/>
<stop offset="1" stop-color="#F2F2F2" stop-opacity="0"/>
</linearGradient>
<linearGradient id="paint1_linear_1087_568" x1="821.238" y1="183.654" x2="822.79" y2="1.07096" gradientUnits="userSpaceOnUse">
<stop stop-color="#F2F2F2" stop-opacity="0.2"/>
<stop offset="1" stop-color="#F2F2F2" stop-opacity="0"/>
</linearGradient>
<linearGradient id="paint2_linear_1087_568" x1="628.983" y1="182.234" x2="627.465" y2="0.0702905" gradientUnits="userSpaceOnUse">
<stop stop-color="#F2F2F2" stop-opacity="0.1"/>
<stop offset="1" stop-color="#F2F2F2" stop-opacity="0"/>
</linearGradient>
<linearGradient id="paint3_linear_1087_568" x1="570.92" y1="182.234" x2="572.466" y2="0.0707545" gradientUnits="userSpaceOnUse">
<stop stop-color="#F2F2F2" stop-opacity="0.2"/>
<stop offset="1" stop-color="#F2F2F2" stop-opacity="0"/>
</linearGradient>
<clipPath id="clip0_1087_568">
<rect width="204" height="222.876" fill="white" transform="translate(257 377.801)"/>
</clipPath>
</defs>
</svg>
