<svg width="570" height="400" viewBox="0 0 570 400" fill="none" xmlns="http://www.w3.org/2000/svg">
<path d="M433.649 348.696C424.232 354.124 424.189 362.924 433.538 368.351L481.073 395.929C490.43 401.357 505.642 401.357 515.06 395.929L562.906 368.349C572.319 362.924 572.373 354.125 563.016 348.694L515.482 321.12C506.13 315.694 490.908 315.694 481.496 321.12L433.649 348.696Z" fill="#212121"/>
<path d="M433.649 328.158C424.232 333.586 424.189 342.386 433.538 347.813L481.073 375.391C490.43 380.819 505.642 380.819 515.06 375.391L562.906 347.812C572.319 342.386 572.373 333.587 563.016 328.157L515.482 300.582C506.13 295.157 490.908 295.157 481.496 300.582L433.649 328.158Z" fill="#292929"/>
<path d="M21.365 241.365C-6.99811 257.763 -7.13307 284.347 21.0311 300.738L164.188 384.051C192.369 400.449 238.179 400.449 266.542 384.051L410.635 300.739C438.983 284.349 439.148 257.766 410.969 241.367L267.812 158.054C239.648 141.663 193.807 141.663 165.459 158.054L21.365 241.365Z" fill="#212121"/>
<path d="M21.365 216.406C-6.99811 232.804 -7.13307 259.388 21.0311 275.779L164.188 359.092C192.369 375.49 238.179 375.49 266.542 359.092L410.635 275.78C438.983 259.39 439.148 232.807 410.969 216.408L267.812 133.095C239.648 116.704 193.807 116.704 165.459 133.095L21.365 216.406Z" fill="#292929"/>
<path d="M21.365 187.073C-6.99811 203.406 -7.13307 229.883 21.0311 246.209L164.188 329.19C192.369 345.522 238.179 345.522 266.542 329.19L410.635 246.21C438.983 229.885 439.148 203.409 410.969 187.074L267.812 104.093C239.648 87.7677 193.807 87.7677 165.459 104.093L21.365 187.073Z" fill="#323232"/>
<path d="M433.649 306.455C424.231 311.883 424.19 320.682 433.538 326.11L481.074 353.687C490.43 359.116 505.642 359.116 515.06 353.687L562.906 326.105C572.319 320.68 572.373 311.881 563.017 306.45L515.481 278.873C506.129 273.447 490.908 273.447 481.495 278.873L433.649 306.455Z" fill="#323232"/>
<path d="M359.345 96.681C349.928 102.109 349.885 110.909 359.234 116.336L406.77 143.914C416.126 149.342 431.338 149.342 440.756 143.914L488.602 116.335C498.016 110.909 498.069 102.11 488.713 96.6795L441.178 69.1054C431.826 63.6795 416.605 63.6795 407.192 69.1054L359.345 96.681Z" fill="#212121"/>
<path d="M359.345 80.5647C349.928 85.9929 349.885 94.7924 359.234 100.22L406.77 127.798C416.126 133.226 431.338 133.226 440.756 127.798L488.602 100.218C498.016 94.7924 498.069 85.9937 488.713 80.5632L441.178 52.9891C431.826 47.5632 416.605 47.5632 407.192 52.9891L359.345 80.5647Z" fill="#292929"/>
<path d="M359.345 65.2735C349.928 70.7018 349.885 79.5013 359.234 84.9287L406.77 112.507C416.126 117.935 431.338 117.935 440.756 112.507L488.602 84.9272C498.016 79.5013 498.069 70.7025 488.713 65.272L441.178 37.698C431.826 32.2721 416.605 32.2721 407.192 37.698L359.345 65.2735Z" fill="#323232"/>
<path d="M426.322 41.3503L426.411 72.6443L441.1 81.1659L441.011 49.8727L426.322 41.3503Z" fill="#262626"/>
<path d="M441.011 49.8728L441.1 81.166L455.88 72.6467L455.791 41.3535L441.011 49.8728Z" fill="#404040"/>
<path d="M426.323 41.3503L441.011 49.8727L455.792 41.3534L441.103 32.8318L426.323 41.3503Z" fill="#545454"/>
<g filter="url(#filter0_f_637_1845)">
<path d="M474.016 308.48C470.011 310.767 469.993 314.474 473.969 316.76L494.184 328.377C498.163 330.664 504.631 330.664 508.636 328.377L528.983 316.759C532.986 314.474 533.009 310.767 529.03 308.479L508.816 296.864C504.839 294.578 498.366 294.578 494.363 296.864L474.016 308.48Z" fill="black" fill-opacity="0.1"/>
</g>
<path d="M392.068 8.51843L392.157 72.6442L406.846 81.1658L406.757 17.0408L392.068 8.51843Z" fill="#262626"/>
<path d="M406.757 17.0409L406.846 81.1659L421.625 72.6466L421.537 8.52161L406.757 17.0409Z" fill="#404040"/>
<path d="M392.068 8.51852L406.757 17.0409L421.537 8.52159L406.848 0L392.068 8.51852Z" fill="#545454"/>
<path d="M543.493 108.434L543.516 108.419L543.509 108.411C543.51 108.419 543.503 108.426 543.493 108.434Z" fill="#626262"/>
<path d="M498.277 224.485C496.018 224.485 493.81 225.154 491.932 226.407C490.054 227.66 488.59 229.44 487.725 231.524C486.861 233.607 486.635 235.9 487.076 238.111C487.516 240.323 488.604 242.354 490.201 243.949C491.798 245.544 493.833 246.629 496.049 247.069C498.264 247.509 500.561 247.283 502.647 246.421C504.734 245.558 506.518 244.096 507.773 242.221C509.028 240.346 509.698 238.142 509.698 235.887C509.698 234.389 509.404 232.906 508.83 231.523C508.256 230.139 507.415 228.882 506.354 227.823C505.294 226.764 504.034 225.925 502.648 225.352C501.262 224.779 499.777 224.485 498.277 224.485Z" fill="#626262"/>
<path d="M482.426 206.197C492.689 202.614 503.866 202.614 514.128 206.197C513.62 204.792 513.082 203.387 512.521 201.997C508.79 192.751 504.011 183.961 498.277 175.801C492.543 183.961 487.764 192.751 484.034 201.997C483.472 203.387 482.934 204.792 482.426 206.197Z" fill="#999999"/>
<path d="M482.28 296.465C482.426 296.887 482.58 297.302 482.734 297.716C483.166 298.898 483.729 300.029 484.41 301.087C490.794 311.022 505.768 311.022 512.151 301.087C512.832 300.027 513.397 298.897 513.835 297.716C513.989 297.294 514.143 296.879 514.289 296.457C503.933 300.109 492.637 300.112 482.28 296.465Z" fill="#999999"/>
<path d="M463.215 284.702L463.299 312.028L465.799 313.479L465.722 286.461V286.161L464.914 285.693L464.907 285.685L463.215 284.702Z" fill="#505050"/>
<path d="M530.763 312.75L533.262 311.298L533.339 283.981L533.316 283.996L530.84 285.432V286.461L530.763 312.75Z" fill="#505050"/>
<path d="M513.743 293.309L514.928 294.66L515.958 295.835L530.763 312.749L530.84 286.461V285.432L520.28 273.37L513.82 265.984L513.743 293.309Z" fill="#999999"/>
<path d="M482.426 206.197C492.689 202.614 503.866 202.614 514.128 206.197C519.336 220.478 521.999 235.56 521.996 250.759V252.325C521.996 258.131 521.608 263.93 520.834 269.684L516.318 264.533L513.819 265.985L513.742 293.31L514.926 294.661C514.719 295.26 514.511 295.859 514.288 296.458C503.932 300.11 492.636 300.112 482.279 296.465C482.117 296.035 481.971 295.605 481.825 295.176L482.825 294.032L482.748 266.714L480.241 265.263L475.819 270.315C474.983 264.355 474.564 258.344 474.565 252.326V250.759C474.563 235.561 477.224 220.48 482.426 206.197V206.197ZM498.277 247.288C500.536 247.29 502.745 246.622 504.624 245.371C506.504 244.119 507.969 242.339 508.834 240.255C509.7 238.172 509.927 235.879 509.487 233.667C509.047 231.455 507.96 229.423 506.363 227.827C504.766 226.232 502.731 225.145 500.516 224.705C498.3 224.264 496.003 224.49 493.916 225.352C491.829 226.215 490.045 227.677 488.789 229.552C487.534 231.427 486.864 233.631 486.864 235.887C486.864 238.909 488.067 241.808 490.207 243.946C492.347 246.084 495.25 247.286 498.277 247.288Z" fill="#E3E3E3"/>
<path d="M513.82 265.984L520.281 273.37L530.84 285.432L533.317 283.996C533.324 283.988 533.332 283.981 533.332 283.973L520.834 269.684L516.318 264.533L513.82 265.984Z" fill="#E3E3E3"/>
<path d="M465.722 286.161V286.461L465.799 313.479L481.081 296.019L481.827 295.175L482.827 294.031L482.75 266.713L476.382 273.984L465.722 286.161Z" fill="#999999"/>
<path d="M463.553 284.319C463.992 284.787 464.445 285.24 464.907 285.685L464.915 285.693L465.722 286.161L476.382 273.984L482.75 266.714L480.242 265.262L475.82 270.314L463.553 284.319Z" fill="#E3E3E3"/>
<path d="M133.326 222.386C133.331 222.438 133.334 222.489 133.343 222.54C133.353 222.592 133.364 222.622 133.374 222.664C133.385 222.705 133.399 222.762 133.417 222.81C133.434 222.859 133.45 222.889 133.467 222.928C133.488 222.979 133.511 223.03 133.537 223.08C133.557 223.116 133.581 223.15 133.602 223.188C133.638 223.245 133.673 223.302 133.717 223.358C133.742 223.391 133.769 223.424 133.796 223.457C133.861 223.534 133.93 223.608 134.002 223.678C134.03 223.705 134.054 223.731 134.083 223.757C134.13 223.799 134.182 223.84 134.233 223.881C134.285 223.922 134.321 223.951 134.369 223.988C134.417 224.024 134.485 224.066 134.544 224.104C134.603 224.143 134.664 224.185 134.73 224.224L208.388 266.958C208.537 267.044 208.691 267.121 208.848 267.191C208.894 267.211 208.941 267.231 208.988 267.25C209.112 267.302 209.24 267.35 209.371 267.395C209.418 267.411 209.464 267.428 209.511 267.443C209.594 267.469 209.678 267.492 209.763 267.514C209.827 267.53 209.889 267.549 209.954 267.565C210.042 267.586 210.133 267.604 210.224 267.622C210.285 267.634 210.346 267.648 210.407 267.66C210.59 267.691 210.775 267.717 210.962 267.736C211.019 267.743 211.077 267.746 211.134 267.751C211.244 267.76 211.354 267.768 211.465 267.773C211.536 267.773 211.606 267.777 211.677 267.778C211.766 267.778 211.855 267.778 211.945 267.778C212.019 267.778 212.094 267.779 212.169 267.772C212.243 267.766 212.333 267.765 212.415 267.76C212.497 267.754 212.566 267.748 212.641 267.741C212.716 267.734 212.803 267.724 212.884 267.713C212.965 267.703 213.03 267.693 213.103 267.682C213.189 267.669 213.275 267.654 213.36 267.637C213.431 267.625 213.495 267.611 213.562 267.597C213.665 267.574 213.766 267.549 213.866 267.523C213.921 267.508 213.978 267.494 214.033 267.478C214.211 267.426 214.384 267.367 214.555 267.301C214.579 267.292 214.601 267.282 214.626 267.272C214.853 267.182 215.074 267.077 215.287 266.956L327.805 202.101C328.202 201.924 328.545 201.645 328.798 201.292C329.051 200.939 329.205 200.525 329.244 200.093L329.255 204.061C329.216 204.494 329.062 204.908 328.809 205.261C328.556 205.614 328.213 205.893 327.816 206.069L215.295 270.927C215.082 271.047 214.861 271.153 214.634 271.243C214.619 271.249 214.606 271.258 214.591 271.263L214.565 271.272C214.396 271.338 214.221 271.397 214.042 271.449C214.028 271.453 214.014 271.459 213.999 271.463C213.959 271.475 213.916 271.483 213.875 271.494C213.775 271.52 213.674 271.545 213.572 271.568C213.545 271.574 213.519 271.582 213.491 271.587C213.451 271.596 213.41 271.601 213.369 271.608C213.284 271.625 213.198 271.64 213.112 271.653C213.077 271.659 213.041 271.667 213.007 271.672C212.972 271.677 212.931 271.679 212.893 271.684C212.812 271.694 212.732 271.703 212.65 271.711C212.611 271.715 212.573 271.721 212.533 271.724C212.494 271.728 212.463 271.724 212.424 271.73C212.342 271.736 212.26 271.74 212.177 271.743C212.136 271.743 212.094 271.749 212.052 271.75C212.011 271.752 211.987 271.75 211.954 271.75C211.865 271.75 211.776 271.75 211.687 271.75C211.642 271.75 211.598 271.75 211.553 271.75C211.527 271.75 211.501 271.746 211.475 271.745C211.365 271.74 211.256 271.733 211.146 271.724C211.102 271.724 211.056 271.719 211.012 271.714L210.972 271.709C210.785 271.689 210.6 271.664 210.418 271.632H210.391C210.337 271.622 210.286 271.608 210.233 271.598C210.144 271.58 210.053 271.562 209.965 271.541C209.899 271.525 209.836 271.506 209.772 271.489C209.688 271.466 209.604 271.443 209.522 271.419L209.468 271.403C209.438 271.393 209.41 271.38 209.381 271.37C209.25 271.326 209.123 271.278 208.999 271.225C208.952 271.206 208.905 271.187 208.858 271.166C208.701 271.097 208.547 271.019 208.398 270.934L134.742 228.193C134.722 228.182 134.702 228.17 134.682 228.158C134.637 228.131 134.599 228.102 134.556 228.074C134.497 228.036 134.437 227.998 134.381 227.958C134.325 227.918 134.289 227.887 134.244 227.85C134.199 227.813 134.142 227.769 134.095 227.726C134.085 227.718 134.074 227.71 134.065 227.702C134.056 227.693 134.033 227.665 134.014 227.648C133.942 227.577 133.873 227.503 133.808 227.426C133.794 227.409 133.776 227.394 133.763 227.377C133.75 227.36 133.741 227.344 133.729 227.328C133.687 227.272 133.65 227.215 133.614 227.158C133.6 227.134 133.58 227.111 133.567 227.088C133.559 227.075 133.556 227.062 133.549 227.05C133.522 227 133.5 226.95 133.479 226.899C133.466 226.869 133.448 226.84 133.437 226.811C133.437 226.801 133.432 226.79 133.429 226.78C133.412 226.732 133.4 226.684 133.387 226.634C133.378 226.602 133.365 226.57 133.358 226.537C133.358 226.528 133.358 226.519 133.358 226.51C133.349 226.459 133.346 226.408 133.341 226.357C133.341 226.324 133.33 226.291 133.329 226.257V226.215L133.318 222.246C133.314 222.29 133.322 222.339 133.326 222.386Z" fill="#262626"/>
<path d="M134.754 220.237C132.845 221.336 132.832 223.122 134.731 224.224L208.388 266.958C209.457 267.501 210.639 267.785 211.837 267.785C213.036 267.785 214.218 267.501 215.286 266.958L327.808 202.096C329.716 200.997 329.73 199.211 327.831 198.109L254.17 155.379C253.102 154.835 251.92 154.552 250.721 154.552C249.522 154.552 248.34 154.835 247.272 155.379L134.754 220.237Z" fill="#505050"/>
<path d="M185.051 203.486L189.884 206.29L194.748 203.486L189.916 200.683L185.051 203.486Z" fill="#999999"/>
<path d="M192.348 199.281L197.18 202.084L202.044 199.281L197.212 196.477L192.348 199.281Z" fill="#999999"/>
<path d="M177.755 207.692L182.588 210.495L187.452 207.692L182.619 204.888L177.755 207.692Z" fill="#999999"/>
<path d="M187.436 210.495L192.269 213.299L197.132 210.495L192.3 207.692L187.436 210.495Z" fill="#999999"/>
<path d="M257.827 195.075L262.659 197.879L267.523 195.075L262.691 192.272L257.827 195.075Z" fill="#999999"/>
<path d="M199.645 195.075L204.477 197.878L209.341 195.075L204.509 192.271L199.645 195.075Z" fill="#999999"/>
<path d="M209.325 197.878L214.157 200.682L219.022 197.878L214.189 195.074L209.325 197.878Z" fill="#999999"/>
<path d="M202.027 202.085L206.86 204.888L211.726 202.084L206.893 199.28L202.027 202.085Z" fill="#999999"/>
<path d="M194.731 206.29L199.563 209.093L204.427 206.29L199.595 203.486L194.731 206.29Z" fill="#999999"/>
<path d="M204.412 209.093L209.245 211.897L214.108 209.093L209.276 206.29L204.412 209.093Z" fill="#999999"/>
<path d="M209.183 223.113L214.015 225.916L260.227 199.28L255.394 196.476L209.183 223.113Z" fill="#999999"/>
<path d="M211.708 204.888L216.54 207.692L221.406 204.887L216.574 202.084L211.708 204.888Z" fill="#999999"/>
<path d="M219.006 200.682L223.838 203.486L228.702 200.682L223.87 197.879L219.006 200.682Z" fill="#999999"/>
<path d="M216.621 193.673L221.454 196.477L226.318 193.673L221.485 190.87L216.621 193.673Z" fill="#999999"/>
<path d="M226.302 196.477L231.134 199.28L235.998 196.477L231.166 193.673L226.302 196.477Z" fill="#999999"/>
<path d="M214.238 186.664L219.07 189.468L223.934 186.664L219.101 183.861L214.238 186.664Z" fill="#999999"/>
<path d="M223.917 189.468L228.75 192.271L233.616 189.466L228.784 186.663L223.917 189.468Z" fill="#999999"/>
<path d="M233.598 192.272L238.43 195.075L243.296 192.27L238.464 189.466L233.598 192.272Z" fill="#999999"/>
<path d="M240.896 188.065L245.728 190.868L250.592 188.065L245.76 185.261L240.896 188.065Z" fill="#999999"/>
<path d="M248.192 183.859L253.024 186.663L257.888 183.859L253.056 181.056L248.192 183.859Z" fill="#999999"/>
<path d="M260.306 185.263L265.138 188.066L270.004 185.261L282.164 178.252L277.331 175.449L265.172 182.458L260.306 185.263Z" fill="#999999"/>
<path d="M255.487 179.654L260.319 182.458L265.186 179.653L274.914 174.046L270.081 171.242L260.353 176.85L255.487 179.654Z" fill="#999999"/>
<path d="M253.105 172.643L257.937 175.447L267.665 169.84L262.832 167.036L253.105 172.643Z" fill="#999999"/>
<path d="M250.72 165.635L255.552 168.439L260.416 165.635L255.584 162.832L250.72 165.635Z" fill="#999999"/>
<path d="M231.215 185.261L236.047 188.064L240.911 185.261L236.079 182.457L231.215 185.261Z" fill="#999999"/>
<path d="M238.511 181.056L243.343 183.859L248.207 181.056L243.375 178.252L238.511 181.056Z" fill="#999999"/>
<path d="M228.831 178.252L233.663 181.056L238.527 178.252L233.695 175.449L228.831 178.252Z" fill="#999999"/>
<path d="M236.126 174.047L240.958 176.85L245.822 174.047L240.99 171.243L236.126 174.047Z" fill="#999999"/>
<path d="M245.807 176.85L250.639 179.654L255.505 176.849L250.673 174.046L245.807 176.85Z" fill="#999999"/>
<path d="M253.011 189.468L257.843 192.272L262.707 189.468L257.874 186.664L253.011 189.468Z" fill="#999999"/>
<path d="M238.417 197.879L243.249 200.683L248.115 197.878L243.283 195.075L238.417 197.879Z" fill="#999999"/>
<path d="M245.714 193.673L250.546 196.477L255.41 193.673L250.578 190.87L245.714 193.673Z" fill="#999999"/>
<path d="M231.121 202.085L235.953 204.888L240.817 202.085L235.985 199.281L231.121 202.085Z" fill="#999999"/>
<path d="M223.825 206.29L228.657 209.094L233.521 206.29L228.689 203.486L223.825 206.29Z" fill="#999999"/>
<path d="M216.527 210.497L221.359 213.301L226.225 210.495L221.393 207.692L216.527 210.497Z" fill="#999999"/>
<path d="M209.231 214.702L214.063 217.506L218.927 214.702L214.095 211.899L209.231 214.702Z" fill="#999999"/>
<path d="M201.936 218.908L206.768 221.711L211.632 218.908L206.8 216.104L201.936 218.908Z" fill="#999999"/>
<path d="M194.637 223.114L199.469 225.918L204.335 223.113L199.503 220.309L194.637 223.114Z" fill="#999999"/>
<path d="M151 223.114L155.832 225.918L165.562 220.309L160.73 217.506L151 223.114Z" fill="#999999"/>
<path d="M165.547 223.113L170.379 225.916L175.243 223.113L170.41 220.309L165.547 223.113Z" fill="#999999"/>
<path d="M158.249 227.319L163.081 230.123L167.947 227.318L163.115 224.514L158.249 227.319Z" fill="#999999"/>
<path d="M165.497 231.525L170.33 234.328L177.627 230.122L172.795 227.318L165.497 231.525Z" fill="#999999"/>
<path d="M172.747 235.731L177.579 238.535L189.741 231.525L184.909 228.721L172.747 235.731Z" fill="#999999"/>
<path d="M201.885 227.319L206.718 230.123L211.583 227.318L206.751 224.515L201.885 227.319Z" fill="#999999"/>
<path d="M194.59 231.525L199.422 234.329L204.286 231.525L199.454 228.721L194.59 231.525Z" fill="#999999"/>
<path d="M187.341 227.32L192.174 230.123L197.038 227.32L192.205 224.516L187.341 227.32Z" fill="#999999"/>
<path d="M175.227 225.916L180.059 228.72L184.923 225.916L180.091 223.113L175.227 225.916Z" fill="#999999"/>
<path d="M170.458 211.898L175.29 214.702L180.154 211.899L175.322 209.095L170.458 211.898Z" fill="#999999"/>
<path d="M180.139 214.702L184.971 217.506L189.837 214.701L185.005 211.898L180.139 214.702Z" fill="#999999"/>
<path d="M163.162 216.104L167.995 218.907L172.858 216.104L168.026 213.3L163.162 216.104Z" fill="#999999"/>
<path d="M189.819 217.506L194.651 220.309L199.517 217.505L194.685 214.701L189.819 217.506Z" fill="#999999"/>
<path d="M172.843 218.907L177.675 221.711L182.539 218.907L177.706 216.104L172.843 218.907Z" fill="#999999"/>
<path d="M182.523 221.711L187.355 224.515L192.219 221.711L187.387 218.907L182.523 221.711Z" fill="#999999"/>
<path d="M197.117 213.299L201.949 216.102L206.812 213.299L201.98 210.495L197.117 213.299Z" fill="#999999"/>
<path d="M279.716 182.458L284.548 185.261L289.412 182.458L284.58 179.654L279.716 182.458Z" fill="#999999"/>
<path d="M272.421 186.663L277.253 189.467L282.117 186.663L277.285 183.859L272.421 186.663Z" fill="#999999"/>
<path d="M265.123 190.87L269.955 193.673L274.819 190.87L269.987 188.066L265.123 190.87Z" fill="#999999"/>
<path d="M187.294 235.73L192.126 238.534L196.99 235.731L192.158 232.927L187.294 235.73Z" fill="#999999"/>
<path d="M179.996 239.937L184.828 242.74L189.694 239.936L184.862 237.132L179.996 239.937Z" fill="#999999"/>
<path d="M243.425 169.84L248.257 172.643L253.121 169.84L248.288 167.036L243.425 169.84Z" fill="#999999"/>
<path d="M221.535 182.457L226.368 185.261L231.231 182.457L226.399 179.654L221.535 182.457Z" fill="#999999"/>
<path d="M206.942 190.87L211.774 193.673L216.638 190.87L211.806 188.066L206.942 190.87Z" fill="#999999"/>
<path d="M221.886 225.659C220.332 226.554 220.325 228.008 221.865 228.901L243.949 241.714C244.818 242.155 245.779 242.386 246.755 242.386C247.73 242.386 248.691 242.155 249.56 241.714L286.245 220.568C287.798 219.673 287.807 218.219 286.263 217.324L264.179 204.511C263.31 204.07 262.35 203.84 261.375 203.84C260.401 203.84 259.44 204.07 258.572 204.511L221.886 225.659Z" fill="#262626"/>
<path d="M128.354 136.127C128.354 136.071 128.358 136.016 128.363 135.96C128.363 135.934 128.363 135.909 128.368 135.884V135.85C128.368 135.831 128.368 135.811 128.373 135.792C128.378 135.735 128.384 135.679 128.391 135.623C128.398 135.567 128.407 135.507 128.416 135.449V135.445V135.437C128.425 135.383 128.434 135.329 128.444 135.275C128.454 135.221 128.468 135.155 128.481 135.095L128.496 135.032L128.505 134.993C128.511 134.967 128.517 134.941 128.523 134.914C128.539 134.853 128.555 134.792 128.572 134.731C128.584 134.687 128.597 134.643 128.61 134.598L128.618 134.572L128.625 134.549C128.643 134.489 128.662 134.429 128.682 134.369C128.702 134.311 128.722 134.252 128.744 134.194L128.755 134.162L128.766 134.135C128.779 134.098 128.793 134.062 128.807 134.024C128.829 133.969 128.852 133.913 128.878 133.857C128.894 133.817 128.912 133.777 128.929 133.738L128.938 133.717L128.949 133.692C128.974 133.636 128.999 133.58 129.025 133.525C129.051 133.469 129.083 133.403 129.113 133.343L129.126 133.317L129.145 133.282C129.169 133.233 129.194 133.185 129.22 133.136C129.246 133.088 129.285 133.019 129.318 132.96C129.336 132.929 129.352 132.899 129.371 132.869C129.377 132.856 129.384 132.844 129.391 132.832C129.421 132.782 129.453 132.733 129.484 132.684C129.53 132.608 129.577 132.532 129.625 132.459C129.633 132.447 129.64 132.434 129.648 132.422C129.718 132.322 129.784 132.223 129.859 132.126L129.868 132.113C129.918 132.043 129.97 131.978 130.021 131.913C130.063 131.86 130.105 131.807 130.148 131.756V131.752C130.192 131.699 130.236 131.647 130.281 131.596C130.326 131.545 130.371 131.495 130.417 131.447L130.438 131.424L130.462 131.399C130.494 131.365 130.526 131.329 130.558 131.298C130.606 131.25 130.654 131.201 130.704 131.154C130.719 131.14 130.734 131.127 130.749 131.112L130.783 131.081C130.807 131.059 130.831 131.036 130.853 131.011C130.904 130.965 130.955 130.92 131.006 130.877L131.077 130.821L131.111 130.793C131.128 130.78 131.145 130.765 131.163 130.752C131.212 130.711 131.263 130.673 131.315 130.636C131.351 130.609 131.389 130.583 131.426 130.557L131.445 130.543L131.465 130.529C131.513 130.496 131.562 130.464 131.612 130.432C131.661 130.4 131.709 130.372 131.758 130.343L131.792 130.323L244.318 65.4645L244.428 65.4034C244.476 65.3774 244.523 65.3535 244.569 65.3331C244.6 65.3176 244.63 65.3043 244.66 65.2902L244.682 65.2797L244.709 65.267C244.756 65.246 244.802 65.2263 244.85 65.208C244.898 65.1897 244.943 65.1722 244.991 65.156L245.015 65.1483L245.036 65.1412L245.129 65.1103C245.177 65.0963 245.225 65.0829 245.27 65.071L245.34 65.0562L245.37 65.0499L245.414 65.0401C245.465 65.0302 245.515 65.0218 245.565 65.0148C245.596 65.0105 245.626 65.0084 245.657 65.0056H245.688H245.719C245.774 65.0056 245.828 65 245.882 65C245.906 65 245.928 65 245.952 65H246.005C246.023 65 246.042 65 246.061 65C246.131 65.0063 246.195 65.0162 246.26 65.0288C246.275 65.0288 246.288 65.0372 246.302 65.0401C246.368 65.0544 246.434 65.0724 246.498 65.0942L246.513 65.1012C246.605 65.1342 246.694 65.1751 246.778 65.2235L250.215 67.2171C250.13 67.1687 250.041 67.1278 249.949 67.0948C249.88 67.0702 249.81 67.05 249.738 67.0344C249.724 67.0344 249.712 67.0253 249.697 67.0225C249.611 67.0058 249.525 66.995 249.438 66.9901H249.385C249.297 66.9868 249.209 66.9887 249.122 66.9958H249.09C248.994 67.005 248.898 67.0198 248.803 67.04L248.773 67.0463C248.67 67.0696 248.569 67.098 248.469 67.1314L248.447 67.1384C248.34 67.1754 248.231 67.2192 248.119 67.2698L248.097 67.2804C247.984 67.3324 247.869 67.3914 247.754 67.4582L135.235 132.314C135.118 132.384 135.003 132.454 134.889 132.534L134.869 132.548C134.762 132.622 134.657 132.701 134.555 132.785L134.521 132.812C134.421 132.894 134.322 132.98 134.226 133.069L134.192 133.101C134.095 133.195 133.999 133.29 133.904 133.388L133.881 133.412C133.781 133.518 133.683 133.629 133.589 133.742V133.747C133.493 133.863 133.398 133.983 133.307 134.106L133.298 134.119C133.219 134.228 133.142 134.339 133.067 134.452C133.018 134.523 132.972 134.601 132.926 134.676C132.888 134.738 132.848 134.799 132.812 134.862C132.794 134.892 132.777 134.923 132.76 134.953C132.7 135.059 132.642 135.164 132.587 135.274L132.568 135.31C132.502 135.442 132.439 135.575 132.38 135.709L132.371 135.731C132.313 135.863 132.259 135.995 132.21 136.129L132.2 136.155C132.149 136.292 132.103 136.429 132.059 136.566L132.052 136.591C132.012 136.723 131.977 136.855 131.946 136.987L131.938 137.024C131.906 137.161 131.879 137.296 131.857 137.432V137.437C131.836 137.574 131.819 137.709 131.808 137.844V137.877C131.798 138.011 131.792 138.144 131.793 138.275L132.015 216.571C132.015 216.702 132.021 216.828 132.033 216.95V216.983C132.044 217.095 132.06 217.202 132.08 217.306L132.088 217.347C132.109 217.447 132.134 217.542 132.162 217.634L132.179 217.685C132.208 217.771 132.24 217.853 132.275 217.931C132.28 217.94 132.283 217.95 132.287 217.959C132.329 218.045 132.376 218.129 132.428 218.209C132.498 218.315 132.578 218.414 132.668 218.504C132.689 218.526 132.71 218.547 132.732 218.567C132.821 218.651 132.919 218.726 133.024 218.789L129.587 216.795C129.482 216.732 129.385 216.658 129.296 216.573C129.273 216.553 129.252 216.533 129.231 216.511C129.141 216.421 129.061 216.321 128.991 216.215V216.211C128.942 216.135 128.899 216.056 128.86 215.974L128.856 215.965C128.852 215.956 128.849 215.946 128.845 215.937C128.821 215.885 128.798 215.833 128.774 215.777C128.764 215.75 128.755 215.72 128.745 215.691L128.729 215.64C128.724 215.625 128.718 215.611 128.714 215.595C128.697 215.538 128.681 215.479 128.667 215.419C128.662 215.397 128.659 215.374 128.655 215.353L128.646 215.311C128.642 215.291 128.637 215.27 128.634 215.249C128.624 215.195 128.616 215.14 128.609 215.084C128.605 215.053 128.602 215.021 128.599 214.989V214.956L128.595 214.918C128.591 214.864 128.587 214.809 128.585 214.754C128.583 214.698 128.585 214.644 128.581 214.587V214.577L128.358 136.281C128.352 136.231 128.353 136.179 128.354 136.127Z" fill="#262626"/>
<path d="M135.235 132.315C134.231 132.967 133.394 133.846 132.795 134.882C132.196 135.918 131.85 137.081 131.786 138.276L132.009 216.571C132.015 218.765 133.567 219.651 135.478 218.55L247.999 153.693C249.005 153.041 249.841 152.161 250.44 151.124C251.04 150.087 251.385 148.924 251.448 147.728L251.226 69.433C251.219 67.2433 249.667 66.3571 247.756 67.459L135.235 132.315Z" fill="#27AE60"/>
<path d="M248.787 69.674L136.455 134.423C135.823 134.861 135.296 135.433 134.911 136.098C134.525 136.763 134.292 137.504 134.227 138.27L134.448 216.334L246.781 151.585C247.413 151.146 247.94 150.574 248.325 149.909C248.711 149.243 248.944 148.501 249.009 147.735L248.787 69.674V69.674ZM249.307 66.9854C250.44 66.9854 251.221 67.882 251.225 69.433L251.447 147.73C251.384 148.926 251.039 150.089 250.439 151.126C249.84 152.163 249.004 153.043 247.998 153.695L135.48 218.55C135.014 218.839 134.48 219.002 133.932 219.022C132.797 219.022 132.017 218.125 132.013 216.571L131.79 138.276C131.854 137.081 132.2 135.918 132.799 134.882C133.398 133.846 134.235 132.967 135.239 132.315L247.755 67.459C248.221 67.1689 248.754 67.0056 249.303 66.9854H249.307Z" fill="#1F1F1F"/>
<path d="M158.613 205.501L163.574 208.38L233.933 167.824L228.973 164.947L158.613 205.501Z" fill="#1F1F1F"/>
<g opacity="0.5">
<path d="M157.554 84.2901C156.73 84.8249 156.044 85.5467 155.553 86.3966C155.061 87.2465 154.778 88.2003 154.726 89.1804L154.929 160.59C154.934 162.387 156.209 163.108 157.775 162.206L265.654 100.023C266.478 99.4895 267.164 98.7684 267.656 97.9192C268.147 97.07 268.43 96.1168 268.482 95.1374L268.28 23.728C268.274 21.9312 266.999 21.2052 265.432 22.1082L157.554 84.2901Z" fill="white"/>
</g>
<path d="M171.379 85.0567C171.057 85.2664 170.788 85.5493 170.596 85.8824C170.403 86.2154 170.292 86.589 170.271 86.973L170.288 92.7354C170.288 93.4381 170.788 93.7241 171.403 93.3678L251.541 47.1766C251.863 46.9669 252.132 46.684 252.324 46.3509C252.517 46.0179 252.628 45.6443 252.648 45.2603L252.632 39.4979C252.632 38.7952 252.129 38.5106 251.517 38.8655L171.379 85.0567Z" fill="#E3E3E3"/>
<path d="M216.498 81.3442C216.175 81.5538 215.906 81.8367 215.713 82.1697C215.521 82.5027 215.41 82.8765 215.389 83.2605L215.495 120.337C215.495 121.039 215.995 121.32 216.61 120.969L251.826 100.67C252.149 100.461 252.418 100.178 252.61 99.8458C252.803 99.5133 252.914 99.14 252.935 98.7564L252.829 61.6811C252.829 60.9784 252.326 60.693 251.714 61.0486L216.498 81.3442Z" fill="#E3E3E3"/>
<path d="M171.584 111.016C171.261 111.226 170.993 111.509 170.801 111.841C170.609 112.174 170.498 112.548 170.478 112.931L170.486 115.495C170.486 116.198 170.986 116.484 171.598 116.131L201.683 98.7916C202.006 98.582 202.275 98.299 202.468 97.9658C202.66 97.6326 202.771 97.2587 202.791 96.8745L202.784 94.311C202.784 93.6082 202.283 93.3215 201.668 93.6785L171.584 111.016Z" fill="#E3E3E3"/>
<path d="M171.617 122.655C171.294 122.864 171.026 123.147 170.834 123.48C170.642 123.813 170.531 124.186 170.511 124.57L170.518 127.133C170.518 127.836 171.019 128.123 171.631 127.77L201.715 110.429C202.038 110.22 202.307 109.937 202.499 109.604C202.692 109.271 202.803 108.897 202.823 108.513L202.816 105.949C202.816 105.246 202.316 104.959 201.701 105.316L171.617 122.655Z" fill="#E3E3E3"/>
<path d="M171.65 134.293C171.327 134.502 171.059 134.785 170.867 135.118C170.675 135.451 170.565 135.824 170.545 136.208L170.552 138.772C170.552 139.475 171.052 139.761 171.665 139.404L201.748 122.064C202.071 121.854 202.34 121.571 202.532 121.238C202.725 120.905 202.836 120.532 202.856 120.148L202.849 117.583C202.849 116.881 202.348 116.595 201.734 116.951L171.65 134.293Z" fill="#E3E3E3"/>
<defs>
<filter id="filter0_f_637_1845" x="461" y="285.15" width="81" height="54.9426" filterUnits="userSpaceOnUse" color-interpolation-filters="sRGB">
<feFlood flood-opacity="0" result="BackgroundImageFix"/>
<feBlend mode="normal" in="SourceGraphic" in2="BackgroundImageFix" result="shape"/>
<feGaussianBlur stdDeviation="5" result="effect1_foregroundBlur_637_1845"/>
</filter>
</defs>
</svg>
