<svg width="46" height="32" viewBox="0 0 46 32" fill="none" xmlns="http://www.w3.org/2000/svg">
<path d="M45.7197 17.7787C45.6611 25.6796 39.2198 32.0428 31.3189 32.0009C30.2863 32.0009 29.5662 30.9794 29.9095 30.0054C31.3719 25.875 32.0752 21.4849 31.972 17.0977C31.958 16.4865 31.2435 16.573 31.1626 16.9302L29.876 23.1818C29.7839 23.6283 29.3681 23.9437 28.9132 23.8879C28.4583 23.8432 28.1122 23.4609 28.1122 23.0032L28.0927 14.4408C28.0927 14.184 27.8806 13.9747 27.6238 13.9747C27.3866 13.9747 27.1884 14.1533 27.1605 14.3878L26.273 21.9957C26.22 22.4478 25.8404 22.7855 25.3883 22.7855C25.3855 22.7855 25.3855 22.7855 25.3827 22.7855C24.9278 22.7827 24.5483 22.4366 24.5008 21.9845L23.591 13.1151C23.5519 12.7244 22.8738 12.73 22.8403 13.1207L22.1705 20.9435C22.1342 21.3705 21.7965 21.711 21.3695 21.7529C20.9481 21.8087 20.5462 21.5296 20.4262 21.1165L18.6763 15.1581C18.6233 14.9739 18.4502 14.8566 18.2577 14.879C18.0428 14.9013 17.8921 15.0855 17.9088 15.3004L18.5758 23.4469C18.6093 23.8348 18.3833 24.2004 18.0204 24.3456C17.6576 24.4907 17.2418 24.3846 16.9962 24.0804L15.464 22.191C15.1626 21.8198 14.6296 21.7333 14.2249 21.9957C13.8146 22.258 13.6779 22.7855 13.9011 23.2181L16.7339 29.9217C17.1497 30.9097 16.4269 32.0009 15.3552 32.0009H10.9121C4.91736 32.026 0.0361429 27.1922 -0.00013824 21.1975C-0.00851082 18.3229 1.15528 15.5683 3.22331 13.5701C4.68572 12.116 6.53327 11.1141 8.54548 10.6815C8.87759 7.97438 10.1111 5.45702 12.0536 3.54249C16.8818 -1.17406 24.5901 -1.17964 29.4267 3.52854L29.569 3.67087C35.5694 2.86431 41.4218 5.94542 44.1541 11.3457C45.1895 13.3328 45.7253 15.5404 45.7197 17.7787Z" fill="white"/>
</svg>
