<svg width="570" height="475" viewBox="0 0 570 475" fill="none" xmlns="http://www.w3.org/2000/svg">
<path d="M487.22 340.241C498.948 347.028 499.005 358.029 487.358 364.813L306.903 469.911C295.251 476.697 276.3 476.697 264.574 469.911L82.938 364.814C71.2151 358.032 71.1486 347.029 82.8005 340.243L263.256 235.143C274.903 228.36 293.858 228.359 305.584 235.143L487.22 340.241Z" fill="#212121"/>
<path d="M487.22 306.233C498.948 313.02 499.005 324.021 487.358 330.805L306.903 435.903C295.251 442.688 276.3 442.688 264.574 435.903L82.938 330.806C71.2151 324.024 71.1486 313.021 82.8005 306.235L263.256 201.135C274.903 194.352 293.858 194.351 305.584 201.135L487.22 306.233Z" fill="#292929"/>
<path d="M387.894 192.178C382.725 195.144 382.7 199.951 387.833 202.915L467.38 248.837C472.516 251.801 480.869 251.801 486.039 248.837L566.105 202.915C571.273 199.951 571.303 195.144 566.166 192.179L486.62 146.258C481.486 143.294 473.129 143.294 467.961 146.258L387.894 192.178Z" fill="#212121"/>
<path d="M487.22 272.966C498.948 279.753 499.005 290.754 487.358 297.538L306.903 402.636C295.251 409.422 276.3 409.422 264.574 402.636L82.938 297.54C71.2151 290.757 71.1486 279.754 82.8005 272.968L263.256 167.868C274.903 161.085 293.858 161.084 305.584 167.868L487.22 272.966Z" fill="#323232"/>
<path d="M387.894 167.172C382.725 170.138 382.7 174.945 387.833 177.909L467.38 223.831C472.516 226.795 480.869 226.795 486.039 223.831L566.105 177.909C571.273 174.945 571.303 170.138 566.166 167.173L486.62 121.252C481.486 118.288 473.129 118.288 467.961 121.252L387.894 167.172Z" fill="#292929"/>
<path d="M374.046 96.5533C379.213 99.5432 379.238 104.39 374.107 107.379L294.607 153.679C289.474 156.668 281.127 156.668 275.96 153.679L195.941 107.379C190.776 104.39 190.747 99.5432 195.88 96.5533L275.379 50.2527C280.51 47.265 288.862 47.265 294.026 50.2527L374.046 96.5533Z" fill="#212121"/>
<path d="M387.894 144.167C382.725 147.132 382.7 151.94 387.833 154.904L467.38 200.825C472.516 203.79 480.869 203.79 486.039 200.825L566.105 154.904C571.273 151.94 571.303 147.132 566.166 144.168L486.62 98.2462C481.486 95.2822 473.129 95.2822 467.961 98.2462L387.894 144.167Z" fill="#323232"/>
<path d="M374.046 71.5472C379.213 74.5371 379.238 79.3842 374.107 82.3726L294.607 128.673C289.474 131.662 281.127 131.662 275.96 128.673L195.941 82.3726C190.776 79.3842 190.747 74.5371 195.88 71.5472L275.379 25.2466C280.51 22.2589 288.862 22.2589 294.026 25.2466L374.046 71.5472Z" fill="#292929"/>
<path d="M3.89463 192.178C-1.27543 195.143 -1.30058 199.951 3.83398 202.915L83.3804 248.837C88.5165 251.801 96.8692 251.801 102.039 248.837L182.106 202.916C187.273 199.952 187.302 195.144 182.166 192.179L102.62 146.258C97.486 143.294 89.1289 143.294 83.961 146.258L3.89463 192.178Z" fill="#212121"/>
<path d="M374.046 48.5413C379.213 51.5312 379.238 56.3783 374.107 59.3667L294.607 105.667C289.474 108.656 281.127 108.656 275.96 105.667L195.941 59.3667C190.776 56.3783 190.747 51.5312 195.88 48.5413L275.379 2.24076C280.51 -0.74692 288.862 -0.74692 294.026 2.24076L374.046 48.5413Z" fill="#323232"/>
<path d="M3.89463 167.172C-1.27543 170.138 -1.30058 174.945 3.83398 177.909L83.3804 223.831C88.5165 226.795 96.8692 226.795 102.039 223.831L182.106 177.91C187.273 174.946 187.302 170.138 182.166 167.174L102.62 121.252C97.486 118.288 89.1289 118.288 83.961 121.252L3.89463 167.172Z" fill="#292929"/>
<path d="M3.89463 144.166C-1.27543 147.132 -1.30058 151.939 3.83398 154.903L83.3804 200.825C88.5165 203.79 96.8692 203.79 102.039 200.825L182.106 154.904C187.273 151.94 187.302 147.133 182.166 144.168L102.62 98.2462C97.486 95.2822 89.1289 95.2822 83.961 98.2462L3.89463 144.166Z" fill="#323232"/>
<path d="M180.381 286.947C180.386 287.001 180.39 287.055 180.4 287.109C180.41 287.163 180.422 287.196 180.434 287.239C180.445 287.283 180.461 287.342 180.479 287.393C180.498 287.445 180.515 287.476 180.533 287.518C180.558 287.572 180.581 287.625 180.61 287.678C180.631 287.716 180.657 287.752 180.68 287.792C180.718 287.852 180.757 287.912 180.805 287.971C180.831 288.006 180.86 288.04 180.89 288.075C180.96 288.157 181.034 288.234 181.113 288.308C181.143 288.336 181.169 288.365 181.201 288.391C181.251 288.436 181.307 288.479 181.363 288.522C181.418 288.566 181.458 288.597 181.51 288.635C181.562 288.674 181.636 288.717 181.699 288.758C181.763 288.799 181.829 288.843 181.901 288.884L261.609 333.934C261.77 334.024 261.937 334.106 262.107 334.179C262.158 334.2 262.208 334.221 262.259 334.241C262.393 334.297 262.532 334.347 262.673 334.394C262.724 334.411 262.773 334.429 262.825 334.445C262.914 334.473 263.006 334.496 263.098 334.519C263.166 334.537 263.234 334.557 263.304 334.573C263.4 334.596 263.498 334.615 263.596 334.634C263.662 334.647 263.728 334.662 263.795 334.673C263.992 334.707 264.192 334.734 264.395 334.754C264.457 334.761 264.519 334.764 264.581 334.77C264.7 334.779 264.819 334.787 264.94 334.793C265.016 334.793 265.092 334.797 265.168 334.799C265.265 334.799 265.362 334.799 265.458 334.799C265.539 334.799 265.62 334.799 265.701 334.792C265.781 334.785 265.878 334.784 265.967 334.779C266.056 334.773 266.131 334.766 266.212 334.759C266.292 334.751 266.388 334.741 266.474 334.73C266.561 334.719 266.633 334.709 266.711 334.697C266.805 334.683 266.898 334.667 266.99 334.65C267.066 334.636 267.136 334.622 267.21 334.607C267.32 334.583 267.429 334.556 267.537 334.533C267.597 334.517 267.658 334.502 267.718 334.485C267.911 334.43 268.098 334.369 268.284 334.299C268.309 334.29 268.333 334.279 268.36 334.268C268.606 334.173 268.845 334.062 269.075 333.936L390.834 265.562C391.264 265.376 391.635 265.082 391.909 264.71C392.183 264.338 392.349 263.901 392.391 263.445L392.403 267.629C392.361 268.084 392.195 268.521 391.921 268.893C391.647 269.265 391.276 269.559 390.846 269.745L269.083 338.117C268.853 338.244 268.614 338.356 268.368 338.451C268.352 338.457 268.338 338.466 268.322 338.472L268.293 338.482C268.11 338.551 267.921 338.613 267.727 338.668C267.711 338.672 267.697 338.678 267.681 338.683C267.637 338.695 267.59 338.703 267.546 338.715C267.438 338.743 267.329 338.769 267.219 338.789C267.189 338.796 267.161 338.804 267.13 338.81C267.088 338.819 267.043 338.824 266.999 338.832C266.907 338.849 266.814 338.866 266.72 338.88C266.682 338.886 266.644 338.894 266.607 338.899C266.57 338.904 266.525 338.907 266.484 338.912C266.397 338.923 266.309 338.932 266.221 338.94C266.179 338.945 266.137 338.951 266.094 338.954C266.052 338.958 266.018 338.954 265.976 338.96C265.887 338.966 265.799 338.971 265.71 338.974C265.664 338.974 265.619 338.98 265.574 338.982C265.529 338.983 265.503 338.982 265.468 338.982C265.371 338.982 265.275 338.982 265.179 338.982C265.13 338.982 265.082 338.982 265.034 338.982C265.006 338.982 264.978 338.982 264.95 338.977C264.83 338.972 264.712 338.963 264.594 338.954C264.545 338.954 264.496 338.949 264.448 338.944L264.405 338.938C264.203 338.917 264.003 338.891 263.805 338.857L263.776 338.853C263.719 338.843 263.663 338.829 263.606 338.817C263.508 338.798 263.411 338.78 263.315 338.757C263.244 338.74 263.176 338.721 263.106 338.703C263.016 338.679 262.925 338.654 262.837 338.629L262.777 338.612C262.744 338.602 262.715 338.588 262.683 338.577C262.542 338.531 262.404 338.48 262.27 338.425C262.219 338.404 262.169 338.384 262.118 338.363C261.947 338.289 261.781 338.207 261.619 338.117L181.914 293.069L181.849 293.032C181.8 293.004 181.759 292.972 181.712 292.944C181.648 292.903 181.583 292.863 181.524 292.821C181.464 292.778 181.424 292.747 181.371 292.707C181.319 292.668 181.26 292.621 181.21 292.577C181.199 292.568 181.187 292.56 181.177 292.551C181.167 292.542 181.142 292.512 181.122 292.494C181.043 292.42 180.969 292.342 180.899 292.26C180.884 292.243 180.864 292.226 180.85 292.209C180.836 292.191 180.827 292.174 180.814 292.157C180.768 292.098 180.728 292.038 180.689 291.978C180.673 291.952 180.652 291.928 180.638 291.903C180.63 291.89 180.626 291.877 180.619 291.864C180.59 291.812 180.566 291.758 180.542 291.704C180.529 291.673 180.51 291.643 180.498 291.612C180.498 291.601 180.492 291.59 180.488 291.58C180.47 291.529 180.457 291.478 180.443 291.426C180.434 291.392 180.42 291.358 180.413 291.323C180.413 291.313 180.413 291.304 180.413 291.295C180.403 291.241 180.399 291.187 180.394 291.133C180.394 291.098 180.383 291.063 180.382 291.028V290.983L180.37 286.8C180.367 286.846 180.376 286.896 180.381 286.947Z" fill="#262626"/>
<path d="M181.926 284.681C179.86 285.84 179.846 287.722 181.901 288.884L261.609 333.935C262.765 334.507 264.044 334.806 265.341 334.806C266.639 334.806 267.917 334.507 269.074 333.935L390.834 265.562C392.899 264.402 392.914 262.52 390.859 261.358L311.151 216.308C309.995 215.735 308.716 215.437 307.418 215.437C306.121 215.437 304.842 215.735 303.686 216.308L181.926 284.681Z" fill="#505050"/>
<path d="M236.356 267.023L241.585 269.979L246.849 267.023L241.62 264.068L236.356 267.023Z" fill="#999999"/>
<path d="M244.251 262.59L249.48 265.545L254.744 262.59L249.515 259.634L244.251 262.59Z" fill="#999999"/>
<path d="M228.461 271.456L233.69 274.412L238.953 271.457L233.724 268.501L228.461 271.456Z" fill="#999999"/>
<path d="M238.936 274.412L244.165 277.367L249.429 274.412L244.2 271.457L238.936 274.412Z" fill="#999999"/>
<path d="M315.109 258.155L320.338 261.111L325.601 258.155L320.372 255.2L315.109 258.155Z" fill="#999999"/>
<path d="M252.148 258.155L257.377 261.11L262.641 258.155L257.412 255.199L252.148 258.155Z" fill="#999999"/>
<path d="M262.623 261.11L267.853 264.065L273.116 261.11L267.887 258.154L262.623 261.11Z" fill="#999999"/>
<path d="M254.726 265.545L259.955 268.501L265.221 265.544L259.991 262.588L254.726 265.545Z" fill="#999999"/>
<path d="M246.831 269.978L252.06 272.933L257.324 269.978L252.095 267.022L246.831 269.978Z" fill="#999999"/>
<path d="M257.306 272.933L262.535 275.889L267.799 272.933L262.57 269.978L257.306 272.933Z" fill="#999999"/>
<path d="M262.469 287.712L267.698 290.668L317.706 262.589L312.476 259.633L262.469 287.712Z" fill="#999999"/>
<path d="M265.202 268.501L270.431 271.456L275.697 268.499L270.468 265.544L265.202 268.501Z" fill="#999999"/>
<path d="M273.099 264.066L278.328 267.022L283.591 264.066L278.362 261.111L273.099 264.066Z" fill="#999999"/>
<path d="M270.519 256.677L275.748 259.633L281.012 256.677L275.783 253.722L270.519 256.677Z" fill="#999999"/>
<path d="M280.994 259.633L286.223 262.588L291.487 259.633L286.258 256.677L280.994 259.633Z" fill="#999999"/>
<path d="M267.939 249.288L273.168 252.244L278.431 249.288L273.202 246.333L267.939 249.288Z" fill="#999999"/>
<path d="M278.415 252.244L283.644 255.2L288.909 252.243L283.68 249.288L278.415 252.244Z" fill="#999999"/>
<path d="M288.89 255.199L294.119 258.154L299.384 255.198L294.155 252.242L288.89 255.199Z" fill="#999999"/>
<path d="M296.787 250.766L302.016 253.721L307.28 250.766L302.05 247.81L296.787 250.766Z" fill="#999999"/>
<path d="M304.682 246.332L309.911 249.288L315.175 246.332L309.945 243.377L304.682 246.332Z" fill="#999999"/>
<path d="M317.791 247.811L323.021 250.766L328.286 247.81L341.445 240.421L336.215 237.466L323.057 244.855L317.791 247.811Z" fill="#999999"/>
<path d="M312.576 241.899L317.806 244.855L323.072 241.897L333.599 235.987L328.37 233.031L317.843 238.942L312.576 241.899Z" fill="#999999"/>
<path d="M309.999 234.509L315.228 237.464L325.754 231.553L320.525 228.598L309.999 234.509Z" fill="#999999"/>
<path d="M307.419 227.12L312.648 230.075L317.911 227.12L312.682 224.165L307.419 227.12Z" fill="#999999"/>
<path d="M286.312 247.81L291.541 250.765L296.804 247.81L291.575 244.854L286.312 247.81Z" fill="#999999"/>
<path d="M294.206 243.377L299.435 246.332L304.699 243.377L299.47 240.421L294.206 243.377Z" fill="#999999"/>
<path d="M283.731 240.421L288.96 243.377L294.224 240.421L288.995 237.466L283.731 240.421Z" fill="#999999"/>
<path d="M291.626 235.988L296.855 238.943L302.118 235.988L296.889 233.032L291.626 235.988Z" fill="#999999"/>
<path d="M302.101 238.943L307.331 241.899L312.596 238.942L307.367 235.986L302.101 238.943Z" fill="#999999"/>
<path d="M309.896 252.244L315.125 255.2L320.389 252.244L315.16 249.289L309.896 252.244Z" fill="#999999"/>
<path d="M294.104 261.112L299.333 264.068L304.599 261.111L299.37 258.155L294.104 261.112Z" fill="#999999"/>
<path d="M302.001 256.677L307.23 259.633L312.494 256.677L307.265 253.722L302.001 256.677Z" fill="#999999"/>
<path d="M286.209 265.545L291.438 268.501L296.702 265.545L291.473 262.59L286.209 265.545Z" fill="#999999"/>
<path d="M278.314 269.979L283.543 272.934L288.806 269.979L283.577 267.023L278.314 269.979Z" fill="#999999"/>
<path d="M270.416 274.413L275.645 277.369L280.911 274.412L275.682 271.457L270.416 274.413Z" fill="#999999"/>
<path d="M262.521 278.846L267.75 281.802L273.014 278.846L267.785 275.891L262.521 278.846Z" fill="#999999"/>
<path d="M254.627 283.28L259.856 286.235L265.119 283.28L259.89 280.324L254.627 283.28Z" fill="#999999"/>
<path d="M246.729 287.714L251.958 290.669L257.224 287.713L251.995 284.757L246.729 287.714Z" fill="#999999"/>
<path d="M199.508 287.714L204.737 290.669L215.266 284.757L210.037 281.802L199.508 287.714Z" fill="#999999"/>
<path d="M215.249 287.713L220.478 290.668L225.741 287.713L220.512 284.757L215.249 287.713Z" fill="#999999"/>
<path d="M207.351 292.147L212.581 295.102L217.846 292.146L212.617 289.19L207.351 292.147Z" fill="#999999"/>
<path d="M215.195 296.58L220.424 299.536L228.322 295.102L223.093 292.146L215.195 296.58Z" fill="#999999"/>
<path d="M223.041 301.015L228.27 303.97L241.431 296.58L236.201 293.625L223.041 301.015Z" fill="#999999"/>
<path d="M254.573 292.147L259.802 295.103L265.067 292.146L259.838 289.191L254.573 292.147Z" fill="#999999"/>
<path d="M246.678 296.58L251.907 299.536L257.17 296.58L251.941 293.625L246.678 296.58Z" fill="#999999"/>
<path d="M238.834 292.147L244.063 295.102L249.327 292.147L244.098 289.191L238.834 292.147Z" fill="#999999"/>
<path d="M225.724 290.668L230.953 293.624L236.217 290.668L230.988 287.713L225.724 290.668Z" fill="#999999"/>
<path d="M220.563 275.891L225.793 278.846L231.056 275.891L225.826 272.935L220.563 275.891Z" fill="#999999"/>
<path d="M231.039 278.845L236.268 281.801L241.534 278.844L236.305 275.889L231.039 278.845Z" fill="#999999"/>
<path d="M212.668 280.324L217.898 283.279L223.162 280.324L217.932 277.368L212.668 280.324Z" fill="#999999"/>
<path d="M241.515 281.802L246.744 284.757L252.009 281.8L246.78 278.844L241.515 281.802Z" fill="#999999"/>
<path d="M223.144 283.279L228.373 286.235L233.636 283.279L228.407 280.324L223.144 283.279Z" fill="#999999"/>
<path d="M233.619 286.235L238.848 289.191L244.112 286.235L238.883 283.279L233.619 286.235Z" fill="#999999"/>
<path d="M249.412 277.367L254.641 280.323L259.904 277.367L254.675 274.412L249.412 277.367Z" fill="#999999"/>
<path d="M338.796 244.855L344.025 247.81L349.288 244.855L344.059 241.899L338.796 244.855Z" fill="#999999"/>
<path d="M330.901 249.288L336.13 252.243L341.394 249.288L336.164 246.332L330.901 249.288Z" fill="#999999"/>
<path d="M323.004 253.722L328.233 256.678L333.496 253.722L328.267 250.767L323.004 253.722Z" fill="#999999"/>
<path d="M238.782 301.013L244.012 303.969L249.275 301.014L244.046 298.058L238.782 301.013Z" fill="#999999"/>
<path d="M230.885 305.449L236.114 308.404L241.379 305.447L236.15 302.491L230.885 305.449Z" fill="#999999"/>
<path d="M299.523 231.553L304.752 234.509L310.016 231.553L304.787 228.598L299.523 231.553Z" fill="#999999"/>
<path d="M275.836 244.854L281.065 247.81L286.329 244.854L281.1 241.899L275.836 244.854Z" fill="#999999"/>
<path d="M260.043 253.722L265.272 256.677L270.536 253.722L265.307 250.766L260.043 253.722Z" fill="#999999"/>
<path d="M276.215 290.397C274.534 291.341 274.526 292.873 276.192 293.815L300.09 307.321C301.03 307.787 302.07 308.029 303.125 308.029C304.18 308.029 305.22 307.787 306.16 307.321L345.859 285.03C347.54 284.086 347.549 282.553 345.879 281.609L321.982 268.104C321.042 267.639 320.002 267.396 318.948 267.396C317.893 267.396 316.854 267.639 315.914 268.104L276.215 290.397Z" fill="#262626"/>
<path d="M175.002 196.013C175.002 195.955 175.007 195.896 175.011 195.837C175.011 195.81 175.011 195.784 175.017 195.757V195.722C175.017 195.702 175.017 195.681 175.022 195.66C175.027 195.601 175.034 195.542 175.042 195.482C175.049 195.423 175.059 195.361 175.069 195.299V195.287C175.079 195.23 175.089 195.173 175.1 195.116C175.11 195.059 175.126 194.989 175.139 194.925C175.145 194.904 175.151 194.882 175.155 194.859L175.165 194.819C175.172 194.79 175.178 194.763 175.186 194.735C175.202 194.67 175.219 194.606 175.238 194.541C175.25 194.496 175.265 194.449 175.279 194.402L175.288 194.375L175.295 194.35C175.315 194.286 175.336 194.223 175.357 194.161C175.378 194.099 175.401 194.037 175.424 193.975L175.436 193.942L175.448 193.914C175.462 193.875 175.477 193.84 175.493 193.797C175.516 193.738 175.541 193.679 175.569 193.621C175.587 193.578 175.605 193.536 175.624 193.495L175.634 193.472L175.646 193.447C175.672 193.387 175.7 193.329 175.728 193.27C175.756 193.212 175.791 193.142 175.823 193.079L175.839 193.051L175.858 193.014C175.885 192.963 175.911 192.912 175.939 192.861C175.967 192.809 176.01 192.737 176.046 192.675L176.102 192.579L176.124 192.54C176.156 192.487 176.192 192.436 176.225 192.384C176.276 192.304 176.325 192.224 176.377 192.146L176.401 192.108C176.475 192.002 176.551 191.898 176.63 191.796L176.64 191.782C176.694 191.708 176.749 191.64 176.806 191.571C176.851 191.515 176.896 191.46 176.943 191.406V191.401C176.99 191.346 177.039 191.291 177.088 191.237C177.136 191.183 177.184 191.131 177.233 191.08L177.257 191.056L177.283 191.029C177.317 190.994 177.351 190.955 177.386 190.923C177.438 190.872 177.491 190.821 177.544 190.775L177.593 190.73L177.63 190.697C177.656 190.674 177.682 190.649 177.706 190.623C177.761 190.575 177.817 190.528 177.872 190.482L177.948 190.423L177.986 190.394C178.004 190.38 178.022 190.364 178.041 190.35C178.096 190.308 178.151 190.267 178.206 190.228C178.245 190.2 178.286 190.172 178.326 190.145L178.348 190.13L178.368 190.115C178.421 190.08 178.474 190.046 178.527 190.013C178.581 189.98 178.632 189.949 178.686 189.919L178.722 189.898L300.487 121.522C300.527 121.5 300.566 121.478 300.606 121.458C300.658 121.43 300.709 121.405 300.758 121.384C300.791 121.367 300.824 121.353 300.856 121.338L300.881 121.327L300.909 121.314C300.959 121.292 301.009 121.271 301.061 121.252C301.113 121.233 301.163 121.214 301.214 121.197L301.24 121.189L301.262 121.181L301.364 121.149C301.415 121.134 301.467 121.12 301.516 121.107L301.592 121.092L301.624 121.085L301.671 121.075C301.727 121.064 301.782 121.055 301.836 121.048C301.869 121.044 301.901 121.041 301.934 121.038L301.969 121.035H302.002C302.061 121.035 302.12 121.029 302.178 121.029L302.254 121.033H302.311C302.331 121.033 302.352 121.033 302.372 121.033C302.448 121.039 302.517 121.05 302.588 121.063C302.603 121.063 302.617 121.072 302.633 121.075C302.705 121.09 302.775 121.109 302.845 121.132L302.861 121.139C302.961 121.174 303.057 121.217 303.148 121.268L306.867 123.37C306.776 123.319 306.68 123.276 306.581 123.241C306.506 123.215 306.43 123.194 306.352 123.177C306.337 123.177 306.323 123.168 306.308 123.165C306.215 123.147 306.121 123.136 306.027 123.13H305.97C305.875 123.127 305.78 123.129 305.685 123.136H305.651C305.546 123.146 305.442 123.162 305.34 123.183L305.308 123.19C305.196 123.214 305.086 123.244 304.978 123.279L304.955 123.287C304.838 123.326 304.72 123.372 304.6 123.425L304.576 123.436C304.454 123.491 304.33 123.554 304.205 123.624L182.445 191.994C182.318 192.068 182.193 192.142 182.069 192.226L182.048 192.241C181.932 192.319 181.819 192.402 181.707 192.49L181.671 192.519C181.563 192.606 181.456 192.696 181.352 192.79L181.315 192.824C181.209 192.922 181.105 193.023 181.004 193.126L180.978 193.152C180.87 193.264 180.765 193.38 180.662 193.5V193.504C180.558 193.627 180.456 193.753 180.358 193.883L180.347 193.897C180.261 194.012 180.178 194.129 180.096 194.248C180.044 194.322 179.994 194.405 179.944 194.484C179.903 194.55 179.86 194.613 179.821 194.68C179.802 194.712 179.783 194.744 179.765 194.776C179.7 194.888 179.636 194.999 179.577 195.115L179.557 195.152C179.485 195.291 179.416 195.432 179.353 195.573L179.343 195.596C179.281 195.735 179.223 195.874 179.169 196.016L179.159 196.043C179.104 196.188 179.053 196.332 179.006 196.476L178.999 196.502C178.956 196.642 178.917 196.781 178.884 196.92L178.875 196.959C178.841 197.103 178.811 197.246 178.789 197.389V197.395C178.765 197.539 178.747 197.682 178.735 197.823V197.858C178.724 198 178.717 198.14 178.718 198.278L178.958 280.816C178.958 280.955 178.965 281.088 178.977 281.216V281.251C178.99 281.369 179.007 281.482 179.029 281.591L179.038 281.635C179.059 281.737 179.086 281.838 179.118 281.938C179.124 281.955 179.13 281.973 179.137 281.991C179.166 282.079 179.201 282.166 179.24 282.25C179.245 282.26 179.249 282.27 179.253 282.28C179.298 282.371 179.349 282.459 179.406 282.543C179.481 282.655 179.568 282.76 179.665 282.855C179.687 282.878 179.711 282.899 179.735 282.921C179.831 283.01 179.937 283.088 180.051 283.155L176.331 281.053C176.218 280.986 176.112 280.908 176.016 280.819C175.992 280.798 175.969 280.776 175.946 280.753C175.849 280.658 175.762 280.554 175.687 280.441V280.437C175.634 280.357 175.587 280.273 175.545 280.187L175.541 280.177C175.537 280.169 175.533 280.158 175.528 280.149C175.503 280.094 175.477 280.038 175.452 279.98C175.441 279.951 175.432 279.92 175.421 279.889L175.403 279.835C175.397 279.819 175.391 279.804 175.387 279.788C175.369 279.728 175.352 279.666 175.337 279.602C175.331 279.579 175.327 279.555 175.323 279.532L175.314 279.489C175.309 279.467 175.304 279.446 175.3 279.423C175.29 279.366 175.281 279.309 175.273 279.249C175.269 279.217 175.266 279.183 175.263 279.149V279.114L175.258 279.074C175.254 279.017 175.25 278.96 175.247 278.901C175.245 278.843 175.247 278.785 175.243 278.725V278.714L175.002 196.176C174.999 196.123 175 196.068 175.002 196.013Z" fill="#262626"/>
<path d="M182.449 191.994C181.362 192.681 180.457 193.609 179.808 194.701C179.16 195.793 178.786 197.019 178.717 198.278L178.958 280.816C178.965 283.128 180.644 284.063 182.712 282.902L304.474 214.531C305.562 213.843 306.468 212.915 307.116 211.822C307.765 210.73 308.139 209.503 308.207 208.243L307.966 125.705C307.959 123.397 306.28 122.462 304.211 123.624L182.449 191.994Z" fill="#5B5B5B"/>
<path d="M305.327 125.959L183.768 194.216C183.084 194.678 182.514 195.281 182.097 195.982C181.68 196.683 181.427 197.465 181.356 198.272L181.596 280.566L303.153 212.309C303.837 211.847 304.408 211.243 304.825 210.542C305.242 209.84 305.494 209.058 305.564 208.25L305.325 125.959H305.327ZM305.887 123.125C307.113 123.125 307.958 124.07 307.962 125.705L308.205 208.246C308.137 209.506 307.763 210.733 307.115 211.825C306.466 212.918 305.561 213.846 304.473 214.534L182.712 282.905C182.208 283.21 181.63 283.382 181.036 283.403C179.809 283.403 178.965 282.457 178.96 280.819L178.719 198.281C178.788 197.022 179.162 195.796 179.811 194.704C180.459 193.612 181.364 192.684 182.452 191.997L304.209 123.624C304.714 123.318 305.291 123.146 305.885 123.125H305.887Z" fill="#1F1F1F"/>
<path d="M207.745 269.147L213.114 272.181L289.252 229.428L283.884 226.395L207.745 269.147Z" fill="#1F1F1F"/>
<path d="M98.3333 38.8657C98.4582 38.8912 98.586 38.8978 98.7127 38.8854H98.7237C98.8654 38.8707 99.005 38.8388 99.1396 38.7903H99.1462C99.304 38.7335 99.4561 38.6606 99.6002 38.5727C99.7585 38.4769 99.9093 38.3683 100.051 38.2478L100.062 38.2387C100.208 38.114 100.347 37.9795 100.476 37.8362L100.484 37.8278C100.619 37.6771 100.746 37.5186 100.863 37.353V37.353C100.981 37.1856 101.09 37.0119 101.19 36.8326L101.204 36.8067C101.301 36.6298 101.39 36.4477 101.469 36.2611V36.2543C101.547 36.0663 101.615 35.8737 101.673 35.6775V35.6691C101.728 35.4787 101.772 35.2844 101.802 35.0878V35.0878C101.831 34.8984 101.846 34.7068 101.846 34.5149C101.848 34.3447 101.833 34.1747 101.803 34.0074V33.9944C101.776 33.8518 101.734 33.7129 101.676 33.5805V33.5729C101.63 33.4754 101.573 33.384 101.507 33.3005C101.486 33.2731 101.466 33.2442 101.444 33.2198C101.373 33.1372 101.29 33.066 101.198 33.0083L106.35 36.128C106.442 36.1857 106.525 36.2569 106.597 36.3395C106.618 36.3638 106.638 36.3928 106.659 36.4201C106.688 36.4532 106.715 36.488 106.74 36.5244C106.771 36.5758 106.8 36.6291 106.825 36.6842L106.828 36.6925V36.6994C106.845 36.7374 106.861 36.7755 106.876 36.8181C106.89 36.8607 106.904 36.8988 106.915 36.9414C106.927 36.984 106.936 37.0175 106.945 37.0608C106.945 37.0783 106.952 37.0958 106.955 37.1133V37.1278C106.955 37.1438 106.963 37.1597 106.965 37.1757C106.972 37.213 106.977 37.2518 106.981 37.2883C106.985 37.3249 106.99 37.3644 106.993 37.4017C106.996 37.439 106.998 37.4778 106.999 37.512C107.001 37.5463 106.999 37.5881 106.999 37.6262V37.633C106.999 37.668 106.999 37.7038 106.999 37.7395C106.999 37.7753 106.999 37.8156 106.994 37.8544C106.989 37.8932 106.989 37.9305 106.985 37.9693C106.982 38.0081 106.978 38.0454 106.973 38.085C106.968 38.1246 106.963 38.1611 106.957 38.2037V38.2075C106.951 38.2455 106.945 38.2836 106.938 38.3231C106.931 38.3627 106.923 38.4046 106.914 38.4456C106.905 38.4867 106.896 38.5278 106.887 38.5697C106.877 38.6115 106.866 38.6526 106.855 38.6945C106.847 38.7249 106.838 38.7561 106.828 38.7873V38.7964L106.822 38.8185C106.811 38.8588 106.798 38.8991 106.785 38.9395C106.773 38.9798 106.759 39.0194 106.745 39.0589C106.731 39.0985 106.718 39.135 106.703 39.1738C106.689 39.2126 106.675 39.2499 106.659 39.288L106.624 39.3724V39.3793L106.616 39.3998C106.6 39.4379 106.583 39.4759 106.567 39.5132C106.55 39.5505 106.529 39.5954 106.51 39.6364C106.49 39.6775 106.464 39.73 106.44 39.7765C106.417 39.8229 106.387 39.8761 106.359 39.9286L106.346 39.9545C106.34 39.9644 106.335 39.975 106.328 39.9857C106.276 40.08 106.22 40.1721 106.162 40.2627C106.116 40.3349 106.068 40.405 106.019 40.4742C105.988 40.5198 105.955 40.5647 105.921 40.6089C105.887 40.653 105.863 40.685 105.834 40.72C105.805 40.755 105.776 40.7915 105.747 40.8265C105.718 40.8615 105.689 40.895 105.659 40.9277L105.64 40.949L105.632 40.9566C105.61 40.9809 105.589 41.0053 105.567 41.0327L105.472 41.1308C105.439 41.1636 105.406 41.1955 105.372 41.2267C105.339 41.2579 105.305 41.2883 105.271 41.318L105.219 41.3629L105.208 41.3728L105.17 41.404C105.137 41.4314 105.105 41.4573 105.071 41.4801C105.037 41.5029 105.005 41.5296 104.972 41.5562C104.939 41.5828 104.908 41.6011 104.876 41.6224C104.844 41.6437 104.811 41.6642 104.779 41.684L104.757 41.6977L104.684 41.7396C104.653 41.7571 104.621 41.7738 104.591 41.789C104.56 41.8042 104.53 41.8202 104.499 41.8339C104.469 41.8476 104.439 41.8613 104.409 41.8742C104.379 41.8872 104.348 41.8986 104.318 41.91L104.301 41.9153H104.295C104.272 41.9229 104.25 41.9313 104.227 41.9382C104.205 41.945 104.165 41.9572 104.135 41.9648C104.104 41.9724 104.072 41.98 104.042 41.9861C104.012 41.9922 103.976 41.999 103.944 42.0036L103.878 42.0104H103.868H103.844C103.808 42.0104 103.771 42.0104 103.738 42.0104C103.705 42.0104 103.659 42.0104 103.621 42.0051C103.577 42.0009 103.534 41.9943 103.491 41.9853H103.485C103.434 41.9742 103.383 41.9597 103.334 41.942C103.271 41.9187 103.21 41.8894 103.152 41.8545L98 38.7348C98.1033 38.797 98.2156 38.8412 98.3326 38.8657H98.3333Z" fill="#27AE60"/>
<path d="M89.3412 44.8693C89.4665 44.8949 89.5946 44.9015 89.7218 44.8891H89.7313C89.8736 44.8745 90.0139 44.8425 90.1491 44.7939H90.1557C90.3137 44.7363 90.4661 44.6632 90.6108 44.5754C90.7682 44.4796 90.9182 44.3711 91.0594 44.251L91.071 44.2411C91.2168 44.1165 91.3547 43.9822 91.4838 43.839L91.4918 43.8306C91.6267 43.6798 91.7533 43.5212 91.871 43.3555C91.9898 43.1876 92.0995 43.013 92.1997 42.8324L92.2107 42.8118C92.3092 42.6334 92.3984 42.4496 92.478 42.2613V42.2559C92.557 42.0676 92.6253 41.8746 92.6826 41.678V41.6704C92.7382 41.4794 92.7814 41.2848 92.8119 41.0878V41.0878C92.8417 40.8983 92.8566 40.7065 92.8564 40.5144C92.8565 40.3448 92.8411 40.1755 92.8104 40.0088V39.9951C92.7835 39.8524 92.7409 39.7134 92.6833 39.5809V39.5748C92.6376 39.4773 92.581 39.3858 92.5146 39.3022C92.4934 39.2748 92.4744 39.2466 92.4517 39.2215C92.3798 39.139 92.2969 39.0677 92.2055 39.0098L97.3543 42.1318C97.4458 42.1895 97.5287 42.2608 97.6005 42.3435C97.6224 42.3686 97.6421 42.3968 97.6633 42.4242C97.6923 42.4576 97.7193 42.4927 97.7444 42.5293C97.7758 42.581 97.8041 42.6346 97.8291 42.69V42.6968V42.7029C97.8459 42.7417 97.8627 42.7791 97.8774 42.8232C97.892 42.8674 97.9051 42.9039 97.9168 42.9466C97.9285 42.9892 97.9373 43.0227 97.9468 43.0661C97.9468 43.0829 97.9533 43.0996 97.9562 43.1171V43.1309C97.9562 43.1476 97.9628 43.1636 97.9657 43.1811C97.9716 43.2169 97.9774 43.2573 97.9818 43.2923C97.9862 43.3273 97.9899 43.3684 97.9935 43.4057C97.9972 43.4431 97.9979 43.4819 97.9994 43.5162C98.0008 43.5504 97.9994 43.5923 97.9994 43.6296V43.6365C97.9994 43.6715 97.9994 43.7073 97.9994 43.7423C97.9994 43.7773 97.9993 43.8185 97.9942 43.8565C97.9891 43.8946 97.9891 43.9327 97.9855 43.9715C97.9818 44.0104 97.9774 44.0477 97.973 44.0873C97.9687 44.1269 97.9628 44.1634 97.957 44.2053V44.2114C97.9511 44.2487 97.9446 44.2875 97.938 44.3241C97.9314 44.3606 97.9226 44.4063 97.9139 44.4474C97.9051 44.4886 97.8963 44.5289 97.8869 44.57C97.8774 44.6112 97.8664 44.6538 97.8554 44.6949C97.8445 44.736 97.8372 44.7604 97.8277 44.7932V44.8008L97.8226 44.8198C97.8109 44.8602 97.7977 44.9005 97.7853 44.9409C97.7729 44.9812 97.759 45.017 97.7451 45.0612C97.7312 45.1054 97.7181 45.1373 97.7035 45.1754C97.6889 45.2135 97.675 45.2516 97.6597 45.2896C97.6443 45.3277 97.6355 45.349 97.6231 45.378V45.3848L97.6166 45.4023C97.6005 45.4404 97.5837 45.4785 97.5669 45.5158C97.5501 45.5531 97.5289 45.598 97.5092 45.6391C97.4894 45.6803 97.4639 45.7328 97.4405 45.7793C97.4171 45.8257 97.385 45.8828 97.3565 45.9316L97.3455 45.9521L97.3324 45.9757C97.2778 46.0737 97.2204 46.1696 97.16 46.2636C97.114 46.3351 97.0665 46.4052 97.0175 46.4745C96.9849 46.5202 96.952 46.5651 96.9189 46.6093C96.8897 46.6473 96.8612 46.6854 96.8312 46.722C96.8013 46.7585 96.7735 46.7935 96.7443 46.8278C96.7151 46.8621 96.6859 46.8963 96.6566 46.9291L96.6377 46.9496L96.6303 46.9573C96.6084 46.9826 96.5865 47.008 96.5646 47.0334C96.5325 47.0669 96.501 47.0997 96.4689 47.1316C96.4368 47.1636 96.4031 47.1964 96.3695 47.2276C96.3359 47.2588 96.3031 47.2893 96.2687 47.319L96.2176 47.3631L96.2059 47.373L96.1686 47.405C96.1358 47.4317 96.1029 47.4583 96.0693 47.4812C96.0357 47.504 96.0043 47.5306 95.9714 47.5573C95.9385 47.584 95.9071 47.6022 95.875 47.6235L95.7793 47.6845L95.7574 47.6982L95.6843 47.7401L95.5915 47.7895C95.5609 47.8055 95.5302 47.8208 95.5002 47.8345C95.4703 47.8482 95.4396 47.8619 95.4096 47.8748C95.3797 47.8878 95.3483 47.8992 95.3183 47.9106L95.3008 47.9167H95.2942C95.2723 47.9251 95.2497 47.9327 95.2277 47.9396L95.1342 47.967C95.1035 47.9746 95.0721 47.9822 95.0414 47.9883C95.0108 47.9944 94.9757 48.0005 94.9428 48.005L94.8764 48.0119H94.8669H94.842C94.8062 48.0119 94.769 48.0119 94.7361 48.0119C94.7032 48.0119 94.6572 48.0119 94.6192 48.0058C94.5755 48.002 94.5321 47.9954 94.4892 47.986H94.4826C94.4313 47.9751 94.3808 47.9606 94.3314 47.9426C94.2681 47.9192 94.207 47.8899 94.1487 47.855L89 44.733C89.1038 44.7951 89.2165 44.8393 89.3339 44.864L89.3412 44.8693Z" fill="#27AE60"/>
<path d="M80.3414 49.8747C80.4662 49.9005 80.594 49.9075 80.7208 49.8953H80.731C80.873 49.8809 81.0128 49.8491 81.1477 49.8008H81.1542C81.312 49.7433 81.464 49.67 81.6082 49.5821C81.7662 49.4859 81.9167 49.3771 82.0585 49.2566L82.0702 49.2467C82.2163 49.1221 82.3545 48.9877 82.4839 48.8443L82.492 48.836C82.6271 48.6852 82.7538 48.5264 82.8714 48.3604V48.3604C82.9899 48.1932 83.0992 48.0192 83.1989 47.8391L83.2128 47.814C83.3102 47.6366 83.3986 47.4539 83.4774 47.2668V47.2599C83.5564 47.0718 83.6245 46.8789 83.6813 46.6822V46.6746C83.7366 46.4834 83.7799 46.2887 83.8107 46.0916V46.0916C83.8398 45.9018 83.8547 45.7099 83.8553 45.5177C83.8554 45.3479 83.8399 45.1784 83.8092 45.0116V44.9979C83.7823 44.8551 83.7396 44.716 83.6821 44.5833V44.5757C83.6361 44.4781 83.5791 44.3865 83.5125 44.3029C83.492 44.2754 83.4723 44.2472 83.4503 44.2221C83.3785 44.1396 83.2955 44.0685 83.204 44.011L88.3546 47.1265C88.4461 47.1843 88.5291 47.2557 88.601 47.3384C88.6229 47.3635 88.6426 47.3917 88.6631 47.4192C88.6919 47.4525 88.719 47.4873 88.7442 47.5236C88.7758 47.5752 88.8041 47.6289 88.829 47.6844V47.692V47.6996C88.8458 47.7377 88.8619 47.7758 88.8765 47.8178C88.8912 47.8597 88.9043 47.8985 88.916 47.9412C88.9277 47.9839 88.9372 48.0174 88.946 48.0616C88.9496 48.0784 88.9526 48.0967 88.9562 48.1135V48.1279C88.9562 48.144 88.9628 48.16 88.965 48.1767C88.9716 48.2133 88.9767 48.2529 88.9818 48.2888C88.9869 48.3246 88.9898 48.365 88.9928 48.4023C88.9957 48.4397 88.9979 48.4785 88.9994 48.5136C89.0008 48.5486 88.9994 48.5898 88.9994 48.6271V48.634C88.9994 48.6698 88.9994 48.7049 88.9994 48.7407C88.9994 48.7765 88.9993 48.8169 88.9942 48.8558C88.9891 48.8946 88.9891 48.932 88.9855 48.9709C88.9818 49.0097 88.9781 49.0471 88.9738 49.0867C88.9694 49.1263 88.9635 49.1629 88.957 49.2056V49.2094C88.9511 49.2483 88.9453 49.2856 88.9379 49.3252C88.9306 49.3649 88.9226 49.4068 88.9138 49.4479C88.905 49.4891 88.8963 49.5302 88.8868 49.5722C88.8773 49.6141 88.8663 49.6552 88.8546 49.6971C88.8429 49.7391 88.8378 49.7596 88.8283 49.7909V49.7993L88.8224 49.8214C88.81 49.8618 88.7983 49.9022 88.7852 49.9425C88.772 49.9829 88.7588 50.0226 88.745 50.0622C88.7311 50.1018 88.7179 50.1384 88.7033 50.1773C88.6887 50.2162 88.6748 50.2535 88.6594 50.2916C88.6441 50.3297 88.636 50.3488 88.6243 50.377V50.3838L88.6163 50.4036C88.6002 50.4417 88.5834 50.4798 88.5666 50.5172C88.5498 50.5545 88.5293 50.5995 88.5096 50.6406C88.4898 50.6818 88.4635 50.7344 88.4401 50.7809C88.4167 50.8274 88.3868 50.8815 88.3597 50.9333L88.3458 50.9584L88.329 50.9897C88.2757 51.0842 88.2194 51.1772 88.1616 51.2679C88.1156 51.3395 88.0681 51.4096 88.0191 51.479C87.9869 51.5247 87.954 51.5697 87.9211 51.6139C87.8882 51.6581 87.8634 51.6901 87.8341 51.7259C87.8049 51.7617 87.7764 51.7968 87.7471 51.8318L87.6594 51.934L87.6404 51.9538L87.6324 51.9629L87.5666 52.0346C87.5352 52.0681 87.5037 52.1009 87.4716 52.1329C87.4394 52.1649 87.4058 52.1977 87.3721 52.2289L87.2713 52.3211L87.2186 52.3653L87.2069 52.3752L87.1704 52.4065C87.1375 52.4339 87.1039 52.4598 87.071 52.4827C87.0381 52.5055 87.0052 52.5322 86.9723 52.5589L86.8751 52.626L86.7793 52.6869L86.7566 52.7007L86.6835 52.7426L86.5907 52.7929L86.4993 52.8378C86.4694 52.8516 86.4387 52.8653 86.4087 52.8775C86.3787 52.8897 86.348 52.9019 86.318 52.9133L86.3012 52.9186H86.2939L86.2274 52.9407C86.1967 52.9506 86.1653 52.9598 86.1346 52.9674C86.1039 52.975 86.0724 52.9826 86.0417 52.9895C86.011 52.9964 85.9759 53.0017 85.9438 53.0063L85.878 53.0131H85.8677H85.8436C85.8078 53.0131 85.7705 53.0131 85.7376 53.0131C85.7047 53.0131 85.6594 53.0131 85.6207 53.007C85.5772 53.0028 85.534 52.9962 85.4913 52.9872H85.4847C85.4336 52.9764 85.3833 52.9619 85.3341 52.9438C85.271 52.9205 85.21 52.8911 85.1521 52.8561L80 49.7314C80.1031 49.7935 80.2152 49.8378 80.3319 49.8625L80.3414 49.8747Z" fill="#27AE60"/>
<path d="M68.0064 54.0175C68.0064 53.9716 68.0108 53.925 68.013 53.8791C68.013 53.7828 68.0211 53.6858 68.0262 53.5895C68.0314 53.474 68.0351 53.3585 68.0424 53.243C68.0476 53.1541 68.0564 53.0638 68.063 52.9749C68.0711 52.8735 68.0785 52.7713 68.0873 52.6691C68.0932 52.601 68.0969 52.5329 68.1035 52.464C68.1175 52.3159 68.1359 52.1678 68.1528 52.0197C68.1623 51.9361 68.1704 51.8517 68.1807 51.7672C68.1807 51.7391 68.1866 51.711 68.1903 51.6821C68.2242 51.415 68.2622 51.147 68.3044 50.8779V50.8587C68.3102 50.8224 68.3169 50.7846 68.3235 50.7506C68.3595 50.5233 68.3971 50.2967 68.4397 50.0686C68.4478 50.0279 68.4574 49.9864 68.4648 49.9457C68.4854 49.8406 68.5074 49.7347 68.5288 49.6295C68.5552 49.4977 68.5803 49.3659 68.6082 49.2341C68.6244 49.1601 68.6435 49.086 68.6597 49.012C68.6855 48.8965 68.7127 48.7817 68.7399 48.6662C68.7613 48.5758 68.7804 48.4862 68.8025 48.3952C68.8297 48.2863 68.8606 48.173 68.8886 48.0679C68.9165 47.9627 68.9481 47.8354 68.9791 47.7191C68.9945 47.6614 69.0085 47.6036 69.0247 47.5459C69.0673 47.3911 69.1144 47.2356 69.1593 47.0801C69.1888 46.9816 69.216 46.8824 69.2454 46.7839C69.2542 46.7558 69.2616 46.7284 69.2697 46.701C69.3536 46.425 69.4416 46.1491 69.5338 45.8731V45.8606C69.5426 45.8354 69.5522 45.8095 69.561 45.7865C69.642 45.5446 69.7256 45.3027 69.8119 45.0609C69.8259 45.0216 69.8414 44.9868 69.8554 44.9446C69.8892 44.8513 69.9245 44.7595 69.9591 44.6669C70.0077 44.5373 70.054 44.4078 70.1062 44.2789C70.1394 44.1938 70.1747 44.1094 70.2078 44.0249C70.2475 43.9235 70.2887 43.8221 70.3292 43.7206C70.3586 43.6466 70.3866 43.5725 70.4168 43.5029C70.4786 43.3548 70.544 43.203 70.608 43.0535C70.6412 42.975 70.6735 42.8972 70.7081 42.8187C70.7199 42.7921 70.7302 42.7647 70.742 42.738C70.8562 42.4789 70.973 42.2209 71.0922 41.9642L71.1091 41.9294C71.1444 41.8554 71.1827 41.7813 71.2173 41.7073C71.31 41.5118 71.4027 41.3163 71.4991 41.1216C71.5145 41.0897 71.5314 41.0586 71.5476 41.0268C71.6271 40.8683 71.7095 40.7106 71.7912 40.5522C71.8581 40.4226 71.9229 40.2915 71.9913 40.1619C72.0045 40.1375 72.0185 40.1145 72.0318 40.0879C72.2525 39.6747 72.4806 39.2655 72.716 38.8602C72.7359 38.8269 72.7528 38.7928 72.7727 38.7595C72.7925 38.7262 72.8205 38.6855 72.8462 38.6462C73.1847 38.0706 73.5371 37.5054 73.9036 36.9505C73.9234 36.9209 73.9403 36.8898 73.9595 36.8602C73.994 36.8091 74.033 36.761 74.0647 36.7121C74.3531 36.2819 74.6467 35.8569 74.9513 35.4415L74.9616 35.4267V35.4222C75.1823 35.1201 75.4075 34.8239 75.637 34.5337L75.6613 34.5018C75.8614 34.2446 76.0648 33.9914 76.2713 33.7421L76.2911 33.711C76.4873 33.4731 76.686 33.2391 76.8871 33.009L76.9268 32.9639C76.9953 32.8861 77.0659 32.8099 77.1343 32.7329C77.2572 32.5951 77.3793 32.4559 77.5022 32.3204C77.5302 32.2901 77.5588 32.2612 77.5875 32.2301C77.6795 32.1316 77.7722 32.0346 77.8649 31.9339C77.9576 31.8332 78.0548 31.731 78.1511 31.6325C78.1923 31.5903 78.2343 31.5503 78.2755 31.5081C78.3748 31.4074 78.4756 31.3089 78.5757 31.2119C78.6574 31.1312 78.7376 31.0483 78.82 30.9683C78.8729 30.9172 78.9274 30.8691 78.9811 30.8202C79.0885 30.718 79.1964 30.6171 79.3048 30.5174C79.3784 30.4515 79.4461 30.3834 79.5175 30.3182C79.5888 30.253 79.6462 30.2056 79.7102 30.1486C79.8191 30.0524 79.9283 29.9569 80.0377 29.8621C80.0995 29.808 80.1605 29.7517 80.2231 29.6984C80.3011 29.6325 80.3805 29.5696 80.4592 29.5044C80.5637 29.4178 80.6689 29.3304 80.7749 29.2453C80.8264 29.2038 80.8764 29.1601 80.9287 29.1194C81.0273 29.0409 81.1273 28.9669 81.2267 28.8898C81.326 28.8128 81.4209 28.7417 81.521 28.6677C81.5563 28.641 81.5945 28.6122 81.6277 28.5855C81.7645 28.4841 81.9028 28.3878 82.0412 28.2893C82.1147 28.236 82.1883 28.1805 82.267 28.1279C82.284 28.1168 82.3001 28.1042 82.3163 28.0931C82.5371 27.9391 82.7644 27.7888 82.991 27.6444L83.0153 27.6296L83.1485 27.5466C83.3192 27.44 83.4899 27.3326 83.6635 27.2312C83.7275 27.1934 83.7908 27.1572 83.8548 27.1194L97.4974 19.1905C97.6667 19.0918 97.8352 18.997 98.0029 18.9062C98.0669 18.8706 98.1309 18.8403 98.195 18.8062L98.4532 18.6707C98.5202 18.6366 98.5879 18.5966 98.6541 18.5663C98.7622 18.513 98.8682 18.4648 98.9749 18.4182C99.0484 18.3819 99.1279 18.3441 99.2044 18.3093L99.2979 18.2649C99.5112 18.1662 99.7234 18.0756 99.9343 17.9932L99.9461 17.9887C100.157 17.9036 100.368 17.8236 100.576 17.7503C100.604 17.7399 100.632 17.7325 100.659 17.7229C100.737 17.6962 100.813 17.6718 100.89 17.6488C100.997 17.6133 101.106 17.5748 101.213 17.543C101.268 17.5259 101.321 17.5141 101.374 17.4978C101.468 17.4704 101.561 17.4452 101.655 17.4237C101.728 17.4045 101.802 17.3815 101.87 17.3638C101.939 17.346 102.017 17.3312 102.096 17.3134C102.189 17.2919 102.282 17.2705 102.375 17.2512C102.423 17.2408 102.473 17.2275 102.522 17.2179C102.61 17.2009 102.697 17.1898 102.785 17.1742C102.892 17.1557 103 17.1364 103.106 17.1216C103.143 17.1157 103.18 17.1076 103.219 17.1024C103.309 17.0905 103.395 17.0854 103.484 17.075C103.598 17.0624 103.713 17.0491 103.827 17.0402C103.86 17.0402 103.893 17.032 103.927 17.0298C104.005 17.0246 104.08 17.0261 104.157 17.0224C104.292 17.0157 104.428 17.0098 104.561 17.0091C104.598 17.0091 104.634 17.0046 104.674 17.0046C104.733 17.0046 104.789 17.012 104.848 17.0135C105.016 17.0135 105.183 17.0246 105.349 17.0372C105.398 17.0372 105.45 17.0372 105.496 17.0446C105.533 17.0446 105.57 17.0565 105.605 17.0602C105.857 17.0868 106.105 17.1216 106.348 17.169C106.369 17.169 106.392 17.1742 106.413 17.1786H106.425C106.767 17.2496 107.105 17.3431 107.435 17.4585C107.465 17.4682 107.497 17.4734 107.525 17.4837C107.554 17.4941 107.571 17.503 107.594 17.5119C107.737 17.5644 107.877 17.6237 108.015 17.6844C108.083 17.714 108.153 17.7399 108.219 17.7718C108.422 17.8673 108.621 17.9702 108.814 18.0835L114 21.1157C113.806 21.0031 113.608 20.9002 113.405 20.8047C113.338 20.7729 113.269 20.7462 113.201 20.7173C113.062 20.6566 112.923 20.5974 112.78 20.5448C112.728 20.5255 112.674 20.5093 112.621 20.4915C112.291 20.3762 111.953 20.2827 111.61 20.2116C111.585 20.2064 111.559 20.2034 111.537 20.199C111.293 20.1516 111.044 20.1168 110.793 20.0902C110.707 20.0813 110.62 20.0739 110.533 20.0672C110.368 20.0546 110.2 20.0472 110.032 20.0428C109.936 20.0428 109.841 20.0376 109.745 20.0383C109.612 20.0383 109.476 20.0457 109.341 20.0524C109.231 20.0576 109.12 20.0613 109.011 20.0702C108.901 20.0791 108.783 20.0924 108.668 20.105C108.553 20.1176 108.417 20.1324 108.29 20.1509C108.184 20.1664 108.076 20.1857 107.969 20.2042C107.833 20.2279 107.697 20.2523 107.559 20.2782C107.466 20.2975 107.374 20.319 107.28 20.3404C107.133 20.3745 106.986 20.4108 106.839 20.4508C106.745 20.4759 106.652 20.5011 106.558 20.5248C106.398 20.5715 106.236 20.6226 106.074 20.6729C106.001 20.6981 105.921 20.7218 105.843 20.7469C105.608 20.8284 105.37 20.917 105.13 21.0128L105.119 21.0172C104.877 21.1142 104.633 21.2208 104.388 21.3334C104.314 21.3682 104.236 21.4074 104.16 21.4415C103.987 21.5237 103.813 21.6089 103.637 21.6984L103.378 21.8332C103.147 21.9561 102.916 22.082 102.682 22.2183L89.0398 30.1412C88.8036 30.2782 88.5696 30.4226 88.3364 30.5692C88.2915 30.5974 88.2466 30.6233 88.2017 30.6521C87.9516 30.8121 87.7024 30.9782 87.4542 31.1505C87.3806 31.2031 87.3071 31.2586 87.2283 31.3119C87.054 31.4356 86.8803 31.5607 86.7081 31.6903C86.6095 31.7643 86.5124 31.8384 86.4138 31.9124C86.2667 32.0287 86.1136 32.1457 85.9643 32.2656C85.8583 32.3515 85.7524 32.4389 85.6472 32.5263C85.5059 32.6433 85.3654 32.7622 85.2256 32.8832C85.1167 32.9775 85.008 33.0727 84.8996 33.169C84.7633 33.2909 84.6274 33.4143 84.492 33.5392C84.3846 33.6392 84.2772 33.7391 84.1705 33.8406C84.0336 33.9709 83.8982 34.1035 83.7629 34.2367C83.6635 34.3352 83.5635 34.433 83.4685 34.5329C83.3295 34.6729 83.1926 34.8165 83.0558 34.9609C82.9631 35.0572 82.8704 35.1534 82.7791 35.2519C82.6261 35.4168 82.4743 35.5844 82.3237 35.7547C82.2545 35.8287 82.1846 35.908 82.1162 35.9857C81.8969 36.236 81.6806 36.49 81.4673 36.7477C81.2514 37.0083 81.039 37.2731 80.8301 37.5422C80.6015 37.8354 80.3766 38.1316 80.1554 38.4307L80.1407 38.45C79.8368 38.8654 79.5432 39.2904 79.2577 39.7199C79.204 39.7999 79.1496 39.8798 79.0966 39.9605C78.7307 40.5149 78.3785 41.0796 78.04 41.6547L77.9113 41.8717C77.6768 42.276 77.449 42.6847 77.2278 43.0979C77.1461 43.2512 77.0666 43.4059 76.9872 43.5599C76.9077 43.7139 76.8231 43.8761 76.7436 44.0346C76.6296 44.2626 76.5192 44.4922 76.4096 44.7225C76.3757 44.7965 76.3397 44.8661 76.3058 44.9379C76.1675 45.2341 76.0343 45.5303 75.9041 45.8265C75.8695 45.9042 75.8372 45.9827 75.804 46.0612C75.7089 46.2834 75.6159 46.5055 75.5252 46.7276C75.484 46.8291 75.4443 46.9305 75.4038 47.032C75.3189 47.2457 75.2365 47.4602 75.1566 47.6754C75.1227 47.7673 75.0874 47.8583 75.0543 47.9494C74.9518 48.2308 74.8537 48.5127 74.76 48.795L74.7335 48.8691C74.6312 49.1764 74.5348 49.4844 74.4392 49.7924C74.4098 49.8916 74.3818 49.9909 74.3531 50.0886C74.2913 50.3004 74.231 50.5122 74.1736 50.7247C74.1419 50.8424 74.1118 50.9601 74.0809 51.0779C74.0301 51.2756 73.9808 51.4733 73.9337 51.6702C73.9058 51.7872 73.8785 51.9042 73.8528 52.0212C73.8064 52.2249 73.7638 52.4285 73.7226 52.6321C73.7012 52.7395 73.6784 52.8468 73.6578 52.9542C73.6088 53.2193 73.5622 53.4836 73.518 53.7472C73.5114 53.7872 73.5033 53.8272 73.4974 53.8665C73.4496 54.1701 73.4084 54.4714 73.3709 54.7728C73.3606 54.8594 73.3525 54.9453 73.3429 55.0312C73.3186 55.2467 73.2965 55.4622 73.2774 55.6762C73.2686 55.7798 73.2605 55.8835 73.2531 55.9864C73.2377 56.1908 73.2259 56.3937 73.2163 56.5966C73.2112 56.6943 73.206 56.7913 73.2024 56.8883C73.1921 57.1763 73.1854 57.4636 73.1862 57.7487C73.1862 58.0449 73.195 58.3411 73.2083 58.6262C73.2083 58.7098 73.2185 58.7913 73.2237 58.8742C73.2347 59.0705 73.248 59.2645 73.2649 59.4555C73.2745 59.5673 73.287 59.6776 73.2988 59.788C73.3164 59.9509 73.3355 60.113 73.3569 60.2715C73.3731 60.3892 73.39 60.5047 73.4084 60.6202C73.4319 60.7683 73.4565 60.9135 73.482 61.0556C73.5055 61.1845 73.5313 61.3118 73.5555 61.4385C73.5798 61.5651 73.6122 61.6947 73.6431 61.8205C73.6784 61.9686 73.7167 62.1167 73.7564 62.2589C73.7873 62.3714 73.8189 62.481 73.8528 62.5943C73.905 62.7669 73.9617 62.9357 74.0205 63.1023C74.0522 63.1919 74.0823 63.2837 74.1155 63.3718C74.2214 63.6517 74.3362 63.9235 74.4561 64.1863C74.4686 64.2137 74.4833 64.2389 74.4966 64.2656C74.6582 64.6048 74.8388 64.9346 75.0374 65.2533C75.0528 65.2785 75.0668 65.3052 75.083 65.3274C75.2456 65.5821 75.4192 65.822 75.598 66.0523C75.6414 66.1078 75.6863 66.1611 75.7305 66.2152C75.9056 66.4277 76.0873 66.6313 76.2786 66.8216C76.2933 66.8357 76.3066 66.852 76.3213 66.8668C76.5243 67.0634 76.7377 67.2488 76.9607 67.4222C77.0144 67.4644 77.0688 67.5058 77.1233 67.5466C77.3479 67.7159 77.5815 67.8729 77.823 68.0167L72.6373 64.9808C72.3956 64.8372 72.162 64.6802 71.9376 64.5106C71.8831 64.4699 71.8287 64.4292 71.7757 64.387C71.5525 64.2134 71.3388 64.0277 71.1356 63.8309C71.1209 63.8168 71.1076 63.8005 71.0937 63.7865C70.9024 63.5962 70.7206 63.3925 70.5448 63.1793C70.5006 63.126 70.4557 63.0719 70.4123 63.0164C70.2313 62.7861 70.0577 62.5462 69.8973 62.2915L69.8818 62.27C69.8708 62.253 69.8627 62.233 69.8517 62.2152C69.6531 61.8967 69.4725 61.5672 69.3109 61.2282C69.3013 61.2089 69.2903 61.1934 69.2815 61.1749L69.2704 61.1482C69.1483 60.8876 69.0357 60.6151 68.9298 60.3337C68.9202 60.3093 68.9092 60.287 68.9003 60.2596C68.8768 60.196 68.8577 60.1271 68.8348 60.0619C68.776 59.8946 68.7193 59.7258 68.6663 59.5525C68.6531 59.5066 68.6354 59.4636 68.6222 59.417C68.6038 59.3533 68.5891 59.2844 68.5707 59.2185C68.531 59.0749 68.4927 58.9283 68.4574 58.7802C68.4427 58.7195 68.425 58.6617 68.411 58.6003C68.3971 58.5388 68.3845 58.464 68.3698 58.3966C68.3433 58.2707 68.3176 58.1434 68.2963 58.0145C68.2838 57.9479 68.2683 57.8842 68.2565 57.8168C68.2448 57.7495 68.2337 57.6584 68.2212 57.5799C68.2036 57.4644 68.1859 57.3481 68.1697 57.2304C68.1616 57.1704 68.1506 57.1127 68.1432 57.0519C68.1307 56.952 68.1226 56.8468 68.1116 56.7454C68.1005 56.6439 68.0873 56.5233 68.0777 56.4159C68.0777 56.3707 68.0674 56.327 68.0638 56.2819C68.052 56.1338 68.0446 55.9805 68.0358 55.8287C68.0314 55.748 68.0248 55.6688 68.0211 55.5866C68.0211 55.5666 68.0211 55.5473 68.0211 55.5273C68.0108 55.2733 68.0042 55.0157 68.0034 54.7535V54.7076C67.998 54.489 67.999 54.2589 68.0064 54.0175Z" fill="#27AE60"/>
<path d="M89.0227 30.1091C80.1473 35.183 72.9711 47.5382 73.0001 57.6854C73.0291 67.8325 80.2521 71.9197 89.1305 66.8243L103.688 58.4645C104.51 57.9308 105.498 57.7086 106.472 57.8384L115.447 59.5194C115.888 59.5805 116.337 59.481 116.711 59.2392C117.378 58.8077 117.933 58.2256 118.331 57.5402C118.728 56.8549 118.958 56.0858 119 55.2955L118.932 31.3354C118.903 21.1942 111.68 17.1012 102.805 22.1965L89.0227 30.1091ZM95.9737 47.1464C94.7063 47.8738 93.6693 47.2943 93.6693 45.8402C93.7115 45.0507 93.9409 44.2823 94.3388 43.5978C94.7367 42.9133 95.2918 42.3321 95.9588 41.9017C97.2225 41.1743 98.2587 41.7539 98.2631 43.2027C98.2216 43.9931 97.9925 44.7625 97.5946 45.448C97.1966 46.1334 96.6412 46.7154 95.9737 47.1464ZM86.7853 52.4215C85.5216 53.1488 84.4898 52.5693 84.4854 51.1131C84.5269 50.3243 84.7555 49.5564 85.1527 48.8724C85.5499 48.1884 86.1042 47.6076 86.7704 47.1775C88.0422 46.4471 89.071 47.0296 89.0747 48.4778C89.0339 49.2683 88.805 50.0379 88.407 50.7235C88.0091 51.409 87.4533 51.9909 86.7853 52.4215V52.4215ZM105.157 41.8736C103.889 42.601 102.861 42.0215 102.857 40.5645C102.899 39.7757 103.127 39.008 103.525 38.324C103.922 37.64 104.476 37.0591 105.142 36.6289C106.414 35.8993 107.443 36.4811 107.446 37.9299C107.405 38.7205 107.177 39.4901 106.779 40.1757C106.381 40.8612 105.825 41.4431 105.157 41.8736" fill="#60DF95"/>
<path d="M489.285 48.5744C488.254 49.244 487.462 50.2281 487.024 51.3835L482.369 63.1279C481.847 64.4498 481.869 65.7273 482.443 66.3786L485.077 69.3855C485.148 69.502 485.189 69.6348 485.196 69.7716C485.203 69.9083 485.176 70.0446 485.117 70.1679C483.906 73.5544 482.399 76.8251 480.612 79.9414C478.824 83.054 476.769 86.0021 474.469 88.7516C474.382 88.8603 474.276 88.9518 474.155 89.0213C474.04 89.0963 473.902 89.1302 473.765 89.1176L469.836 88.3626C469.337 88.2896 468.828 88.402 468.404 88.679C467.872 89.007 467.405 89.4324 467.027 89.9335L459.271 99.8736C458.407 100.92 457.956 102.251 458.003 103.612L458.846 110.896C459.105 113.809 461.315 114.861 463.962 113.32C464.488 113.015 464.985 112.659 465.445 112.259C482.982 97.1617 496.65 73.2837 500.801 50.4876C500.88 50.1069 500.939 49.722 500.975 49.3347C501.252 45.8632 499.157 44.1323 496.314 45.4557L489.605 48.4107C489.506 48.4566 489.393 48.5115 489.285 48.5744Z" fill="#60DF95"/>
<path d="M453 100.425V100.4C453 100.357 453 100.314 453.006 100.271C453.012 100.227 453.012 100.183 453.016 100.14C453.021 100.096 453.025 100.051 453.031 100.006L453.037 99.9623V99.9445C453.037 99.9199 453.044 99.8953 453.047 99.87C453.054 99.8246 453.062 99.7784 453.071 99.7323C453.08 99.6861 453.089 99.6385 453.099 99.5916C453.11 99.5446 453.116 99.5171 453.124 99.4814V99.4672L453.129 99.4479C453.141 99.4002 453.153 99.3518 453.167 99.3042C453.18 99.2565 453.193 99.2081 453.208 99.1605C453.223 99.1128 453.238 99.0666 453.253 99.0197L453.263 98.9914L453.268 98.9758C453.278 98.9453 453.289 98.914 453.3 98.8827C453.316 98.8388 453.333 98.7941 453.35 98.7495C453.367 98.7048 453.384 98.6638 453.402 98.6207C453.42 98.5775 453.436 98.5388 453.454 98.4986C453.472 98.4546 453.492 98.4114 453.512 98.3683C453.532 98.3251 453.555 98.2782 453.577 98.2335C453.599 98.1888 453.631 98.127 453.659 98.0742L453.679 98.0377L453.702 97.996L453.781 97.853C453.821 97.7838 453.867 97.716 453.909 97.6475C453.935 97.6073 453.959 97.5664 453.984 97.5262C453.992 97.5128 454 97.4986 454.009 97.486C454.058 97.4115 454.109 97.3371 454.162 97.2686C454.199 97.2189 454.237 97.1693 454.275 97.1197L454.281 97.1122L462.094 87.1241C462.129 87.0802 462.164 87.0363 462.199 86.9938C462.235 86.9514 462.274 86.906 462.311 86.8635C462.348 86.8211 462.384 86.7824 462.418 86.7436C462.456 86.7027 462.492 86.6625 462.532 86.623C462.572 86.5836 462.61 86.5441 462.65 86.5061C462.69 86.4682 462.716 86.4428 462.749 86.4123L462.76 86.4034L462.769 86.3937C462.809 86.358 462.849 86.3193 462.89 86.288C462.931 86.2567 462.968 86.2225 463.008 86.1912C463.047 86.1599 463.073 86.1406 463.106 86.1167L463.114 86.1108L463.124 86.1033C463.161 86.0758 463.198 86.049 463.236 86.0229C463.275 85.9969 463.31 85.9738 463.346 85.9485C463.381 85.9232 463.42 85.9038 463.454 85.8822L463.478 85.8673L463.552 85.8241L463.652 85.7728C463.685 85.7556 463.719 85.74 463.752 85.7251C463.785 85.7102 463.82 85.6953 463.853 85.6819L463.951 85.6447L464.055 85.6104C464.091 85.6 464.129 85.5903 464.161 85.5814L464.217 85.5687H464.232L464.27 85.5606C464.308 85.5531 464.344 85.5472 464.382 85.5419C464.421 85.5367 464.461 85.5323 464.499 85.53C464.523 85.53 464.546 85.53 464.573 85.53H464.625C464.67 85.53 464.713 85.53 464.756 85.536C464.806 85.54 464.855 85.547 464.904 85.5568H464.92L468.879 86.3163C468.942 86.3234 469.007 86.3192 469.069 86.3036C469.139 86.2852 469.207 86.2569 469.27 86.2195C469.326 86.1867 469.379 86.1494 469.429 86.1078V86.1078C469.486 86.0602 469.539 86.0071 469.585 85.9492C470.108 85.329 470.618 84.6887 471.12 84.0387C471.232 83.8935 471.342 83.7468 471.453 83.6002C471.789 83.1534 472.119 82.7067 472.442 82.2481C472.664 81.9383 472.886 81.6279 473.102 81.3129C473.422 80.8478 473.736 80.3763 474.044 79.8983C474.183 79.6831 474.326 79.4709 474.462 79.2542C474.912 78.5432 475.35 77.824 475.773 77.0951C476.196 76.3661 476.601 75.606 476.993 74.8569C477.067 74.7192 477.134 74.5807 477.204 74.443C477.567 73.7349 477.918 73.0224 478.25 72.3046C478.277 72.2466 478.302 72.1885 478.329 72.1312C478.679 71.3687 479.012 70.6024 479.33 69.832C479.355 69.7717 479.378 69.7106 479.404 69.6496C479.725 68.8604 480.028 68.0687 480.314 67.2745C480.342 67.1977 480.363 67.1184 480.376 67.0377C480.388 66.9667 480.393 66.8945 480.389 66.8225C480.386 66.76 480.375 66.6981 480.355 66.6386V66.6386C480.338 66.5861 480.31 66.5374 480.275 66.4949L477.621 63.4736C477.57 63.4147 477.523 63.352 477.481 63.2859C477.468 63.2666 477.459 63.2442 477.447 63.2234C477.435 63.2025 477.427 63.1884 477.418 63.1705C477.409 63.1527 477.394 63.1296 477.383 63.108C477.36 63.0581 477.339 63.0075 477.319 62.9546C477.311 62.933 477.305 62.9099 477.297 62.8876L477.288 62.8593C477.283 62.8437 477.277 62.8288 477.272 62.8124C477.26 62.7685 477.248 62.7231 477.237 62.6769C477.227 62.6307 477.219 62.5905 477.212 62.5459C477.212 62.5339 477.212 62.522 477.206 62.5109V62.4915C477.203 62.4669 477.198 62.4416 477.195 62.417C477.19 62.3754 477.186 62.3329 477.182 62.2897C477.182 62.248 477.176 62.2056 477.175 62.1632C477.175 62.1431 477.175 62.123 477.175 62.1036V62.085C477.175 62.0686 477.175 62.0522 477.175 62.0358C477.175 61.9934 477.175 61.951 477.175 61.9078C477.175 61.8646 477.175 61.8222 477.18 61.7782C477.186 61.7343 477.186 61.6963 477.19 61.6539V61.6472C477.19 61.6033 477.199 61.5586 477.205 61.5139C477.211 61.4692 477.217 61.4238 477.224 61.3784C477.232 61.333 477.239 61.2861 477.248 61.2392L477.257 61.1952L477.26 61.1766C477.266 61.1506 477.271 61.1245 477.277 61.0977C477.286 61.0508 477.298 61.0024 477.309 60.9548C477.32 60.9071 477.334 60.858 477.348 60.8096C477.357 60.7776 477.366 60.7448 477.376 60.712L477.38 60.6957L477.389 60.6666C477.403 60.6197 477.418 60.5728 477.434 60.5252C477.449 60.4775 477.465 60.4336 477.482 60.3874C477.498 60.3413 477.514 60.2981 477.532 60.2541C477.537 60.2385 477.544 60.2229 477.55 60.208L482.239 48.4069C482.25 48.3786 482.262 48.3496 482.274 48.3213C482.29 48.2796 482.308 48.2379 482.327 48.1962C482.346 48.1538 482.365 48.1113 482.384 48.0696C482.403 48.0279 482.415 48.0048 482.431 47.9721L482.439 47.9565L482.45 47.9326C482.476 47.8805 482.503 47.8276 482.53 47.7755C482.57 47.7011 482.61 47.6266 482.652 47.5566L482.659 47.5447C482.678 47.5127 482.699 47.4822 482.718 47.4509C482.772 47.3616 482.826 47.2722 482.883 47.1873C482.892 47.1739 482.902 47.1613 482.911 47.1486C482.92 47.136 482.934 47.1151 482.946 47.098C482.975 47.0563 483.004 47.0131 483.034 46.9722C483.065 46.9312 483.108 46.8709 483.148 46.8233C483.165 46.8024 483.182 46.7823 483.198 46.7622L483.216 46.7399L483.253 46.693C483.288 46.652 483.322 46.6118 483.356 46.5716C483.391 46.5314 483.426 46.4934 483.461 46.4547L483.504 46.41L483.522 46.3907L483.571 46.3393C483.609 46.3006 483.645 46.2648 483.686 46.2246C483.726 46.1844 483.764 46.1502 483.803 46.1144L483.828 46.0928L483.845 46.078L483.919 46.0095C483.959 45.9767 483.998 45.9439 484.038 45.9127C484.078 45.8814 484.112 45.8516 484.154 45.8233L484.165 45.8151L484.172 45.8099L484.268 45.7414C484.305 45.7161 484.342 45.6915 484.38 45.667C484.417 45.6424 484.454 45.6216 484.488 45.6L484.513 45.5851L484.58 45.5478L484.702 45.4838C484.748 45.4615 484.793 45.4399 484.835 45.4205L491.593 42.4513L491.656 42.423C491.73 42.391 491.798 42.3604 491.868 42.3321C491.927 42.3091 491.984 42.2875 492.041 42.2666L492.064 42.2584L492.079 42.2525C492.153 42.2272 492.221 42.2041 492.292 42.1825C492.362 42.1609 492.434 42.1415 492.503 42.1237C492.577 42.1051 492.651 42.0894 492.722 42.0753C492.792 42.0611 492.854 42.0514 492.919 42.0425L492.938 42.0388H492.947C493.025 42.0276 493.101 42.0202 493.177 42.015C493.22 42.015 493.26 42.015 493.302 42.0105H493.376C493.394 42.0105 493.413 42.0105 493.43 42.0105C493.521 42.0105 493.61 42.015 493.697 42.0232L493.722 42.0269C493.751 42.0269 493.779 42.0358 493.808 42.0395C493.871 42.0477 493.934 42.0544 493.994 42.0663C494.014 42.0701 494.031 42.0775 494.051 42.082C494.116 42.0969 494.18 42.1155 494.244 42.1348C494.282 42.1468 494.324 42.1542 494.362 42.1676C494.375 42.1728 494.388 42.181 494.401 42.1862C494.534 42.2348 494.662 42.2946 494.785 42.3649L500 45.4175C499.878 45.3471 499.75 45.2873 499.617 45.2389C499.566 45.2195 499.512 45.2039 499.459 45.1875C499.406 45.1711 499.332 45.1495 499.266 45.1346C499.187 45.1167 499.106 45.1026 499.023 45.0914C498.994 45.0877 498.966 45.0818 498.937 45.0788C498.823 45.0676 498.707 45.0629 498.592 45.0646H498.518C498.396 45.0679 498.275 45.0775 498.154 45.0937H498.135C497.995 45.1133 497.856 45.1404 497.719 45.1748C497.575 45.2113 497.428 45.256 497.279 45.3096L497.257 45.3178C497.109 45.3714 496.961 45.4324 496.808 45.5024L490.049 48.4717C489.95 48.5178 489.837 48.5729 489.728 48.6362C489.611 48.7049 489.497 48.7795 489.387 48.8596L489.381 48.8648C489.271 48.9452 489.163 49.0328 489.057 49.1276L489.039 49.1425C488.936 49.2356 488.834 49.3354 488.735 49.4403L488.715 49.4612C488.616 49.5654 488.52 49.6749 488.428 49.7895L488.41 49.8126C488.322 49.9213 488.238 50.036 488.157 50.1506C488.145 50.167 488.134 50.1826 488.123 50.1998C488.056 50.2973 487.993 50.3986 487.932 50.4976C487.912 50.5304 487.89 50.5616 487.871 50.5951C487.793 50.7291 487.719 50.8661 487.649 51.0061L487.641 51.0218C487.572 51.164 487.508 51.3091 487.449 51.4566L482.76 63.2576C482.695 63.4214 482.638 63.5843 482.59 63.7461L482.586 63.761C482.539 63.9181 482.501 64.0737 482.471 64.2263V64.2449C482.44 64.4005 482.417 64.5532 482.403 64.7013C482.39 64.8444 482.384 64.988 482.387 65.1317V65.1503C482.39 65.2807 482.401 65.4108 482.42 65.5397V65.559C482.439 65.6773 482.466 65.794 482.502 65.9082L482.511 65.9358C482.544 66.0333 482.584 66.1279 482.632 66.2187C482.641 66.2366 482.65 66.2537 482.661 66.2716C482.711 66.3605 482.769 66.4443 482.835 66.5217L485.489 69.5431C485.502 69.5573 485.513 69.5725 485.523 69.5885C485.533 69.6038 485.541 69.6197 485.549 69.6362C485.556 69.6496 485.561 69.6637 485.567 69.6779V69.6868L485.575 69.7129C485.575 69.724 485.581 69.7359 485.584 69.7486L485.591 69.7829C485.591 69.794 485.591 69.8052 485.596 69.8164V69.8499V69.9273V69.9601V69.9936V70.0271L485.592 70.0606V70.068V70.0941L485.584 70.1291L485.576 70.1641L485.567 70.1998L485.556 70.2355L485.545 70.2713L485.533 70.3048L485.476 70.4664C485.322 70.8942 485.162 71.3216 484.997 71.7485C484.876 72.0604 484.75 72.3709 484.627 72.6814C484.602 72.7417 484.58 72.8012 484.553 72.8616C484.535 72.9047 484.519 72.9479 484.501 72.9911C484.332 73.3981 484.16 73.8044 483.983 74.2099C483.844 74.5279 483.699 74.845 483.553 75.1615C483.527 75.2188 483.501 75.2769 483.475 75.3342C483.456 75.3737 483.44 75.4131 483.421 75.4526C483.221 75.8834 483.014 76.313 482.803 76.7414C482.681 76.9871 482.553 77.2306 482.428 77.4748C482.358 77.6118 482.289 77.7488 482.218 77.8858C482.161 77.9937 482.109 78.1039 482.052 78.2119C481.712 78.8542 481.36 79.492 480.997 80.1254L480.977 80.1596C480.561 80.8788 480.129 81.5862 479.687 82.286C479.55 82.5027 479.408 82.7149 479.268 82.9301C479.055 83.2584 478.846 83.5912 478.628 83.9151C478.529 84.0596 478.426 84.198 478.327 84.341C478.11 84.6567 477.889 84.9672 477.667 85.2769C477.505 85.5003 477.35 85.7355 477.186 85.9581C477.023 86.1808 476.847 86.4049 476.678 86.6282C476.566 86.7772 476.456 86.9261 476.344 87.0683C476.265 87.1703 476.189 87.2745 476.11 87.3758C475.788 87.7868 475.461 88.1923 475.131 88.5924C475.024 88.7214 474.917 88.85 474.809 88.978L474.799 88.9907L474.78 89.013L474.76 89.0354L474.738 89.0592L474.713 89.083L474.687 89.1068L474.66 89.1314L474.653 89.1366L474.632 89.1537L474.601 89.1776L474.569 89.2006L474.536 89.2222L474.502 89.2431L474.494 89.2476L474.471 89.261L474.442 89.2766L474.412 89.29L474.383 89.3027L474.354 89.3138L474.325 89.3235L474.295 89.3317L474.267 89.3376L474.235 89.3429L474.201 89.3466H474.164C474.15 89.3473 474.137 89.3473 474.123 89.3466H474.104L470.146 88.5879C470.04 88.5664 469.932 88.5566 469.824 88.5588H469.804C469.69 88.5624 469.577 88.5764 469.466 88.6005L469.45 88.6043C469.326 88.6324 469.205 88.6702 469.087 88.7174V88.7174C468.956 88.7706 468.829 88.8331 468.707 88.9043C468.581 88.9778 468.46 89.0584 468.343 89.1456L468.335 89.1523C468.217 89.2401 468.101 89.3359 467.988 89.4397L467.978 89.4486C467.865 89.5528 467.756 89.6638 467.644 89.7821C467.534 89.902 467.426 90.0286 467.322 90.1611L459.509 100.156C459.404 100.29 459.305 100.429 459.213 100.571C459.186 100.61 459.163 100.651 459.139 100.691C459.065 100.806 458.995 100.922 458.931 101.04L458.907 101.082C458.825 101.231 458.749 101.39 458.68 101.547C458.61 101.705 458.548 101.865 458.494 102.025L458.488 102.041C458.434 102.2 458.388 102.359 458.35 102.518V102.53C458.312 102.686 458.283 102.841 458.261 102.993V103.011C458.241 103.162 458.228 103.313 458.224 103.465V103.474C458.22 103.62 458.226 103.766 458.241 103.911L459.089 111.231C459.104 111.397 459.125 111.557 459.153 111.711C459.153 111.724 459.158 111.737 459.16 111.75C459.186 111.884 459.215 112.012 459.248 112.136C459.254 112.154 459.257 112.173 459.263 112.19C459.298 112.315 459.337 112.434 459.383 112.548C459.398 112.585 459.414 112.623 459.429 112.657C459.461 112.731 459.495 112.806 459.53 112.874C459.566 112.941 459.596 112.997 459.631 113.057C459.658 113.103 459.686 113.148 459.715 113.191C459.817 113.348 459.934 113.493 460.065 113.626C460.087 113.648 460.11 113.667 460.133 113.688C460.268 113.818 460.417 113.932 460.577 114.028L455.361 110.975C455.201 110.879 455.052 110.765 454.917 110.635C454.895 110.615 454.872 110.596 454.851 110.574C454.72 110.441 454.603 110.295 454.501 110.139C454.491 110.125 454.478 110.114 454.469 110.099C454.45 110.07 454.434 110.035 454.416 110.004C454.382 109.944 454.348 109.884 454.316 109.822C454.302 109.794 454.285 109.77 454.272 109.742C454.251 109.698 454.234 109.65 454.214 109.604C454.195 109.559 454.183 109.53 454.168 109.496C454.162 109.477 454.153 109.461 454.146 109.442C454.114 109.353 454.083 109.26 454.055 109.165L454.048 109.137L454.035 109.085C454.018 109.023 454.001 108.962 453.986 108.898C453.971 108.834 453.958 108.765 453.946 108.697C453.946 108.684 453.941 108.671 453.938 108.658L453.934 108.637C453.92 108.555 453.907 108.472 453.897 108.386C453.888 108.318 453.881 108.249 453.875 108.179L453.026 100.859C453.026 100.833 453.021 100.808 453.019 100.784C453.019 100.741 453.013 100.698 453.011 100.655C453.01 100.612 453.011 100.569 453.011 100.527C453.011 100.484 452.999 100.46 453 100.425Z" fill="#27AE60"/>
<g filter="url(#filter0_f_643_2438)">
<path d="M81.4299 136.52C75.5514 139.842 75.5203 145.228 81.3557 148.547C87.1912 151.866 96.6912 151.866 102.57 148.547C108.45 145.228 108.48 139.845 102.639 136.524C96.7988 133.203 87.304 133.202 81.4299 136.52Z" fill="#212121" fill-opacity="0.5"/>
</g>
<g filter="url(#filter1_f_643_2438)">
<path d="M466.43 143.523C460.551 146.845 460.52 152.23 466.356 155.549C472.191 158.868 481.691 158.868 487.57 155.549C493.45 152.23 493.48 146.847 487.639 143.525C481.799 140.203 472.304 140.204 466.43 143.523Z" fill="#212121" fill-opacity="0.5"/>
</g>
<path d="M328.917 38.5181L328.888 48.9724H312.643L312.672 38.5181H328.917Z" fill="#404040"/>
<path d="M312.672 38.5181L312.643 48.9724L312.624 44.8476L312.653 34.394L312.672 38.5181Z" fill="#6E6E6E"/>
<path d="M239.837 40.582L239.807 51.0356L233.706 49.268L233.736 38.8145L239.837 40.582Z" fill="#404040"/>
<path d="M249.728 38.9115C249.519 38.7921 249.302 38.6881 249.078 38.6004C249.058 38.593 249.035 38.587 249.015 38.5796C248.969 38.5618 248.919 38.5478 248.872 38.5315C248.749 38.4878 248.629 38.4426 248.497 38.4048C248.389 38.3737 248.275 38.3492 248.161 38.3226C248.12 38.3129 248.081 38.3018 248.04 38.2929C248.012 38.2863 247.986 38.2781 247.957 38.2722C247.782 38.2356 247.601 38.2043 247.414 38.1781C247.324 38.1655 247.23 38.1574 247.139 38.147L246.991 38.1307C246.94 38.1263 246.891 38.1181 246.839 38.1137C246.634 38.0974 246.424 38.0855 246.209 38.0803C246.111 38.0803 246.012 38.0803 245.913 38.0803C245.789 38.0803 245.667 38.0803 245.544 38.087C245.457 38.087 245.377 38.0981 245.293 38.1033C245.209 38.1085 245.106 38.1137 245.015 38.1218C244.972 38.1255 244.926 38.1263 244.883 38.1307C244.802 38.1388 244.73 38.1529 244.651 38.1626C244.52 38.1796 244.389 38.1959 244.263 38.2166C244.225 38.2233 244.182 38.227 244.144 38.2337C244.057 38.2492 243.978 38.2692 243.894 38.287C243.811 38.3048 243.731 38.3203 243.653 38.3389C243.523 38.3707 243.399 38.4048 243.276 38.4404C243.211 38.4596 243.143 38.4767 243.079 38.4967C243.064 38.5018 243.048 38.5055 243.033 38.51C243.007 38.5189 242.986 38.53 242.959 38.5389C242.704 38.6236 242.454 38.7213 242.208 38.8315C242.179 38.8448 242.148 38.8567 242.119 38.87C241.899 38.973 241.685 39.087 241.477 39.2115C241.459 39.2219 241.436 39.2323 241.418 39.2427C241.359 39.2782 241.302 39.3167 241.247 39.3501C241.093 39.4479 240.944 39.5516 240.799 39.659C240.754 39.6923 240.712 39.7279 240.668 39.762C240.57 39.836 240.476 39.9168 240.385 39.9975C240.363 40.0175 240.338 40.0346 240.317 40.0546C240.295 40.0746 240.28 40.0961 240.259 40.1161C240.147 40.2239 240.041 40.3382 239.942 40.4583C239.923 40.4813 239.898 40.502 239.88 40.525L239.833 40.5857L239.804 51.0393C239.836 50.9956 239.878 50.9548 239.912 50.9119C240.011 50.7918 240.118 50.6778 240.23 50.5704C240.271 50.5304 240.312 50.4903 240.355 50.4518C240.446 50.3703 240.541 50.2925 240.638 50.2155C240.683 50.1814 240.724 50.1459 240.769 50.1125C240.917 50.0051 241.065 49.9014 241.218 49.8036C241.292 49.7577 241.366 49.7118 241.447 49.6651C241.655 49.5408 241.87 49.4271 242.089 49.3243L242.179 49.2851C242.424 49.1748 242.675 49.0772 242.931 48.9924C242.97 48.9791 243.004 48.9643 243.05 48.9509C243.114 48.9302 243.183 48.9132 243.249 48.8939C243.371 48.8583 243.494 48.8243 243.619 48.7932C243.698 48.7739 243.781 48.7576 243.863 48.7406C243.982 48.7154 244.104 48.6917 244.232 48.6709C244.36 48.6502 244.489 48.6331 244.62 48.6168C244.75 48.6005 244.859 48.5865 244.985 48.5754C245.075 48.5679 245.169 48.5628 245.262 48.5568C245.463 48.545 245.666 48.5339 245.879 48.5339C246.256 48.5339 246.614 48.5546 246.958 48.5887C247.007 48.5931 247.056 48.5991 247.106 48.605C247.408 48.6388 247.709 48.6882 248.007 48.7531C248.048 48.762 248.087 48.7732 248.128 48.7828C248.369 48.8396 248.606 48.9093 248.84 48.9917C248.886 49.008 248.936 49.0221 248.982 49.0398C249.228 49.1314 249.466 49.2426 249.695 49.3725C250.051 49.5336 250.357 49.7872 250.582 50.1071C250.806 50.4269 250.941 50.8012 250.973 51.1911L251.003 40.7376C250.972 40.3468 250.838 39.9713 250.614 39.6502C250.39 39.329 250.084 39.0739 249.728 38.9115V38.9115Z" fill="#404040"/>
<path d="M251.006 40.745L250.977 51.1986V51.183L251.006 40.7295V40.745Z" fill="#727272"/>
<path d="M277.44 47.2146L277.411 57.6681L277.371 50.5964L277.4 40.1428L277.44 47.2146Z" fill="#6E6E6E"/>
<path d="M277.4 40.1428L277.371 50.5964L268.525 57.6681L268.555 47.2146L277.4 40.1428Z" fill="#404040"/>
<path d="M258.578 52.3921C258.499 52.6031 258.403 52.8081 258.292 53.0044C258.166 53.2253 258.024 53.4367 257.866 53.6362C257.66 53.8949 257.433 54.1363 257.188 54.3599C256.689 54.8088 256.147 55.208 255.57 55.5503V55.5513C252.504 57.4091 247.968 58.5761 245.056 60.3413C244.562 60.6332 244.098 60.9713 243.668 61.3511L243.697 50.897C244.127 50.5172 244.592 50.1791 245.085 49.8872C247.997 48.1219 252.534 46.9549 255.601 45.0962V45.0952C256.178 44.7536 256.719 44.3555 257.218 43.9067L257.398 43.7358C257.575 43.5612 257.741 43.3755 257.896 43.1812L258.12 42.8745C258.191 42.7691 258.259 42.6609 258.322 42.5503C258.433 42.3543 258.528 42.1497 258.607 41.939L258.578 52.3921ZM258.837 51.0386C258.83 51.2684 258.805 51.4973 258.763 51.7231V51.7573C258.719 51.9733 258.659 52.1858 258.582 52.3921L258.611 41.939C258.685 41.7417 258.742 41.5387 258.785 41.3325L258.786 41.3042C258.833 41.067 258.859 40.8262 258.866 40.5845L258.837 51.0386Z" fill="#404040"/>
<path d="M289.136 51.3386L289.107 61.7929H285.051L285.081 51.3386H289.136Z" fill="#404040"/>
<path d="M260.708 51.3385L260.678 61.7928L260.656 57.0768L260.685 46.6233L260.708 51.3385Z" fill="#6E6E6E"/>
<path d="M277.463 51.3416L277.433 61.7951L260.678 61.7929L260.707 51.3386L277.463 51.3416Z" fill="#404040"/>
<path d="M337.035 38.2256L337.006 48.6791L323.142 65.4748L323.172 55.0212L337.035 38.2256Z" fill="#404040"/>
<path d="M337.018 34.394L337.035 38.2255L323.172 55.0211H315.305L328.917 38.5181H312.672L312.653 34.394H337.018Z" fill="#5B5B5B"/>
<path d="M323.171 55.021L323.142 65.4746H315.275L315.305 55.021H323.171Z" fill="#404040"/>
<path d="M277.483 55.0241L277.454 65.4777L277.433 61.7951L277.463 51.3416L277.483 55.0241Z" fill="#6E6E6E"/>
<path d="M285.081 51.3385L285.097 55.0233H277.483L277.463 51.3408H260.707L260.685 46.6255L276.097 34.3962H284.981L285.055 47.2167H289.12L289.14 51.3408L285.081 51.3385ZM268.555 47.2145H277.44L277.4 40.1427L268.555 47.2145Z" fill="#5B5B5B"/>
<path d="M285.097 55.0232L285.068 65.4775H277.454L277.484 55.0239L285.097 55.0232Z" fill="#404040"/>
<path d="M258.953 55.021L258.924 65.4753L233.797 65.4775L233.826 55.024L258.953 55.021Z" fill="#404040"/>
<path d="M255.762 35.9787C257.751 37.1292 258.861 38.6864 258.871 40.4332C258.904 46.2997 247.74 47.2427 243.697 50.8971H258.934L258.953 55.0212H233.826C233.768 45.2951 251.032 45.2944 251.006 40.7281C250.974 40.3381 250.839 39.9638 250.614 39.6439C250.389 39.324 250.083 39.0701 249.728 38.9086C248.548 38.3105 247.235 38.0231 245.913 38.0737C244.269 38.0331 242.648 38.4744 241.251 39.3435C240.71 39.6677 240.231 40.0862 239.836 40.5792L233.734 38.8145C234.444 37.8458 235.336 37.0252 236.359 36.3988C238.281 35.1913 241.423 33.9541 246.398 33.9541C250.374 33.9526 253.593 34.7223 255.762 35.9787Z" fill="#5B5B5B"/>
<path d="M311.376 34.0984L311.347 44.5519L296.275 71.6655L296.305 61.2112L311.376 34.0984Z" fill="#404040"/>
<path d="M311.377 34.0984L296.305 61.2113H289.953L305.033 34.0984H311.377Z" fill="#5B5B5B"/>
<path d="M296.305 61.2114L296.275 71.6657H289.923L289.953 61.2114H296.305Z" fill="#404040"/>
<defs>
<filter id="filter0_f_643_2438" x="67" y="124.032" width="50" height="37.0042" filterUnits="userSpaceOnUse" color-interpolation-filters="sRGB">
<feFlood flood-opacity="0" result="BackgroundImageFix"/>
<feBlend mode="normal" in="SourceGraphic" in2="BackgroundImageFix" result="shape"/>
<feGaussianBlur stdDeviation="5" result="effect1_foregroundBlur_643_2438"/>
</filter>
<filter id="filter1_f_643_2438" x="452" y="131.034" width="50" height="37.0042" filterUnits="userSpaceOnUse" color-interpolation-filters="sRGB">
<feFlood flood-opacity="0" result="BackgroundImageFix"/>
<feBlend mode="normal" in="SourceGraphic" in2="BackgroundImageFix" result="shape"/>
<feGaussianBlur stdDeviation="5" result="effect1_foregroundBlur_643_2438"/>
</filter>
</defs>
</svg>
