<svg width="52" height="64" viewBox="0 0 52 64" fill="none" xmlns="http://www.w3.org/2000/svg">
<path d="M27.8784 32.6051L27.9498 57.2806L39.7007 64L39.6293 39.3251L27.8784 32.6051Z" fill="#999999"/>
<path d="M39.6297 39.3251L39.7011 64L51.5252 57.2825L51.4538 32.6075L39.6297 39.3251Z" fill="#404040"/>
<path d="M27.8788 32.6051L39.6297 39.3251L51.4539 32.6075L39.7029 25.8882L27.8788 32.6051Z" fill="#545454"/>
<path d="M0.474954 6.71692L0.545712 57.2806L12.2972 63.9999L12.2259 13.4369L0.474954 6.71692Z" fill="#999999"/>
<path d="M12.2258 13.437L12.2971 64.0001L24.1207 57.2826L24.0499 6.71948L12.2258 13.437Z" fill="#404040"/>
<path d="M0.474758 6.71692L12.2257 13.4369L24.0498 6.71934L12.2989 0L0.474758 6.71692Z" fill="#545454"/>
</svg>
