<svg width="74" height="64" viewBox="0 0 74 64" fill="none" xmlns="http://www.w3.org/2000/svg">
<path d="M4.01589 37.7735C-0.790344 40.5484 -0.811935 45.0466 3.95937 47.8211L28.2194 61.9188C32.9946 64.6937 40.7579 64.6937 45.5646 61.9188L69.9831 47.8203C74.7874 45.0466 74.8149 40.5487 70.0396 37.7727L45.7801 23.677C41.0072 20.9033 33.2387 20.9033 28.4348 23.677L4.01589 37.7735Z" fill="#2F2F2F"/>
<path d="M4.01589 27.2747C-0.790344 30.0496 -0.811935 34.5479 3.95937 37.3223L28.2194 51.42C32.9946 54.1949 40.7579 54.1949 45.5646 51.42L69.9831 37.3216C74.7874 34.5479 74.8149 30.05 70.0396 27.2739L45.7801 13.1782C41.0072 10.4045 33.2387 10.4045 28.4348 13.1782L4.01589 27.2747Z" fill="#454545"/>
<path d="M4.01604 16.1799C-0.790588 18.9548 -0.811783 23.4527 3.95951 26.2276L28.2195 40.3249C32.9947 43.1002 40.7581 43.1002 45.5647 40.3249L69.9833 26.2252C74.7871 23.4519 74.815 18.954 70.0398 16.1776L45.7798 2.08027C41.0069 -0.693425 33.2385 -0.693425 28.4346 2.08027L4.01604 16.1799Z" fill="#545454"/>
</svg>
